Absans.ufo
<glyph name="exclam" format="2">
  <advance width="276"/>
  <unicode hex="0021"/>
  <outline>
    <contour>
      <point x="85" y="0" type="line"/>
      <point x="191" y="0" type="line"/>
      <point x="191" y="105" type="line"/>
      <point x="85" y="105" type="line"/>
    </contour>
    <contour>
      <point x="118" y="180" type="line"/>
      <point x="158" y="180" type="line"/>
      <point x="178" y="541" type="line"/>
      <point x="178" y="700" type="line"/>
      <point x="98" y="700" type="line"/>
      <point x="98" y="541" type="line"/>
    </contour>
  </outline>
</glyph>
<glyph name="numbersign" format="2">
  <advance width="634"/>
  <unicode hex="0023"/>
  <outline>
    <contour>
      <point x="112" y="0" type="line"/>
      <point x="147" y="0" type="line"/>
      <point x="287" y="700" type="line"/>
      <point x="252" y="700" type="line"/>
    </contour>
    <contour>
      <point x="337" y="0" type="line"/>
      <point x="372" y="0" type="line"/>
      <point x="512" y="700" type="line"/>
      <point x="477" y="700" type="line"/>
    </contour>
    <contour>
      <point x="24" y="256" type="line"/>
      <point x="24" y="226" type="line"/>
      <point x="577" y="226" type="line"/>
      <point x="577" y="256" type="line"/>
    </contour>
    <contour>
      <point x="57" y="492" type="line"/>
      <point x="57" y="462" type="line"/>
      <point x="610" y="462" type="line"/>
      <point x="610" y="492" type="line"/>
    </contour>
  </outline>
</glyph>
<glyph name="dollar" format="2">
  <advance width="630"/>
  <unicode hex="0024"/>
  <anchor x="315" y="0" name="bottom"/>
  <anchor x="315" y="700" name="top"/>
  <outline>
    <contour>
      <point x="307" y="656" type="curve" smooth="yes"/>
      <point x="392" y="656"/>
      <point x="484" y="598"/>
      <point x="478" y="450" type="curve"/>
      <point x="548" y="533" type="line"/>
      <point x="524" y="648"/>
      <point x="437" y="712"/>
      <point x="311" y="712" type="curve" smooth="yes"/>
      <point x="191" y="712"/>
      <point x="89" y="654"/>
      <point x="89" y="531" type="curve" smooth="yes"/>
      <point x="89" y="264"/>
      <point x="499" y="397"/>
      <point x="499" y="185" type="curve" smooth="yes"/>
      <point x="499" y="96"/>
      <point x="416" y="50"/>
      <point x="326" y="50" type="curve" smooth="yes"/>
      <point x="218" y="50"/>
      <point x="116" y="111"/>
      <point x="121" y="266" type="curve"/>
      <point x="51" y="183" type="line"/>
      <point x="75" y="67"/>
      <point x="166" y="-10"/>
      <point x="319" y="-10" type="curve" smooth="yes"/>
      <point x="454" y="-10"/>
      <point x="576" y="51"/>
      <point x="576" y="189" type="curve" smooth="yes"/>
      <point x="576" y="468"/>
      <point x="166" y="343"/>
      <point x="166" y="538" type="curve" smooth="yes"/>
      <point x="166" y="613"/>
      <point x="237" y="656"/>
    </contour>
    <contour>
      <point x="298" y="-130" type="line"/>
      <point x="335" y="-130" type="line"/>
      <point x="335" y="840" type="line"/>
      <point x="298" y="840" type="line"/>
    </contour>
  </outline>
</glyph>
<glyph name="percent" format="2">
  <advance width="869"/>
  <unicode hex="0025"/>
  <anchor x="219" y="0" name="bottom"/>
  <anchor x="219" y="250" name="center"/>
  <anchor x="477" y="10" name="ogonek"/>
  <anchor x="219" y="500" name="top"/>
  <anchor x="521" y="500" name="topright"/>
  <outline>
    <contour>
      <point x="219" y="326" type="curve" smooth="yes"/>
      <point x="325" y="326"/>
      <point x="395" y="402"/>
      <point x="395" y="517" type="curve" smooth="yes"/>
      <point x="395" y="631"/>
      <point x="325" y="707"/>
      <point x="219" y="707" type="curve" smooth="yes"/>
      <point x="113" y="707"/>
      <point x="43" y="631"/>
      <point x="43" y="517" type="curve" smooth="yes"/>
      <point x="43" y="402"/>
      <point x="113" y="326"/>
    </contour>
    <contour>
      <point x="219" y="361" type="curve" smooth="yes"/>
      <point x="138" y="361"/>
      <point x="83" y="423"/>
      <point x="83" y="517" type="curve" smooth="yes"/>
      <point x="83" y="611"/>
      <point x="138" y="673"/>
      <point x="219" y="672" type="curve" smooth="yes"/>
      <point x="300" y="673"/>
      <point x="355" y="611"/>
      <point x="355" y="517" type="curve" smooth="yes"/>
      <point x="355" y="423"/>
      <point x="300" y="361"/>
    </contour>
    <contour>
      <point x="169" y="0" type="line"/>
      <point x="213" y="0" type="line"/>
      <point x="696" y="700" type="line"/>
      <point x="652" y="700" type="line"/>
    </contour>
    <contour>
      <point x="650" y="-10" type="curve" smooth="yes"/>
      <point x="756" y="-10"/>
      <point x="826" y="66"/>
      <point x="826" y="181" type="curve" smooth="yes"/>
      <point x="826" y="295"/>
      <point x="756" y="371"/>
      <point x="650" y="371" type="curve" smooth="yes"/>
      <point x="544" y="371"/>
      <point x="474" y="295"/>
      <point x="474" y="181" type="curve" smooth="yes"/>
      <point x="474" y="66"/>
      <point x="544" y="-10"/>
    </contour>
    <contour>
      <point x="650" y="25" type="curve" smooth="yes"/>
      <point x="569" y="25"/>
      <point x="514" y="87"/>
      <point x="514" y="181" type="curve" smooth="yes"/>
      <point x="514" y="275"/>
      <point x="569" y="337"/>
      <point x="650" y="336" type="curve" smooth="yes"/>
      <point x="731" y="337"/>
      <point x="786" y="275"/>
      <point x="786" y="181" type="curve" smooth="yes"/>
      <point x="786" y="87"/>
      <point x="731" y="25"/>
    </contour>
  </outline>
</glyph>
<glyph name="ampersand" format="2">
  <advance width="760"/>
  <unicode hex="0026"/>
  <anchor x="335" y="0" name="bottom"/>
  <anchor x="335" y="700" name="top"/>
  <outline>
    <contour>
      <point x="324" y="652" type="curve" smooth="yes"/>
      <point x="381" y="652"/>
      <point x="417" y="611"/>
      <point x="417" y="557" type="curve" smooth="yes"/>
      <point x="417" y="477"/>
      <point x="348" y="449"/>
      <point x="266" y="417" type="curve" smooth="yes"/>
      <point x="171" y="380"/>
      <point x="65" y="318"/>
      <point x="65" y="189" type="curve" smooth="yes"/>
      <point x="65" y="52"/>
      <point x="173" y="-9"/>
      <point x="297" y="-9" type="curve" smooth="yes"/>
      <point x="493" y="-9"/>
      <point x="641" y="152"/>
      <point x="675" y="417" type="curve"/>
      <point x="607" y="497" type="line"/>
      <point x="613" y="237"/>
      <point x="489" y="53"/>
      <point x="307" y="53" type="curve" smooth="yes"/>
      <point x="207" y="53"/>
      <point x="138" y="108"/>
      <point x="138" y="195" type="curve" smooth="yes"/>
      <point x="138" y="289"/>
      <point x="221" y="334"/>
      <point x="301" y="366" type="curve" smooth="yes"/>
      <point x="395" y="404"/>
      <point x="486" y="447"/>
      <point x="486" y="557" type="curve" smooth="yes"/>
      <point x="486" y="649"/>
      <point x="423" y="711"/>
      <point x="328" y="711" type="curve" smooth="yes"/>
      <point x="225" y="711"/>
      <point x="158" y="644"/>
      <point x="158" y="548" type="curve" smooth="yes"/>
      <point x="158" y="453"/>
      <point x="234" y="385"/>
      <point x="319" y="304" type="curve" smooth="yes"/>
      <point x="637" y="1" type="line"/>
      <point x="731" y="1" type="line"/>
      <point x="374" y="346" type="line" smooth="yes"/>
      <point x="300" y="418"/>
      <point x="230" y="478"/>
      <point x="230" y="554" type="curve" smooth="yes"/>
      <point x="230" y="610"/>
      <point x="268" y="652"/>
    </contour>
  </outline>
</glyph>
<glyph name="quotesingle" format="2">
  <advance width="265"/>
  <unicode hex="0027"/>
  <anchor x="23" y="0" name="#entry"/>
  <anchor x="183" y="0" name="#exit"/>
  <outline>
    <contour>
      <point x="113" y="431" type="line"/>
      <point x="153" y="431" type="line"/>
      <point x="180" y="700" type="line"/>
      <point x="85" y="700" type="line"/>
    </contour>
  </outline>
</glyph>
<glyph name="parenleft" format="2">
  <advance width="499"/>
  <unicode hex="0028"/>
  <outline>
    <contour>
      <point x="461" y="-200" type="move"/>
      <point x="235" y="-180"/>
      <point x="58" y="20"/>
      <point x="58" y="300" type="curve" smooth="yes"/>
      <point x="58" y="580"/>
      <point x="235" y="780"/>
      <point x="461" y="800" type="curve"/>
    </contour>
  </outline>
</glyph>
<glyph name="asterisk" format="2">
  <advance width="462"/>
  <unicode hex="002A"/>
  <outline>
    <contour>
      <point x="214" y="310" type="line"/>
      <point x="251" y="310" type="line"/>
      <point x="251" y="710" type="line"/>
      <point x="214" y="710" type="line"/>
    </contour>
    <contour>
      <point x="66" y="623" type="line"/>
      <point x="50" y="594" type="line"/>
      <point x="396" y="394" type="line"/>
      <point x="412" y="423" type="line"/>
    </contour>
    <contour>
      <point x="396" y="623" type="line"/>
      <point x="50" y="423" type="line"/>
      <point x="66" y="394" type="line"/>
      <point x="412" y="594" type="line"/>
    </contour>
    <contour>
      <point x="233" y="450" type="curve" smooth="yes"/>
      <point x="266" y="450"/>
      <point x="293" y="477"/>
      <point x="293" y="511" type="curve" smooth="yes"/>
      <point x="293" y="544"/>
      <point x="266" y="571"/>
      <point x="233" y="571" type="curve" smooth="yes"/>
      <point x="199" y="571"/>
      <point x="172" y="544"/>
      <point x="172" y="511" type="curve" smooth="yes"/>
      <point x="172" y="477"/>
      <point x="199" y="450"/>
    </contour>
  </outline>
</glyph>
<glyph name="plus" format="2">
  <advance width="573"/>
  <unicode hex="002B"/>
  <outline>
    <contour>
      <point x="60" y="288" type="line"/>
      <point x="60" y="253" type="line"/>
      <point x="513" y="253" type="line"/>
      <point x="513" y="288" type="line"/>
    </contour>
    <contour>
      <point x="304" y="497" type="line"/>
      <point x="269" y="497" type="line"/>
      <point x="269" y="44" type="line"/>
      <point x="304" y="44" type="line"/>
    </contour>
  </outline>
</glyph>
<glyph name="comma" format="2">
  <advance width="294"/>
  <unicode hex="002C"/>
  <outline>
    <contour>
      <point x="103" y="0" type="line"/>
      <point x="150" y="0" type="line"/>
      <point x="150" y="-62"/>
      <point x="145" y="-100"/>
      <point x="85" y="-150" type="curve"/>
      <point x="164" y="-150" type="line"/>
      <point x="204" y="-100"/>
      <point x="209" y="-65"/>
      <point x="209" y="10" type="curve" smooth="yes"/>
      <point x="209" y="105" type="line"/>
      <point x="103" y="105" type="line"/>
    </contour>
  </outline>
</glyph>
<glyph name="hyphen" format="2">
  <advance width="473"/>
  <unicode hex="002D"/>
  <outline>
    <contour>
      <point x="60" y="300" type="line"/>
      <point x="60" y="241" type="line"/>
      <point x="413" y="241" type="line"/>
      <point x="413" y="300" type="line"/>
    </contour>
  </outline>
</glyph>
<glyph name="period" format="2">
  <advance width="276"/>
  <unicode hex="002E"/>
  <outline>
    <contour>
      <point x="85" y="0" type="line"/>
      <point x="191" y="0" type="line"/>
      <point x="191" y="105" type="line"/>
      <point x="85" y="105" type="line"/>
    </contour>
  </outline>
</glyph>
<glyph name="slash" format="2">
  <advance width="480"/>
  <unicode hex="002F"/>
  <outline>
    <contour>
      <point x="20" y="-200" type="line"/>
      <point x="60" y="-200" type="line"/>
      <point x="460" y="800" type="line"/>
      <point x="420" y="800" type="line"/>
    </contour>
  </outline>
</glyph>
<glyph name="zero" format="2">
  <advance width="668"/>
  <unicode hex="0030"/>
  <outline>
    <contour>
      <point x="334" y="-8" type="curve" smooth="yes"/>
      <point x="509" y="-8"/>
      <point x="616" y="129"/>
      <point x="616" y="353" type="curve" smooth="yes"/>
      <point x="616" y="576"/>
      <point x="509" y="713"/>
      <point x="334" y="713" type="curve" smooth="yes"/>
      <point x="159" y="713"/>
      <point x="52" y="576"/>
      <point x="52" y="353" type="curve" smooth="yes"/>
      <point x="52" y="129"/>
      <point x="159" y="-8"/>
    </contour>
    <contour>
      <point x="334" y="57" type="curve" smooth="yes"/>
      <point x="206" y="57"/>
      <point x="127" y="169"/>
      <point x="127" y="353" type="curve" smooth="yes"/>
      <point x="127" y="536"/>
      <point x="206" y="648"/>
      <point x="334" y="648" type="curve" smooth="yes"/>
      <point x="462" y="648"/>
      <point x="541" y="536"/>
      <point x="541" y="353" type="curve" smooth="yes"/>
      <point x="541" y="169"/>
      <point x="462" y="57"/>
    </contour>
  </outline>
</glyph>
<glyph name="one" format="2">
  <advance width="305"/>
  <unicode hex="0031"/>
  <outline>
    <contour>
      <point x="145" y="0" type="line"/>
      <point x="220" y="0" type="line"/>
      <point x="220" y="700" type="line"/>
      <point x="155" y="700" type="line"/>
      <point x="23" y="580" type="line"/>
      <point x="23" y="499" type="line"/>
      <point x="145" y="609" type="line"/>
    </contour>
  </outline>
</glyph>
<glyph name="two" format="2">
  <advance width="630"/>
  <unicode hex="0032"/>
  <outline>
    <contour>
      <point x="71" y="50" type="curve" smooth="yes"/>
      <point x="71" y="0" type="line"/>
      <point x="565" y="0" type="line"/>
      <point x="565" y="67" type="line"/>
      <point x="101" y="67" type="line"/>
      <point x="151" y="30" type="line"/>
      <point x="116" y="311"/>
      <point x="561" y="225"/>
      <point x="561" y="506" type="curve" smooth="yes"/>
      <point x="561" y="646"/>
      <point x="454" y="712"/>
      <point x="321" y="712" type="curve" smooth="yes"/>
      <point x="182" y="712"/>
      <point x="88" y="644"/>
      <point x="62" y="523" type="curve"/>
      <point x="132" y="440" type="line"/>
      <point x="125" y="591"/>
      <point x="228" y="651"/>
      <point x="321" y="651" type="curve" smooth="yes"/>
      <point x="407" y="651"/>
      <point x="483" y="602"/>
      <point x="483" y="506" type="curve" smooth="yes"/>
      <point x="483" y="290"/>
      <point x="71" y="354"/>
    </contour>
  </outline>
</glyph>
<glyph name="three" format="2">
  <advance width="626"/>
  <unicode hex="0033"/>
  <outline>
    <contour>
      <point x="309" y="409" type="curve"/>
      <point x="309" y="359" type="line"/>
      <point x="441" y="359"/>
      <point x="526" y="423"/>
      <point x="526" y="527" type="curve" smooth="yes"/>
      <point x="526" y="650"/>
      <point x="425" y="712"/>
      <point x="298" y="712" type="curve" smooth="yes"/>
      <point x="165" y="712"/>
      <point x="76" y="648"/>
      <point x="50" y="533" type="curve"/>
      <point x="120" y="450" type="line"/>
      <point x="113" y="595"/>
      <point x="212" y="653"/>
      <point x="298" y="653" type="curve" smooth="yes"/>
      <point x="380" y="653"/>
      <point x="449" y="608"/>
      <point x="449" y="527" type="curve" smooth="yes"/>
      <point x="449" y="453"/>
      <point x="393" y="409"/>
    </contour>
    <contour>
      <point x="309" y="344" type="line"/>
      <point x="411" y="344"/>
      <point x="479" y="288"/>
      <point x="479" y="203" type="curve" smooth="yes"/>
      <point x="479" y="102"/>
      <point x="391" y="48"/>
      <point x="298" y="48" type="curve" smooth="yes"/>
      <point x="195" y="48"/>
      <point x="89" y="108"/>
      <point x="96" y="259" type="curve"/>
      <point x="26" y="176" type="line"/>
      <point x="52" y="55"/>
      <point x="149" y="-13"/>
      <point x="298" y="-13" type="curve" smooth="yes"/>
      <point x="439" y="-13"/>
      <point x="556" y="59"/>
      <point x="556" y="199" type="curve" smooth="yes"/>
      <point x="556" y="321"/>
      <point x="459" y="396"/>
      <point x="309" y="396" type="curve"/>
    </contour>
    <contour>
      <point x="213" y="409" type="line"/>
      <point x="213" y="344" type="line"/>
      <point x="310" y="344" type="line"/>
      <point x="310" y="409" type="line"/>
    </contour>
  </outline>
</glyph>
<glyph name="four" format="2">
  <advance width="618"/>
  <unicode hex="0034"/>
  <outline>
    <contour>
      <point x="371" y="0" type="line"/>
      <point x="446" y="0" type="line"/>
      <point x="446" y="700" type="line"/>
      <point x="371" y="700" type="line"/>
    </contour>
    <contour>
      <point x="65" y="204" type="line"/>
      <point x="618" y="204" type="line"/>
      <point x="618" y="266" type="line"/>
      <point x="75" y="266" type="line"/>
    </contour>
    <contour>
      <point x="29" y="261" type="line"/>
      <point x="29" y="204" type="line"/>
      <point x="69" y="204" type="line"/>
      <point x="412" y="700" type="line"/>
      <point x="329" y="700" type="line"/>
    </contour>
  </outline>
</glyph>
<glyph name="five" format="2">
  <advance width="659"/>
  <unicode hex="0035"/>
  <outline>
    <contour>
      <point x="157" y="292" type="line"/>
      <point x="192" y="369"/>
      <point x="251" y="417"/>
      <point x="341" y="417" type="curve" smooth="yes"/>
      <point x="450" y="417"/>
      <point x="523" y="346"/>
      <point x="523" y="239" type="curve" smooth="yes"/>
      <point x="523" y="127"/>
      <point x="450" y="52"/>
      <point x="341" y="52" type="curve" smooth="yes"/>
      <point x="252" y="52"/>
      <point x="148" y="111"/>
      <point x="150" y="259" type="curve"/>
      <point x="80" y="176" type="line"/>
      <point x="110" y="55"/>
      <point x="210" y="-13"/>
      <point x="336" y="-13" type="curve" smooth="yes"/>
      <point x="494" y="-13"/>
      <point x="600" y="88"/>
      <point x="600" y="240" type="curve" smooth="yes"/>
      <point x="600" y="383"/>
      <point x="503" y="479"/>
      <point x="358" y="479" type="curve" smooth="yes"/>
      <point x="285" y="479"/>
      <point x="205" y="452"/>
      <point x="162" y="369" type="curve"/>
      <point x="174" y="355" type="line"/>
      <point x="184" y="678" type="line"/>
      <point x="132" y="633" type="line"/>
      <point x="565" y="633" type="line"/>
      <point x="565" y="700" type="line"/>
      <point x="116" y="700" type="line"/>
      <point x="101" y="303" type="line"/>
      <point x="216" y="293" type="line"/>
    </contour>
  </outline>
</glyph>
<glyph name="six" format="2">
  <advance width="633"/>
  <unicode hex="0036"/>
  <outline>
    <contour>
      <point x="334" y="-10" type="curve" smooth="yes"/>
      <point x="488" y="-10"/>
      <point x="588" y="94"/>
      <point x="588" y="233" type="curve" smooth="yes"/>
      <point x="588" y="370"/>
      <point x="488" y="463"/>
      <point x="344" y="463" type="curve" smooth="yes"/>
      <point x="200" y="463"/>
      <point x="115" y="366"/>
      <point x="114" y="230" type="curve"/>
      <point x="143" y="238" type="line"/>
      <point x="132" y="272"/>
      <point x="127" y="311"/>
      <point x="127" y="352" type="curve" smooth="yes"/>
      <point x="127" y="523"/>
      <point x="212" y="646"/>
      <point x="340" y="646" type="curve" smooth="yes"/>
      <point x="428" y="646"/>
      <point x="509" y="598"/>
      <point x="532" y="501" type="curve"/>
      <point x="578" y="596" type="line"/>
      <point x="533" y="671"/>
      <point x="441" y="711"/>
      <point x="340" y="711" type="curve" smooth="yes"/>
      <point x="160" y="711"/>
      <point x="52" y="560"/>
      <point x="52" y="342" type="curve" smooth="yes"/>
      <point x="52" y="141"/>
      <point x="152" y="-10"/>
    </contour>
    <contour>
      <point x="155" y="228" type="curve" smooth="yes"/>
      <point x="155" y="328"/>
      <point x="230" y="400"/>
      <point x="334" y="400" type="curve" smooth="yes"/>
      <point x="438" y="400"/>
      <point x="513" y="328"/>
      <point x="513" y="228" type="curve" smooth="yes"/>
      <point x="513" y="127"/>
      <point x="438" y="55"/>
      <point x="334" y="55" type="curve" smooth="yes"/>
      <point x="232" y="55"/>
      <point x="155" y="125"/>
    </contour>
  </outline>
</glyph>
<glyph name="seven" format="2">
  <advance width="556"/>
  <unicode hex="0037"/>
  <outline>
    <contour>
      <point x="110" y="0" type="line"/>
      <point x="190" y="0" type="line"/>
      <point x="516" y="645" type="line"/>
      <point x="516" y="700" type="line"/>
      <point x="40" y="700" type="line"/>
      <point x="40" y="633" type="line"/>
      <point x="481" y="633" type="line"/>
      <point x="456" y="675" type="line"/>
    </contour>
  </outline>
</glyph>
<glyph name="eight" format="2">
  <advance width="600"/>
  <unicode hex="0038"/>
  <outline>
    <contour>
      <point x="298" y="409" type="curve"/>
      <point x="298" y="359" type="line"/>
      <point x="442" y="359"/>
      <point x="531" y="423"/>
      <point x="531" y="527" type="curve" smooth="yes"/>
      <point x="531" y="650"/>
      <point x="428" y="712"/>
      <point x="298" y="712" type="curve"/>
      <point x="298" y="651" type="line"/>
      <point x="383" y="651"/>
      <point x="456" y="607"/>
      <point x="456" y="527" type="curve" smooth="yes"/>
      <point x="456" y="453"/>
      <point x="397" y="409"/>
    </contour>
    <contour>
      <point x="298" y="344" type="line"/>
      <point x="415" y="344"/>
      <point x="486" y="283"/>
      <point x="486" y="198" type="curve" smooth="yes"/>
      <point x="486" y="97"/>
      <point x="395" y="48"/>
      <point x="298" y="48" type="curve"/>
      <point x="298" y="-13" type="line"/>
      <point x="441" y="-13"/>
      <point x="561" y="53"/>
      <point x="561" y="198" type="curve" smooth="yes"/>
      <point x="561" y="315"/>
      <point x="460" y="396"/>
      <point x="298" y="396" type="curve"/>
    </contour>
    <contour>
      <point x="298" y="409" type="line"/>
      <point x="199" y="409"/>
      <point x="140" y="453"/>
      <point x="140" y="527" type="curve" smooth="yes"/>
      <point x="140" y="607"/>
      <point x="213" y="651"/>
      <point x="298" y="651" type="curve"/>
      <point x="298" y="712" type="line"/>
      <point x="168" y="712"/>
      <point x="65" y="650"/>
      <point x="65" y="527" type="curve" smooth="yes"/>
      <point x="65" y="423"/>
      <point x="154" y="359"/>
      <point x="298" y="359" type="curve"/>
    </contour>
    <contour>
      <point x="298" y="344" type="curve"/>
      <point x="298" y="396" type="line"/>
      <point x="136" y="396"/>
      <point x="35" y="315"/>
      <point x="35" y="198" type="curve" smooth="yes"/>
      <point x="35" y="53"/>
      <point x="155" y="-13"/>
      <point x="298" y="-13" type="curve"/>
      <point x="298" y="48" type="line"/>
      <point x="201" y="48"/>
      <point x="110" y="97"/>
      <point x="110" y="198" type="curve" smooth="yes"/>
      <point x="110" y="283"/>
      <point x="181" y="344"/>
    </contour>
  </outline>
</glyph>
<glyph name="colon" format="2">
  <advance width="276"/>
  <unicode hex="003A"/>
  <outline>
    <contour>
      <point x="85" y="0" type="line"/>
      <point x="191" y="0" type="line"/>
      <point x="191" y="105" type="line"/>
      <point x="85" y="105" type="line"/>
    </contour>
    <contour>
      <point x="85" y="397" type="line"/>
      <point x="191" y="397" type="line"/>
      <point x="191" y="502" type="line"/>
      <point x="85" y="502" type="line"/>
    </contour>
  </outline>
</glyph>
<glyph name="semicolon" format="2">
  <advance width="294"/>
  <unicode hex="003B"/>
  <outline>
    <contour>
      <point x="103" y="0" type="line"/>
      <point x="150" y="0" type="line"/>
      <point x="150" y="-62"/>
      <point x="145" y="-100"/>
      <point x="85" y="-150" type="curve"/>
      <point x="164" y="-150" type="line"/>
      <point x="204" y="-100"/>
      <point x="209" y="-65"/>
      <point x="209" y="10" type="curve" smooth="yes"/>
      <point x="209" y="105" type="line"/>
      <point x="103" y="105" type="line"/>
    </contour>
    <contour>
      <point x="103" y="397" type="line"/>
      <point x="209" y="397" type="line"/>
      <point x="209" y="502" type="line"/>
      <point x="103" y="502" type="line"/>
    </contour>
  </outline>
</glyph>
<glyph name="equal" format="2">
  <advance width="573"/>
  <unicode hex="003D"/>
  <outline>
    <contour>
      <point x="60" y="178" type="line"/>
      <point x="60" y="143" type="line"/>
      <point x="513" y="143" type="line"/>
      <point x="513" y="178" type="line"/>
    </contour>
    <contour>
      <point x="60" y="398" type="line"/>
      <point x="60" y="363" type="line"/>
      <point x="513" y="363" type="line"/>
      <point x="513" y="398" type="line"/>
    </contour>
  </outline>
</glyph>
<glyph name="greater" format="2">
  <advance width="573"/>
  <unicode hex="003E"/>
  <outline>
    <contour>
      <point x="60" y="130" type="line"/>
      <point x="60" y="93" type="line"/>
      <point x="513" y="253" type="line"/>
      <point x="513" y="288" type="line"/>
      <point x="60" y="448" type="line"/>
      <point x="60" y="411" type="line"/>
      <point x="508" y="255" type="line"/>
      <point x="508" y="287" type="line"/>
    </contour>
  </outline>
</glyph>
<glyph name="question" format="2">
  <advance width="470"/>
  <unicode hex="003F"/>
  <outline>
    <contour>
      <point x="201" y="182" type="curve"/>
      <point x="241" y="182" type="line"/>
      <point x="241" y="334"/>
      <point x="441" y="357"/>
      <point x="441" y="531" type="curve" smooth="yes"/>
      <point x="441" y="640"/>
      <point x="361" y="712"/>
      <point x="241" y="712" type="curve" smooth="yes"/>
      <point x="130" y="712"/>
      <point x="42" y="644"/>
      <point x="22" y="543" type="curve"/>
      <point x="92" y="460" type="line"/>
      <point x="87" y="575"/>
      <point x="147" y="651"/>
      <point x="241" y="651" type="curve" smooth="yes"/>
      <point x="316" y="651"/>
      <point x="366" y="603"/>
      <point x="366" y="531" type="curve" smooth="yes"/>
      <point x="366" y="386"/>
      <point x="187" y="377"/>
    </contour>
    <contour>
      <point x="171" y="0" type="line"/>
      <point x="277" y="0" type="line"/>
      <point x="277" y="105" type="line"/>
      <point x="171" y="105" type="line"/>
    </contour>
  </outline>
</glyph>
<glyph name="A" format="2">
  <advance width="758"/>
  <unicode hex="0041"/>
  <anchor x="379" y="0" name="bottom"/>
  <anchor x="738" y="0" name="ogonek"/>
  <anchor x="379" y="700" name="top"/>
  <outline>
    <contour>
      <point x="659" y="0" type="line"/>
      <point x="741" y="0" type="line"/>
      <point x="431" y="700" type="line"/>
      <point x="351" y="700" type="line"/>
    </contour>
    <contour>
      <point x="17" y="0" type="line"/>
      <point x="97" y="0" type="line"/>
      <point x="405" y="700" type="line"/>
      <point x="327" y="700" type="line"/>
    </contour>
    <contour>
      <point x="180" y="304" type="line"/>
      <point x="578" y="304" type="line"/>
      <point x="568" y="369" type="line"/>
      <point x="190" y="369" type="line"/>
    </contour>
  </outline>
</glyph>
<glyph name="B" format="2">
  <advance width="694"/>
  <unicode hex="0042"/>
  <outline>
    <contour>
      <point x="122" y="0" type="line"/>
      <point x="362" y="0" type="line" smooth="yes"/>
      <point x="524" y="0"/>
      <point x="624" y="83"/>
      <point x="624" y="213" type="curve" smooth="yes"/>
      <point x="624" y="343"/>
      <point x="524" y="419"/>
      <point x="362" y="419" type="curve" smooth="yes"/>
      <point x="122" y="419" type="line"/>
      <point x="122" y="365" type="line"/>
      <point x="362" y="365" type="line" smooth="yes"/>
      <point x="478" y="365"/>
      <point x="549" y="307"/>
      <point x="549" y="213" type="curve" smooth="yes"/>
      <point x="549" y="121"/>
      <point x="478" y="65"/>
      <point x="362" y="65" type="curve" smooth="yes"/>
      <point x="122" y="65" type="line"/>
    </contour>
    <contour>
      <point x="85" y="700" type="line"/>
      <point x="85" y="0" type="line"/>
      <point x="160" y="0" type="line"/>
      <point x="160" y="700" type="line"/>
    </contour>
    <contour>
      <point x="122" y="380" type="line"/>
      <point x="382" y="380" type="line" smooth="yes"/>
      <point x="507" y="380"/>
      <point x="584" y="444"/>
      <point x="584" y="539" type="curve" smooth="yes"/>
      <point x="584" y="642"/>
      <point x="508" y="700"/>
      <point x="382" y="700" type="curve" smooth="yes"/>
      <point x="122" y="700" type="line"/>
      <point x="122" y="635" type="line"/>
      <point x="382" y="635" type="line" smooth="yes"/>
      <point x="461" y="635"/>
      <point x="509" y="596"/>
      <point x="509" y="533" type="curve" smooth="yes"/>
      <point x="509" y="469"/>
      <point x="461" y="430"/>
      <point x="382" y="430" type="curve" smooth="yes"/>
      <point x="122" y="430" type="line"/>
    </contour>
  </outline>
</glyph>
<glyph name="C" format="2">
  <advance width="776"/>
  <unicode hex="0043"/>
  <anchor x="411" y="0" name="bottom"/>
  <anchor x="411" y="700" name="top"/>
  <outline>
    <contour>
      <point x="730" y="165" type="curve"/>
      <point x="682" y="262" type="line"/>
      <point x="653" y="130"/>
      <point x="542" y="57"/>
      <point x="414" y="57" type="curve" smooth="yes"/>
      <point x="247" y="57"/>
      <point x="127" y="181"/>
      <point x="127" y="353" type="curve" smooth="yes"/>
      <point x="127" y="525"/>
      <point x="247" y="648"/>
      <point x="414" y="648" type="curve" smooth="yes"/>
      <point x="539" y="648"/>
      <point x="648" y="579"/>
      <point x="680" y="451" type="curve"/>
      <point x="727" y="546" type="line"/>
      <point x="668" y="649"/>
      <point x="558" y="713"/>
      <point x="414" y="713" type="curve" smooth="yes"/>
      <point x="194" y="713"/>
      <point x="52" y="562"/>
      <point x="52" y="353" type="curve" smooth="yes"/>
      <point x="52" y="143"/>
      <point x="194" y="-8"/>
      <point x="414" y="-8" type="curve" smooth="yes"/>
      <point x="560" y="-8"/>
      <point x="672" y="58"/>
    </contour>
  </outline>
</glyph>
<glyph name="D" format="2">
  <advance width="716"/>
  <unicode hex="0044"/>
  <anchor x="357" y="0" name="bottom"/>
  <anchor x="125" y="350" name="center"/>
  <anchor x="357" y="700" name="top"/>
  <outline>
    <contour>
      <point x="122" y="700" type="line"/>
      <point x="122" y="635" type="line"/>
      <point x="302" y="635" type="line" smooth="yes"/>
      <point x="469" y="635"/>
      <point x="589" y="516"/>
      <point x="589" y="353" type="curve" smooth="yes"/>
      <point x="589" y="185"/>
      <point x="469" y="64"/>
      <point x="302" y="64" type="curve" smooth="yes"/>
      <point x="122" y="64" type="line"/>
      <point x="122" y="0" type="line"/>
      <point x="302" y="0" type="line" smooth="yes"/>
      <point x="522" y="0"/>
      <point x="664" y="148"/>
      <point x="664" y="353" type="curve" smooth="yes"/>
      <point x="664" y="554"/>
      <point x="522" y="700"/>
      <point x="302" y="700" type="curve" smooth="yes"/>
    </contour>
    <contour>
      <point x="85" y="0" type="line"/>
      <point x="160" y="0" type="line"/>
      <point x="160" y="700" type="line"/>
      <point x="85" y="700" type="line"/>
    </contour>
  </outline>
</glyph>
<glyph name="E" format="2">
  <advance width="618"/>
  <unicode hex="0045"/>
  <anchor x="314" y="0" name="bottom"/>
  <anchor x="565" y="0" name="ogonek"/>
  <anchor x="314" y="700" name="top"/>
  <anchor x="20" y="700" name="topleft"/>
  <outline>
    <contour>
      <point x="85" y="0" type="line"/>
      <point x="160" y="0" type="line"/>
      <point x="160" y="700" type="line"/>
      <point x="85" y="700" type="line"/>
    </contour>
    <contour>
      <point x="120" y="0" type="line"/>
      <point x="568" y="0" type="line"/>
      <point x="568" y="65" type="line"/>
      <point x="120" y="65" type="line"/>
    </contour>
    <contour>
      <point x="120" y="635" type="line"/>
      <point x="568" y="635" type="line"/>
      <point x="568" y="700" type="line"/>
      <point x="120" y="700" type="line"/>
    </contour>
    <contour>
      <point x="120" y="344" type="line"/>
      <point x="558" y="344" type="line"/>
      <point x="558" y="409" type="line"/>
      <point x="120" y="409" type="line"/>
    </contour>
  </outline>
</glyph>
<glyph name="F" format="2">
  <advance width="583"/>
  <unicode hex="0046"/>
  <outline>
    <contour>
      <point x="85" y="0" type="line"/>
      <point x="160" y="0" type="line"/>
      <point x="160" y="700" type="line"/>
      <point x="85" y="700" type="line"/>
    </contour>
    <contour>
      <point x="120" y="635" type="line"/>
      <point x="568" y="635" type="line"/>
      <point x="568" y="700" type="line"/>
      <point x="120" y="700" type="line"/>
    </contour>
    <contour>
      <point x="120" y="344" type="line"/>
      <point x="558" y="344" type="line"/>
      <point x="558" y="409" type="line"/>
      <point x="120" y="409" type="line"/>
    </contour>
  </outline>
</glyph>
<glyph name="G" format="2">
  <advance width="816"/>
  <unicode hex="0047"/>
  <anchor x="409" y="0" name="bottom"/>
  <anchor x="409" y="700" name="top"/>
  <outline>
    <contour>
      <point x="680" y="312" type="curve"/>
      <point x="655" y="312" type="line"/>
      <point x="653" y="130"/>
      <point x="537" y="57"/>
      <point x="409" y="57" type="curve" smooth="yes"/>
      <point x="242" y="57"/>
      <point x="127" y="181"/>
      <point x="127" y="353" type="curve" smooth="yes"/>
      <point x="127" y="525"/>
      <point x="247" y="648"/>
      <point x="414" y="648" type="curve" smooth="yes"/>
      <point x="539" y="648"/>
      <point x="648" y="579"/>
      <point x="680" y="451" type="curve"/>
      <point x="727" y="546" type="line"/>
      <point x="668" y="649"/>
      <point x="558" y="713"/>
      <point x="414" y="713" type="curve" smooth="yes"/>
      <point x="194" y="713"/>
      <point x="52" y="563"/>
      <point x="52" y="351" type="curve" smooth="yes"/>
      <point x="52" y="143"/>
      <point x="189" y="-8"/>
      <point x="392" y="-8" type="curve" smooth="yes"/>
      <point x="562" y="-8"/>
      <point x="678" y="98"/>
    </contour>
    <contour>
      <point x="655" y="0" type="line"/>
      <point x="730" y="0" type="line"/>
      <point x="730" y="390" type="line"/>
      <point x="310" y="390" type="line"/>
      <point x="310" y="325" type="line"/>
      <point x="655" y="325" type="line"/>
    </contour>
  </outline>
</glyph>
<glyph name="H" format="2">
  <advance width="755"/>
  <unicode hex="0048"/>
  <anchor x="378" y="0" name="bottom"/>
  <anchor x="378" y="545" name="center"/>
  <anchor x="378" y="700" name="top"/>
  <anchor x="20" y="700" name="topleft"/>
  <outline>
    <contour>
      <point x="85" y="0" type="line"/>
      <point x="160" y="0" type="line"/>
      <point x="160" y="700" type="line"/>
      <point x="85" y="700" type="line"/>
    </contour>
    <contour>
      <point x="595" y="0" type="line"/>
      <point x="670" y="0" type="line"/>
      <point x="670" y="700" type="line"/>
      <point x="595" y="700" type="line"/>
    </contour>
    <contour>
      <point x="120" y="344" type="line"/>
      <point x="628" y="344" type="line"/>
      <point x="628" y="409" type="line"/>
      <point x="120" y="409" type="line"/>
    </contour>
  </outline>
</glyph>
<glyph name="I" format="2">
  <advance width="245"/>
  <unicode hex="0049"/>
  <anchor x="123" y="0" name="bottom"/>
  <anchor x="122" y="350" name="center"/>
  <anchor x="188" y="0" name="ogonek"/>
  <anchor x="123" y="700" name="top"/>
  <anchor x="20" y="700" name="topleft"/>
  <outline>
    <contour>
      <point x="85" y="0" type="line"/>
      <point x="160" y="0" type="line"/>
      <point x="160" y="700" type="line"/>
      <point x="85" y="700" type="line"/>
    </contour>
  </outline>
</glyph>
<glyph name="J" format="2">
  <advance width="630"/>
  <unicode hex="004A"/>
  <anchor x="308" y="0" name="bottom"/>
  <anchor x="511" y="700" name="top"/>
  <outline>
    <contour>
      <point x="293" y="-10" type="curve" smooth="yes"/>
      <point x="452" y="-10"/>
      <point x="550" y="91"/>
      <point x="550" y="257" type="curve" smooth="yes"/>
      <point x="550" y="700" type="line"/>
      <point x="475" y="700" type="line"/>
      <point x="475" y="257" type="line" smooth="yes"/>
      <point x="475" y="132"/>
      <point x="406" y="56"/>
      <point x="293" y="56" type="curve" smooth="yes"/>
      <point x="200" y="56"/>
      <point x="111" y="116"/>
      <point x="115" y="266" type="curve"/>
      <point x="45" y="183" type="line"/>
      <point x="67" y="67"/>
      <point x="152" y="-10"/>
    </contour>
  </outline>
</glyph>
<glyph name="K" format="2">
  <advance width="688"/>
  <unicode hex="004B"/>
  <anchor x="344" y="0" name="bottom"/>
  <anchor x="344" y="700" name="top"/>
  <outline>
    <contour>
      <point x="85" y="0" type="line"/>
      <point x="160" y="0" type="line"/>
      <point x="160" y="700" type="line"/>
      <point x="85" y="700" type="line"/>
    </contour>
    <contour>
      <point x="114" y="303" type="line"/>
      <point x="111" y="217" type="line"/>
      <point x="650" y="700" type="line"/>
      <point x="554" y="700" type="line"/>
    </contour>
    <contour>
      <point x="277" y="435" type="line"/>
      <point x="587" y="0" type="line"/>
      <point x="678" y="0" type="line"/>
      <point x="336" y="478" type="line"/>
    </contour>
  </outline>
</glyph>
<glyph name="L" format="2">
  <advance width="568"/>
  <unicode hex="004C"/>
  <anchor x="289" y="0" name="bottom"/>
  <anchor x="289" y="350" name="center"/>
  <anchor x="119" y="700" name="top"/>
  <anchor x="398" y="700" name="topright"/>
  <outline>
    <contour>
      <point x="85" y="0" type="line"/>
      <point x="160" y="0" type="line"/>
      <point x="160" y="700" type="line"/>
      <point x="85" y="700" type="line"/>
    </contour>
    <contour>
      <point x="120" y="0" type="line"/>
      <point x="548" y="0" type="line"/>
      <point x="548" y="65" type="line"/>
      <point x="120" y="65" type="line"/>
    </contour>
  </outline>
</glyph>
<glyph name="M" format="2">
  <advance width="819"/>
  <unicode hex="004D"/>
  <outline>
    <contour>
      <point x="410" y="169" type="line"/>
      <point x="659" y="630" type="line"/>
      <point x="659" y="0" type="line"/>
      <point x="734" y="0" type="line"/>
      <point x="734" y="700" type="line"/>
      <point x="618" y="700" type="line"/>
      <point x="392" y="271" type="line"/>
      <point x="432" y="271" type="line"/>
      <point x="206" y="700" type="line"/>
      <point x="85" y="700" type="line"/>
      <point x="85" y="0" type="line"/>
      <point x="160" y="0" type="line"/>
      <point x="160" y="630" type="line"/>
    </contour>
  </outline>
</glyph>
<glyph name="N" format="2">
  <advance width="745"/>
  <unicode hex="004E"/>
  <anchor x="373" y="0" name="bottom"/>
  <anchor x="373" y="700" name="top"/>
  <outline>
    <contour>
      <point x="85" y="0" type="line"/>
      <point x="160" y="0" type="line"/>
      <point x="160" y="647" type="line"/>
      <point x="154" y="639" type="line"/>
      <point x="542" y="0" type="line"/>
      <point x="660" y="0" type="line"/>
      <point x="660" y="700" type="line"/>
      <point x="585" y="700" type="line"/>
      <point x="585" y="45" type="line"/>
      <point x="591" y="53" type="line"/>
      <point x="203" y="700" type="line"/>
      <point x="85" y="700" type="line"/>
    </contour>
  </outline>
</glyph>
<glyph name="O" format="2">
  <advance width="828"/>
  <unicode hex="004F"/>
  <anchor x="414" y="0" name="bottom"/>
  <anchor x="414" y="350" name="center"/>
  <anchor x="744" y="10" name="ogonek"/>
  <anchor x="414" y="700" name="top"/>
  <anchor x="22" y="700" name="topleft"/>
  <anchor x="806" y="700" name="topright"/>
  <outline>
    <contour>
      <point x="414" y="-8" type="curve" smooth="yes"/>
      <point x="634" y="-8"/>
      <point x="776" y="143"/>
      <point x="776" y="353" type="curve" smooth="yes"/>
      <point x="776" y="562"/>
      <point x="634" y="713"/>
      <point x="414" y="713" type="curve" smooth="yes"/>
      <point x="194" y="713"/>
      <point x="52" y="562"/>
      <point x="52" y="353" type="curve" smooth="yes"/>
      <point x="52" y="143"/>
      <point x="194" y="-8"/>
    </contour>
    <contour>
      <point x="414" y="57" type="curve" smooth="yes"/>
      <point x="247" y="57"/>
      <point x="127" y="181"/>
      <point x="127" y="353" type="curve" smooth="yes"/>
      <point x="127" y="525"/>
      <point x="247" y="648"/>
      <point x="414" y="648" type="curve" smooth="yes"/>
      <point x="581" y="648"/>
      <point x="701" y="525"/>
      <point x="701" y="353" type="curve" smooth="yes"/>
      <point x="701" y="181"/>
      <point x="581" y="57"/>
    </contour>
  </outline>
</glyph>
<glyph name="P" format="2">
  <advance width="664"/>
  <unicode hex="0050"/>
  <outline>
    <contour>
      <point x="122" y="700" type="line"/>
      <point x="122" y="635" type="line"/>
      <point x="392" y="635" type="line" smooth="yes"/>
      <point x="489" y="635"/>
      <point x="549" y="586"/>
      <point x="549" y="506" type="curve" smooth="yes"/>
      <point x="549" y="425"/>
      <point x="489" y="375"/>
      <point x="392" y="375" type="curve" smooth="yes"/>
      <point x="122" y="375" type="line"/>
      <point x="122" y="310" type="line"/>
      <point x="392" y="310" type="line" smooth="yes"/>
      <point x="536" y="310"/>
      <point x="624" y="384"/>
      <point x="624" y="506" type="curve" smooth="yes"/>
      <point x="624" y="626"/>
      <point x="536" y="700"/>
      <point x="392" y="700" type="curve" smooth="yes"/>
    </contour>
    <contour>
      <point x="85" y="0" type="line"/>
      <point x="160" y="0" type="line"/>
      <point x="160" y="700" type="line"/>
      <point x="85" y="700" type="line"/>
    </contour>
  </outline>
</glyph>
<glyph name="Q" format="2">
  <advance width="828"/>
  <unicode hex="0051"/>
  <outline>
    <contour>
      <point x="414" y="-8" type="curve" smooth="yes"/>
      <point x="634" y="-8"/>
      <point x="776" y="143"/>
      <point x="776" y="353" type="curve" smooth="yes"/>
      <point x="776" y="562"/>
      <point x="634" y="713"/>
      <point x="414" y="713" type="curve" smooth="yes"/>
      <point x="194" y="713"/>
      <point x="52" y="562"/>
      <point x="52" y="353" type="curve" smooth="yes"/>
      <point x="52" y="143"/>
      <point x="194" y="-8"/>
    </contour>
    <contour>
      <point x="414" y="57" type="curve" smooth="yes"/>
      <point x="247" y="57"/>
      <point x="127" y="181"/>
      <point x="127" y="353" type="curve" smooth="yes"/>
      <point x="127" y="525"/>
      <point x="247" y="648"/>
      <point x="414" y="648" type="curve" smooth="yes"/>
      <point x="581" y="648"/>
      <point x="701" y="525"/>
      <point x="701" y="353" type="curve" smooth="yes"/>
      <point x="701" y="181"/>
      <point x="581" y="57"/>
    </contour>
    <contour>
      <point x="420" y="35" type="curve"/>
      <point x="414" y="57" type="line"/>
      <point x="354" y="57"/>
      <point x="327" y="95"/>
      <point x="327" y="130" type="curve" smooth="yes"/>
      <point x="327" y="165"/>
      <point x="348" y="190"/>
      <point x="384" y="190" type="curve" smooth="yes"/>
      <point x="535" y="190"/>
      <point x="427" y="-131"/>
      <point x="660" y="-131" type="curve" smooth="yes"/>
      <point x="693" y="-131"/>
      <point x="714" y="-125"/>
      <point x="730" y="-114" type="curve"/>
      <point x="766" y="-23" type="line"/>
      <point x="738" y="-45"/>
      <point x="713" y="-61"/>
      <point x="657" y="-61" type="curve" smooth="yes"/>
      <point x="472" y="-61"/>
      <point x="582" y="238"/>
      <point x="383" y="238" type="curve" smooth="yes"/>
      <point x="324" y="238"/>
      <point x="277" y="197"/>
      <point x="277" y="134" type="curve" smooth="yes"/>
      <point x="277" y="70"/>
      <point x="325" y="35"/>
    </contour>
  </outline>
</glyph>
<glyph name="R" format="2">
  <advance width="734"/>
  <unicode hex="0052"/>
  <anchor x="362" y="0" name="bottom"/>
  <anchor x="362" y="700" name="top"/>
  <outline>
    <contour>
      <point x="122" y="350" type="line"/>
      <point x="425" y="350" type="line"/>
      <point x="435" y="360" type="line"/>
      <point x="569" y="360"/>
      <point x="637" y="429"/>
      <point x="637" y="532" type="curve" smooth="yes"/>
      <point x="637" y="636"/>
      <point x="560" y="700"/>
      <point x="435" y="700" type="curve" smooth="yes"/>
      <point x="122" y="700" type="line"/>
      <point x="122" y="635" type="line"/>
      <point x="435" y="635" type="line" smooth="yes"/>
      <point x="514" y="635"/>
      <point x="562" y="593"/>
      <point x="562" y="524" type="curve" smooth="yes"/>
      <point x="562" y="457"/>
      <point x="514" y="415"/>
      <point x="435" y="415" type="curve" smooth="yes"/>
      <point x="122" y="415" type="line"/>
    </contour>
    <contour>
      <point x="85" y="0" type="line"/>
      <point x="160" y="0" type="line"/>
      <point x="160" y="700" type="line"/>
      <point x="85" y="700" type="line"/>
    </contour>
    <contour>
      <point x="572" y="0" type="curve"/>
      <point x="668" y="0" type="line"/>
      <point x="612" y="37"/>
      <point x="600" y="104"/>
      <point x="600" y="174" type="curve" smooth="yes"/>
      <point x="600" y="199" type="line" smooth="yes"/>
      <point x="600" y="349"/>
      <point x="538" y="385"/>
      <point x="368" y="385" type="curve" smooth="yes"/>
      <point x="230" y="385" type="line"/>
      <point x="230" y="350" type="line"/>
      <point x="368" y="350" type="line" smooth="yes"/>
      <point x="457" y="350"/>
      <point x="529" y="326"/>
      <point x="524" y="199" type="curve" smooth="yes"/>
      <point x="523" y="174" type="line" smooth="yes"/>
      <point x="520" y="105"/>
      <point x="529" y="37"/>
    </contour>
  </outline>
</glyph>
<glyph name="S" format="2">
  <advance width="670"/>
  <unicode hex="0053"/>
  <anchor x="335" y="0" name="bottom"/>
  <anchor x="335" y="700" name="top"/>
  <outline>
    <contour>
      <point x="327" y="651" type="curve" smooth="yes"/>
      <point x="422" y="651"/>
      <point x="525" y="594"/>
      <point x="518" y="450" type="curve"/>
      <point x="588" y="533" type="line"/>
      <point x="562" y="648"/>
      <point x="468" y="712"/>
      <point x="331" y="712" type="curve" smooth="yes"/>
      <point x="196" y="712"/>
      <point x="89" y="654"/>
      <point x="89" y="521" type="curve" smooth="yes"/>
      <point x="89" y="241"/>
      <point x="539" y="414"/>
      <point x="539" y="190" type="curve" smooth="yes"/>
      <point x="539" y="99"/>
      <point x="446" y="55"/>
      <point x="346" y="55" type="curve" smooth="yes"/>
      <point x="228" y="55"/>
      <point x="116" y="115"/>
      <point x="121" y="266" type="curve"/>
      <point x="51" y="183" type="line"/>
      <point x="77" y="67"/>
      <point x="175" y="-10"/>
      <point x="339" y="-10" type="curve" smooth="yes"/>
      <point x="485" y="-10"/>
      <point x="616" y="51"/>
      <point x="616" y="194" type="curve" smooth="yes"/>
      <point x="616" y="491"/>
      <point x="166" y="326"/>
      <point x="166" y="528" type="curve" smooth="yes"/>
      <point x="166" y="610"/>
      <point x="242" y="651"/>
    </contour>
  </outline>
</glyph>
<glyph name="T" format="2">
  <advance width="665"/>
  <unicode hex="0054"/>
  <anchor x="328" y="0" name="bottom"/>
  <anchor x="328" y="350" name="center"/>
  <anchor x="328" y="700" name="top"/>
  <outline>
    <contour>
      <point x="363" y="700" type="line"/>
      <point x="288" y="700" type="line"/>
      <point x="288" y="0" type="line"/>
      <point x="363" y="0" type="line"/>
    </contour>
    <contour>
      <point x="645" y="700" type="line"/>
      <point x="20" y="700" type="line"/>
      <point x="20" y="635" type="line"/>
      <point x="645" y="635" type="line"/>
    </contour>
  </outline>
</glyph>
<glyph name="U" format="2">
  <advance width="695"/>
  <unicode hex="0055"/>
  <anchor x="348" y="0" name="bottom"/>
  <anchor x="348" y="375" name="center"/>
  <anchor x="454" y="-3" name="ogonek"/>
  <anchor x="348" y="700" name="top"/>
  <anchor x="670" y="700" name="topright"/>
  <outline>
    <contour>
      <point x="348" y="-10" type="curve" smooth="yes"/>
      <point x="514" y="-10"/>
      <point x="615" y="91"/>
      <point x="615" y="257" type="curve" smooth="yes"/>
      <point x="615" y="700" type="line"/>
      <point x="540" y="700" type="line"/>
      <point x="540" y="257" type="line" smooth="yes"/>
      <point x="540" y="132"/>
      <point x="467" y="56"/>
      <point x="348" y="56" type="curve" smooth="yes"/>
      <point x="228" y="56"/>
      <point x="155" y="132"/>
      <point x="155" y="257" type="curve" smooth="yes"/>
      <point x="155" y="700" type="line"/>
      <point x="80" y="700" type="line"/>
      <point x="80" y="257" type="line" smooth="yes"/>
      <point x="80" y="91"/>
      <point x="182" y="-10"/>
    </contour>
  </outline>
</glyph>
<glyph name="V" format="2">
  <advance width="718"/>
  <unicode hex="0056"/>
  <outline>
    <contour>
      <point x="99" y="700" type="line"/>
      <point x="17" y="700" type="line"/>
      <point x="307" y="0" type="line"/>
      <point x="387" y="0" type="line"/>
    </contour>
    <contour>
      <point x="701" y="700" type="line"/>
      <point x="621" y="700" type="line"/>
      <point x="333" y="0" type="line"/>
      <point x="411" y="0" type="line"/>
    </contour>
  </outline>
</glyph>
<glyph name="W" format="2">
  <advance width="948"/>
  <unicode hex="0057"/>
  <anchor x="474" y="0" name="bottom"/>
  <anchor x="474" y="700" name="top"/>
  <outline>
    <contour>
      <point x="100" y="700" type="line"/>
      <point x="22" y="700" type="line"/>
      <point x="282" y="0" type="line"/>
      <point x="358" y="0" type="line"/>
    </contour>
    <contour>
      <point x="464" y="382" type="line"/>
      <point x="498" y="291" type="line"/>
      <point x="650" y="700" type="line"/>
      <point x="581" y="700" type="line"/>
    </contour>
    <contour>
      <point x="384" y="700" type="line"/>
      <point x="313" y="700" type="line"/>
      <point x="573" y="0" type="line"/>
      <point x="642" y="0" type="line"/>
    </contour>
    <contour>
      <point x="926" y="700" type="line"/>
      <point x="850" y="700" type="line"/>
      <point x="592" y="0" type="line"/>
      <point x="666" y="0" type="line"/>
    </contour>
    <contour>
      <point x="483" y="291" type="line"/>
      <point x="449" y="382" type="line"/>
      <point x="308" y="0" type="line"/>
      <point x="375" y="0" type="line"/>
    </contour>
  </outline>
</glyph>
<glyph name="X" format="2">
  <advance width="764"/>
  <unicode hex="0058"/>
  <outline>
    <contour>
      <point x="128" y="700" type="line"/>
      <point x="34" y="700" type="line"/>
      <point x="331" y="356" type="line"/>
      <point x="20" y="0" type="line"/>
      <point x="114" y="0" type="line"/>
      <point x="402" y="328" type="line"/>
      <point x="362" y="328" type="line"/>
      <point x="650" y="0" type="line"/>
      <point x="744" y="0" type="line"/>
      <point x="432" y="356" type="line"/>
      <point x="730" y="700" type="line"/>
      <point x="636" y="700" type="line"/>
      <point x="362" y="384" type="line"/>
      <point x="402" y="384" type="line"/>
    </contour>
  </outline>
</glyph>
<glyph name="Y" format="2">
  <advance width="688"/>
  <unicode hex="0059"/>
  <anchor x="344" y="0" name="bottom"/>
  <anchor x="344" y="700" name="top"/>
  <anchor x="-10" y="700" name="topleft"/>
  <outline>
    <contour>
      <point x="94" y="700" type="line"/>
      <point x="2" y="700" type="line"/>
      <point x="307" y="334" type="line"/>
      <point x="307" y="0" type="line"/>
      <point x="382" y="0" type="line"/>
      <point x="382" y="335" type="line"/>
      <point x="686" y="700" type="line"/>
      <point x="595" y="700" type="line"/>
      <point x="304" y="354" type="line"/>
      <point x="385" y="354" type="line"/>
    </contour>
  </outline>
</glyph>
<glyph name="Z" format="2">
  <advance width="616"/>
  <unicode hex="005A"/>
  <anchor x="308" y="0" name="bottom"/>
  <anchor x="308" y="350" name="center"/>
  <anchor x="308" y="700" name="top"/>
  <outline>
    <contour>
      <point x="576" y="645" type="line"/>
      <point x="576" y="700" type="line"/>
      <point x="40" y="700" type="line"/>
      <point x="40" y="635" type="line"/>
      <point x="484" y="635" type="line"/>
      <point x="40" y="55" type="line"/>
      <point x="40" y="0" type="line"/>
      <point x="576" y="0" type="line"/>
      <point x="576" y="65" type="line"/>
      <point x="132" y="65" type="line"/>
    </contour>
  </outline>
</glyph>
<glyph name="bracketleft" format="2">
  <advance width="431"/>
  <unicode hex="005B"/>
  <outline>
    <contour>
      <point x="401" y="800" type="move"/>
      <point x="85" y="800" type="line"/>
      <point x="85" y="-200" type="line"/>
      <point x="401" y="-200" type="line"/>
    </contour>
  </outline>
</glyph>
<glyph name="asciicircum" format="2">
  <advance width="476"/>
  <unicode hex="005E"/>
  <anchor x="256" y="500" name="_top"/>
  <anchor x="256" y="760" name="top"/>
  <outline>
    <contour>
      <point x="104" y="393" type="move"/>
      <point x="236" y="692" type="line"/>
      <point x="240" y="692" type="line"/>
      <point x="372" y="393" type="line"/>
    </contour>
  </outline>
</glyph>
<glyph name="a" format="2">
  <advance width="560"/>
  <unicode hex="0061"/>
  <anchor x="280" y="0" name="bottom"/>
  <anchor x="531" y="0" name="ogonek"/>
  <anchor x="280" y="500" name="top"/>
  <outline>
    <contour>
      <point x="254" y="453" type="curve" smooth="yes"/>
      <point x="343" y="453"/>
      <point x="400" y="404"/>
      <point x="400" y="299" type="curve" smooth="yes"/>
      <point x="400" y="199"/>
      <point x="375" y="60"/>
      <point x="445" y="0" type="curve"/>
      <point x="538" y="0" type="line"/>
      <point x="448" y="60"/>
      <point x="473" y="205"/>
      <point x="473" y="305" type="curve" smooth="yes"/>
      <point x="473" y="445"/>
      <point x="386" y="512"/>
      <point x="255" y="512" type="curve" smooth="yes"/>
      <point x="146" y="512"/>
      <point x="64" y="449"/>
      <point x="49" y="364" type="curve"/>
      <point x="121" y="298" type="line"/>
      <point x="102" y="403"/>
      <point x="182" y="453"/>
    </contour>
    <contour>
      <point x="397" y="218" type="line"/>
      <point x="397" y="170"/>
      <point x="354" y="49"/>
      <point x="225" y="49" type="curve" smooth="yes"/>
      <point x="163" y="49"/>
      <point x="123" y="87"/>
      <point x="123" y="138" type="curve" smooth="yes"/>
      <point x="123" y="207"/>
      <point x="175" y="236"/>
      <point x="253" y="237" type="curve" smooth="yes"/>
      <point x="409" y="239" type="line"/>
      <point x="408" y="299" type="line"/>
      <point x="253" y="298" type="line" smooth="yes"/>
      <point x="140" y="297"/>
      <point x="51" y="238"/>
      <point x="51" y="131" type="curve" smooth="yes"/>
      <point x="51" y="53"/>
      <point x="108" y="-10"/>
      <point x="215" y="-10" type="curve" smooth="yes"/>
      <point x="339" y="-10"/>
      <point x="403" y="65"/>
      <point x="413" y="213" type="curve"/>
    </contour>
  </outline>
</glyph>
<glyph name="b" format="2">
  <advance width="634"/>
  <unicode hex="0062"/>
  <outline>
    <contour>
      <point x="147" y="250" type="curve"/>
      <point x="106" y="250" type="line"/>
      <point x="106" y="100"/>
      <point x="209" y="-8"/>
      <point x="349" y="-8" type="curve" smooth="yes"/>
      <point x="489" y="-8"/>
      <point x="591" y="100"/>
      <point x="591" y="250" type="curve" smooth="yes"/>
      <point x="591" y="399"/>
      <point x="489" y="507"/>
      <point x="349" y="507" type="curve" smooth="yes"/>
      <point x="209" y="507"/>
      <point x="106" y="399"/>
      <point x="106" y="250" type="curve"/>
      <point x="147" y="250" type="line"/>
      <point x="147" y="365"/>
      <point x="225" y="447"/>
      <point x="332" y="447" type="curve" smooth="yes"/>
      <point x="439" y="447"/>
      <point x="516" y="365"/>
      <point x="516" y="250" type="curve" smooth="yes"/>
      <point x="516" y="135"/>
      <point x="439" y="52"/>
      <point x="332" y="52" type="curve" smooth="yes"/>
      <point x="225" y="52"/>
      <point x="147" y="135"/>
    </contour>
    <contour>
      <point x="75" y="0" type="line"/>
      <point x="147" y="0" type="line"/>
      <point x="147" y="800" type="line"/>
      <point x="75" y="800" type="line"/>
    </contour>
  </outline>
</glyph>
<glyph name="c" format="2">
  <advance width="569"/>
  <unicode hex="0063"/>
  <anchor x="280" y="0" name="bottom"/>
  <anchor x="280" y="500" name="top"/>
  <outline>
    <contour>
      <point x="118" y="250" type="curve" smooth="yes"/>
      <point x="118" y="357"/>
      <point x="187" y="445"/>
      <point x="305" y="445" type="curve" smooth="yes"/>
      <point x="388" y="445"/>
      <point x="452" y="403"/>
      <point x="482" y="317" type="curve"/>
      <point x="522" y="406" type="line"/>
      <point x="481" y="468"/>
      <point x="400" y="508"/>
      <point x="302" y="508" type="curve" smooth="yes"/>
      <point x="141" y="508"/>
      <point x="43" y="400"/>
      <point x="43" y="250" type="curve" smooth="yes"/>
      <point x="43" y="100"/>
      <point x="141" y="-8"/>
      <point x="302" y="-8" type="curve" smooth="yes"/>
      <point x="400" y="-8"/>
      <point x="481" y="32"/>
      <point x="522" y="94" type="curve"/>
      <point x="482" y="183" type="line"/>
      <point x="452" y="97"/>
      <point x="388" y="55"/>
      <point x="305" y="55" type="curve" smooth="yes"/>
      <point x="187" y="55"/>
      <point x="118" y="143"/>
    </contour>
  </outline>
</glyph>
<glyph name="d" format="2">
  <advance width="634"/>
  <unicode hex="0064"/>
  <anchor x="300" y="0" name="bottom"/>
  <anchor x="300" y="250" name="center"/>
  <anchor x="300" y="800" name="top"/>
  <anchor x="599" y="800" name="topright"/>
  <outline>
    <contour>
      <point x="487" y="250" type="line"/>
      <point x="487" y="135"/>
      <point x="409" y="52"/>
      <point x="302" y="52" type="curve" smooth="yes"/>
      <point x="195" y="52"/>
      <point x="118" y="135"/>
      <point x="118" y="250" type="curve" smooth="yes"/>
      <point x="118" y="365"/>
      <point x="195" y="447"/>
      <point x="302" y="447" type="curve" smooth="yes"/>
      <point x="409" y="447"/>
      <point x="487" y="365"/>
      <point x="487" y="250" type="curve"/>
      <point x="528" y="250" type="line"/>
      <point x="528" y="399"/>
      <point x="425" y="507"/>
      <point x="285" y="507" type="curve" smooth="yes"/>
      <point x="145" y="507"/>
      <point x="43" y="399"/>
      <point x="43" y="250" type="curve" smooth="yes"/>
      <point x="43" y="100"/>
      <point x="145" y="-8"/>
      <point x="285" y="-8" type="curve" smooth="yes"/>
      <point x="425" y="-8"/>
      <point x="528" y="100"/>
      <point x="528" y="250" type="curve"/>
    </contour>
    <contour>
      <point x="559" y="0" type="line"/>
      <point x="559" y="800" type="line"/>
      <point x="487" y="800" type="line"/>
      <point x="487" y="0" type="line"/>
    </contour>
  </outline>
</glyph>
<glyph name="e" format="2">
  <advance width="594"/>
  <unicode hex="0065"/>
  <anchor x="302" y="0" name="bottom"/>
  <anchor x="409" y="0" name="ogonek"/>
  <anchor x="302" y="500" name="top"/>
  <outline>
    <contour>
      <point x="89" y="300" type="line"/>
      <point x="89" y="241" type="line"/>
      <point x="551" y="241" type="line"/>
      <point x="551" y="270" type="line" smooth="yes"/>
      <point x="551" y="397"/>
      <point x="453" y="507"/>
      <point x="301" y="507" type="curve" smooth="yes"/>
      <point x="145" y="507"/>
      <point x="43" y="397"/>
      <point x="43" y="250" type="curve" smooth="yes"/>
      <point x="43" y="100"/>
      <point x="145" y="-8"/>
      <point x="302" y="-8" type="curve" smooth="yes"/>
      <point x="405" y="-8"/>
      <point x="485" y="30"/>
      <point x="529" y="94" type="curve"/>
      <point x="489" y="183" type="line"/>
      <point x="457" y="97"/>
      <point x="398" y="55"/>
      <point x="302" y="55" type="curve" smooth="yes"/>
      <point x="195" y="55"/>
      <point x="118" y="137"/>
      <point x="118" y="240" type="curve" smooth="yes"/>
      <point x="118" y="267" type="line" smooth="yes"/>
      <point x="118" y="371"/>
      <point x="185" y="446"/>
      <point x="301" y="446" type="curve" smooth="yes"/>
      <point x="393" y="446"/>
      <point x="475" y="388"/>
      <point x="475" y="279" type="curve" smooth="yes"/>
      <point x="475" y="268" type="line"/>
      <point x="516" y="300" type="line"/>
    </contour>
  </outline>
</glyph>
<glyph name="f" format="2">
  <advance width="453"/>
  <unicode hex="0066"/>
  <outline>
    <contour>
      <point x="135" y="621" type="curve" smooth="yes"/>
      <point x="135" y="0" type="line"/>
      <point x="207" y="0" type="line"/>
      <point x="207" y="611" type="line" smooth="yes"/>
      <point x="207" y="704"/>
      <point x="250" y="748"/>
      <point x="318" y="748" type="curve" smooth="yes"/>
      <point x="369" y="748"/>
      <point x="426" y="703"/>
      <point x="416" y="610" type="curve"/>
      <point x="483" y="676" type="line"/>
      <point x="471" y="751"/>
      <point x="405" y="807"/>
      <point x="317" y="807" type="curve" smooth="yes"/>
      <point x="208" y="807"/>
      <point x="135" y="743"/>
    </contour>
    <contour>
      <point x="30" y="441" type="line"/>
      <point x="433" y="441" type="line"/>
      <point x="433" y="500" type="line"/>
      <point x="30" y="500" type="line"/>
    </contour>
  </outline>
</glyph>
<glyph name="h" format="2">
  <advance width="559"/>
  <unicode hex="0068"/>
  <anchor x="280" y="0" name="bottom"/>
  <anchor x="280" y="400" name="center"/>
  <anchor x="280" y="800" name="top"/>
  <anchor x="267" y="800" name="topright"/>
  <outline>
    <contour>
      <point x="294" y="456" type="curve" smooth="yes"/>
      <point x="371" y="456"/>
      <point x="426" y="405"/>
      <point x="426" y="306" type="curve" smooth="yes"/>
      <point x="426" y="0" type="line"/>
      <point x="499" y="0" type="line"/>
      <point x="499" y="319" type="line" smooth="yes"/>
      <point x="499" y="439"/>
      <point x="433" y="512"/>
      <point x="317" y="512" type="curve" smooth="yes"/>
      <point x="188" y="512"/>
      <point x="126" y="421"/>
      <point x="121" y="292" type="curve"/>
      <point x="147" y="292" type="line"/>
      <point x="154" y="398"/>
      <point x="210" y="456"/>
    </contour>
    <contour>
      <point x="75" y="0" type="line"/>
      <point x="147" y="0" type="line"/>
      <point x="147" y="800" type="line"/>
      <point x="75" y="800" type="line"/>
    </contour>
  </outline>
</glyph>
<glyph name="l" format="2">
  <advance width="222"/>
  <unicode hex="006C"/>
  <anchor x="111" y="0" name="bottom"/>
  <anchor x="111" y="400" name="center"/>
  <anchor x="111" y="800" name="top"/>
  <anchor x="187" y="800" name="topright"/>
  <outline>
    <contour>
      <point x="75" y="0" type="line"/>
      <point x="147" y="0" type="line"/>
      <point x="147" y="800" type="line"/>
      <point x="75" y="800" type="line"/>
    </contour>
  </outline>
</glyph>
<glyph name="m" format="2">
  <advance width="870"/>
  <unicode hex="006D"/>
  <outline>
    <contour>
      <point x="283" y="456" type="curve" smooth="yes"/>
      <point x="354" y="456"/>
      <point x="405" y="409"/>
      <point x="405" y="317" type="curve" smooth="yes"/>
      <point x="405" y="0" type="line"/>
      <point x="478" y="0" type="line"/>
      <point x="478" y="330" type="line" smooth="yes"/>
      <point x="478" y="443"/>
      <point x="416" y="512"/>
      <point x="307" y="512" type="curve" smooth="yes"/>
      <point x="184" y="512"/>
      <point x="125" y="425"/>
      <point x="120" y="303" type="curve"/>
      <point x="146" y="303" type="line"/>
      <point x="153" y="402"/>
      <point x="205" y="456"/>
    </contour>
    <contour>
      <point x="74" y="0" type="line"/>
      <point x="146" y="0" type="line"/>
      <point x="146" y="500" type="line"/>
      <point x="74" y="500" type="line"/>
    </contour>
    <contour>
      <point x="615" y="456" type="curve" smooth="yes"/>
      <point x="686" y="456"/>
      <point x="737" y="409"/>
      <point x="737" y="317" type="curve" smooth="yes"/>
      <point x="737" y="0" type="line"/>
      <point x="810" y="0" type="line"/>
      <point x="810" y="330" type="line" smooth="yes"/>
      <point x="810" y="443"/>
      <point x="748" y="512"/>
      <point x="632" y="512" type="curve" smooth="yes"/>
      <point x="507" y="512"/>
      <point x="439" y="432"/>
      <point x="432" y="303" type="curve"/>
      <point x="478" y="303" type="line"/>
      <point x="485" y="402"/>
      <point x="537" y="456"/>
    </contour>
  </outline>
</glyph>
<glyph name="o" format="2">
  <advance width="604"/>
  <unicode hex="006F"/>
  <anchor x="302" y="0" name="bottom"/>
  <anchor x="302" y="250" name="center"/>
  <anchor x="560" y="10" name="ogonek"/>
  <anchor x="302" y="500" name="top"/>
  <anchor x="604" y="500" name="topright"/>
  <outline>
    <contour>
      <point x="302" y="-8" type="curve" smooth="yes"/>
      <point x="459" y="-8"/>
      <point x="561" y="100"/>
      <point x="561" y="250" type="curve" smooth="yes"/>
      <point x="561" y="399"/>
      <point x="459" y="507"/>
      <point x="302" y="507" type="curve" smooth="yes"/>
      <point x="145" y="507"/>
      <point x="43" y="399"/>
      <point x="43" y="250" type="curve" smooth="yes"/>
      <point x="43" y="100"/>
      <point x="145" y="-8"/>
    </contour>
    <contour>
      <point x="302" y="55" type="curve" smooth="yes"/>
      <point x="195" y="55"/>
      <point x="118" y="137"/>
      <point x="118" y="250" type="curve" smooth="yes"/>
      <point x="118" y="363"/>
      <point x="195" y="444"/>
      <point x="302" y="444" type="curve" smooth="yes"/>
      <point x="409" y="444"/>
      <point x="486" y="363"/>
      <point x="486" y="250" type="curve" smooth="yes"/>
      <point x="486" y="137"/>
      <point x="409" y="55"/>
    </contour>
  </outline>
</glyph>
<glyph name="p" format="2">
  <advance width="633"/>
  <unicode hex="0070"/>
  <outline>
    <contour>
      <point x="146" y="250" type="curve"/>
      <point x="105" y="250" type="line"/>
      <point x="105" y="100"/>
      <point x="208" y="-8"/>
      <point x="348" y="-8" type="curve" smooth="yes"/>
      <point x="488" y="-8"/>
      <point x="590" y="100"/>
      <point x="590" y="250" type="curve" smooth="yes"/>
      <point x="590" y="399"/>
      <point x="488" y="507"/>
      <point x="348" y="507" type="curve" smooth="yes"/>
      <point x="208" y="507"/>
      <point x="105" y="399"/>
      <point x="105" y="250" type="curve"/>
      <point x="146" y="250" type="line"/>
      <point x="146" y="365"/>
      <point x="224" y="447"/>
      <point x="331" y="447" type="curve" smooth="yes"/>
      <point x="438" y="447"/>
      <point x="515" y="365"/>
      <point x="515" y="250" type="curve" smooth="yes"/>
      <point x="515" y="135"/>
      <point x="438" y="52"/>
      <point x="331" y="52" type="curve" smooth="yes"/>
      <point x="224" y="52"/>
      <point x="146" y="135"/>
    </contour>
    <contour>
      <point x="74" y="-200" type="line"/>
      <point x="146" y="-200" type="line"/>
      <point x="146" y="500" type="line"/>
      <point x="74" y="500" type="line"/>
    </contour>
  </outline>
</glyph>
<glyph name="r" format="2">
  <advance width="455"/>
  <unicode hex="0072"/>
  <anchor x="228" y="0" name="bottom"/>
  <anchor x="228" y="500" name="top"/>
  <outline>
    <contour>
      <point x="74" y="0" type="line"/>
      <point x="146" y="0" type="line"/>
      <point x="146" y="500" type="line"/>
      <point x="74" y="500" type="line"/>
    </contour>
    <contour>
      <point x="116" y="215" type="curve"/>
      <point x="146" y="215" type="line"/>
      <point x="146" y="407"/>
      <point x="196" y="448"/>
      <point x="266" y="448" type="curve" smooth="yes"/>
      <point x="327" y="448"/>
      <point x="387" y="406"/>
      <point x="375" y="314" type="curve"/>
      <point x="442" y="380" type="line"/>
      <point x="431" y="453"/>
      <point x="379" y="507"/>
      <point x="297" y="507" type="curve" smooth="yes"/>
      <point x="193" y="507"/>
      <point x="116" y="441"/>
    </contour>
  </outline>
</glyph>
<glyph name="s" format="2">
  <advance width="500"/>
  <unicode hex="0073"/>
  <anchor x="250" y="0" name="bottom"/>
  <anchor x="250" y="500" name="top"/>
  <outline>
    <contour>
      <point x="244" y="453" type="curve" smooth="yes"/>
      <point x="312" y="453"/>
      <point x="380" y="408"/>
      <point x="364" y="313" type="curve"/>
      <point x="436" y="379" type="line"/>
      <point x="419" y="462"/>
      <point x="349" y="512"/>
      <point x="244" y="512" type="curve" smooth="yes"/>
      <point x="152" y="512"/>
      <point x="68" y="466"/>
      <point x="68" y="369" type="curve" smooth="yes"/>
      <point x="68" y="164"/>
      <point x="382" y="277"/>
      <point x="382" y="138" type="curve" smooth="yes"/>
      <point x="382" y="79"/>
      <point x="322" y="49"/>
      <point x="255" y="49" type="curve" smooth="yes"/>
      <point x="175" y="49"/>
      <point x="98" y="97"/>
      <point x="113" y="199" type="curve"/>
      <point x="41" y="133" type="line"/>
      <point x="59" y="46"/>
      <point x="136" y="-10"/>
      <point x="254" y="-10" type="curve" smooth="yes"/>
      <point x="355" y="-10"/>
      <point x="455" y="35"/>
      <point x="455" y="144" type="curve" smooth="yes"/>
      <point x="455" y="349"/>
      <point x="141" y="237"/>
      <point x="141" y="375" type="curve" smooth="yes"/>
      <point x="141" y="424"/>
      <point x="188" y="453"/>
    </contour>
  </outline>
</glyph>
<glyph name="t" format="2">
  <advance width="422"/>
  <unicode hex="0074"/>
  <anchor x="62" y="0" name="#entry"/>
  <anchor x="394" y="0" name="#exit"/>
  <anchor x="272" y="0" name="bottom"/>
  <anchor x="217" y="250" name="center"/>
  <anchor x="231" y="500" name="top"/>
  <anchor x="282" y="800" name="topright"/>
  <outline>
    <contour>
      <point x="392" y="27" type="curve"/>
      <point x="392" y="128" type="line"/>
      <point x="353" y="63"/>
      <point x="313" y="52"/>
      <point x="284" y="52" type="curve" smooth="yes"/>
      <point x="239" y="52"/>
      <point x="216" y="75"/>
      <point x="216" y="127" type="curve" smooth="yes"/>
      <point x="216" y="678" type="line"/>
      <point x="144" y="607" type="line"/>
      <point x="144" y="117" type="line" smooth="yes"/>
      <point x="144" y="37"/>
      <point x="197" y="-12"/>
      <point x="274" y="-12" type="curve" smooth="yes"/>
      <point x="309" y="-12"/>
      <point x="353" y="-2"/>
    </contour>
    <contour>
      <point x="39" y="500" type="line"/>
      <point x="39" y="441" type="line"/>
      <point x="392" y="441" type="line"/>
      <point x="392" y="500" type="line"/>
    </contour>
  </outline>
</glyph>
<glyph name="u" format="2">
  <advance width="558"/>
  <unicode hex="0075"/>
  <anchor x="281" y="0" name="bottom"/>
  <anchor x="512" y="0" name="ogonek"/>
  <anchor x="281" y="500" name="top"/>
  <anchor x="538" y="500" name="topright"/>
  <outline>
    <contour>
      <point x="265" y="44" type="curve" smooth="yes"/>
      <point x="188" y="44"/>
      <point x="133" y="95"/>
      <point x="133" y="194" type="curve" smooth="yes"/>
      <point x="133" y="500" type="line"/>
      <point x="60" y="500" type="line"/>
      <point x="60" y="181" type="line" smooth="yes"/>
      <point x="60" y="61"/>
      <point x="126" y="-12"/>
      <point x="242" y="-12" type="curve" smooth="yes"/>
      <point x="371" y="-12"/>
      <point x="433" y="79"/>
      <point x="438" y="208" type="curve"/>
      <point x="412" y="208" type="line"/>
      <point x="405" y="102"/>
      <point x="349" y="44"/>
    </contour>
    <contour>
      <point x="484" y="500" type="line"/>
      <point x="412" y="500" type="line"/>
      <point x="412" y="0" type="line"/>
      <point x="484" y="0" type="line"/>
    </contour>
  </outline>
</glyph>
<glyph name="v" format="2">
  <advance width="537"/>
  <unicode hex="0076"/>
  <outline>
    <contour>
      <point x="87" y="500" type="line"/>
      <point x="10" y="500" type="line"/>
      <point x="216" y="0" type="line"/>
      <point x="292" y="0" type="line"/>
    </contour>
    <contour>
      <point x="527" y="500" type="line"/>
      <point x="451" y="500" type="line"/>
      <point x="246" y="0" type="line"/>
      <point x="320" y="0" type="line"/>
    </contour>
  </outline>
</glyph>
<glyph name="w" format="2">
  <advance width="697"/>
  <unicode hex="0077"/>
  <anchor x="349" y="0" name="bottom"/>
  <anchor x="349" y="500" name="top"/>
  <outline>
    <contour>
      <point x="93" y="500" type="line"/>
      <point x="20" y="500" type="line"/>
      <point x="143" y="0" type="line"/>
      <point x="215" y="0" type="line"/>
    </contour>
    <contour>
      <point x="372" y="500" type="line"/>
      <point x="306" y="500" type="line"/>
      <point x="179" y="0" type="line"/>
      <point x="243" y="0" type="line"/>
    </contour>
    <contour>
      <point x="392" y="500" type="line"/>
      <point x="325" y="500" type="line"/>
      <point x="453" y="0" type="line"/>
      <point x="519" y="0" type="line"/>
    </contour>
    <contour>
      <point x="677" y="500" type="line"/>
      <point x="605" y="500" type="line"/>
      <point x="483" y="0" type="line"/>
      <point x="553" y="0" type="line"/>
    </contour>
  </outline>
</glyph>
<glyph name="x" format="2">
  <advance width="557"/>
  <unicode hex="0078"/>
  <outline>
    <contour>
      <point x="118" y="500" type="line"/>
      <point x="30" y="500" type="line"/>
      <point x="231" y="254" type="line"/>
      <point x="20" y="0" type="line"/>
      <point x="108" y="0" type="line"/>
      <point x="303" y="234" type="line"/>
      <point x="255" y="234" type="line"/>
      <point x="450" y="0" type="line"/>
      <point x="537" y="0" type="line"/>
      <point x="325" y="254" type="line"/>
      <point x="527" y="500" type="line"/>
      <point x="440" y="500" type="line"/>
      <point x="255" y="274" type="line"/>
      <point x="303" y="274" type="line"/>
    </contour>
  </outline>
</glyph>
<glyph name="y" format="2">
  <advance width="537"/>
  <unicode hex="0079"/>
  <anchor x="267" y="0" name="bottom"/>
  <anchor x="267" y="500" name="top"/>
  <outline>
    <contour>
      <point x="87" y="500" type="line"/>
      <point x="10" y="500" type="line"/>
      <point x="241" y="-60" type="line"/>
      <point x="292" y="0" type="line"/>
    </contour>
    <contour>
      <point x="527" y="500" type="line"/>
      <point x="451" y="500" type="line"/>
      <point x="228" y="-43" type="line" smooth="yes"/>
      <point x="195" y="-124"/>
      <point x="174" y="-148"/>
      <point x="133" y="-148" type="curve" smooth="yes"/>
      <point x="109" y="-148"/>
      <point x="72" y="-138"/>
      <point x="40" y="-82" type="curve"/>
      <point x="40" y="-183" type="line"/>
      <point x="66" y="-205"/>
      <point x="103" y="-212"/>
      <point x="129" y="-212" type="curve" smooth="yes"/>
      <point x="211" y="-212"/>
      <point x="254" y="-159"/>
      <point x="284" y="-86" type="curve" smooth="yes"/>
    </contour>
  </outline>
</glyph>
<glyph name="z" format="2">
  <advance width="469"/>
  <unicode hex="007A"/>
  <anchor x="235" y="0" name="bottom"/>
  <anchor x="235" y="250" name="center"/>
  <anchor x="235" y="500" name="top"/>
  <outline>
    <contour>
      <point x="426" y="448" type="line"/>
      <point x="426" y="500" type="line"/>
      <point x="43" y="500" type="line"/>
      <point x="43" y="441" type="line"/>
      <point x="387" y="441" type="line"/>
      <point x="371" y="491" type="line"/>
      <point x="43" y="52" type="line"/>
      <point x="43" y="0" type="line"/>
      <point x="426" y="0" type="line"/>
      <point x="426" y="59" type="line"/>
      <point x="82" y="59" type="line"/>
      <point x="98" y="9" type="line"/>
    </contour>
  </outline>
</glyph>
<glyph name="braceleft" format="2">
  <advance width="520"/>
  <unicode hex="007B"/>
  <outline>
    <contour>
      <point x="435" y="-182" type="move"/>
      <point x="248" y="-204"/>
      <point x="116" y="-88"/>
      <point x="116" y="108" type="curve" smooth="yes"/>
      <point x="116" y="265"/>
      <point x="200" y="392"/>
      <point x="313" y="392" type="curve" smooth="yes"/>
      <point x="374" y="392"/>
      <point x="415" y="355"/>
      <point x="415" y="303" type="curve" smooth="yes"/>
      <point x="415" y="251"/>
      <point x="374" y="213"/>
      <point x="312" y="213" type="curve" smooth="yes"/>
      <point x="200" y="213"/>
      <point x="116" y="340"/>
      <point x="116" y="497" type="curve" smooth="yes"/>
      <point x="116" y="693"/>
      <point x="247" y="809"/>
      <point x="435" y="786" type="curve"/>
    </contour>
    <contour>
      <point x="435" y="-182" type="move"/>
    </contour>
  </outline>
</glyph>
<glyph name="bar" format="2">
  <advance width="207"/>
  <unicode hex="007C"/>
  <outline>
    <contour>
      <point x="85" y="-200" type="line"/>
      <point x="122" y="-200" type="line"/>
      <point x="122" y="800" type="line"/>
      <point x="85" y="800" type="line"/>
    </contour>
  </outline>
</glyph>
<glyph name="asciitilde" format="2">
  <advance width="487"/>
  <unicode hex="007E"/>
  <anchor x="240" y="170" name="_top"/>
  <anchor x="240" y="358" name="top"/>
  <outline>
    <contour>
      <point x="410" y="331" type="line"/>
      <point x="430" y="247"/>
      <point x="394" y="225"/>
      <point x="357" y="225" type="curve" smooth="yes"/>
      <point x="271" y="225"/>
      <point x="222" y="341"/>
      <point x="123" y="341" type="curve" smooth="yes"/>
      <point x="69" y="341"/>
      <point x="12" y="307"/>
      <point x="33" y="202" type="curve"/>
      <point x="69" y="202" type="line"/>
      <point x="49" y="287"/>
      <point x="82" y="309"/>
      <point x="118" y="309" type="curve" smooth="yes"/>
      <point x="201" y="309"/>
      <point x="250" y="193"/>
      <point x="352" y="193" type="curve" smooth="yes"/>
      <point x="409" y="193"/>
      <point x="467" y="229"/>
      <point x="446" y="331" type="curve"/>
    </contour>
  </outline>
</glyph>
<glyph name="cent" format="2">
  <advance width="569"/>
  <unicode hex="00A2"/>
  <anchor x="280" y="0" name="bottom"/>
  <anchor x="280" y="500" name="top"/>
  <outline>
    <contour>
      <point x="118" y="350" type="curve" smooth="yes"/>
      <point x="118" y="457"/>
      <point x="187" y="545"/>
      <point x="305" y="545" type="curve" smooth="yes"/>
      <point x="388" y="545"/>
      <point x="452" y="503"/>
      <point x="482" y="417" type="curve"/>
      <point x="522" y="506" type="line"/>
      <point x="481" y="568"/>
      <point x="400" y="608"/>
      <point x="302" y="608" type="curve" smooth="yes"/>
      <point x="141" y="608"/>
      <point x="43" y="500"/>
      <point x="43" y="350" type="curve" smooth="yes"/>
      <point x="43" y="200"/>
      <point x="141" y="92"/>
      <point x="302" y="92" type="curve" smooth="yes"/>
      <point x="400" y="92"/>
      <point x="481" y="132"/>
      <point x="522" y="194" type="curve"/>
      <point x="482" y="283" type="line"/>
      <point x="452" y="197"/>
      <point x="388" y="155"/>
      <point x="305" y="155" type="curve" smooth="yes"/>
      <point x="187" y="155"/>
      <point x="118" y="243"/>
    </contour>
    <contour>
      <point x="285" y="-30" type="line"/>
      <point x="322" y="-30" type="line"/>
      <point x="322" y="730" type="line"/>
      <point x="285" y="730" type="line"/>
    </contour>
  </outline>
</glyph>
<glyph name="sterling" format="2">
  <advance width="630"/>
  <unicode hex="00A3"/>
  <outline>
    <contour>
      <point x="74" y="321" type="line"/>
      <point x="74" y="286" type="line"/>
      <point x="527" y="286" type="line"/>
      <point x="527" y="321" type="line"/>
    </contour>
    <contour>
      <point x="152" y="-10" type="curve" smooth="yes"/>
      <point x="260" y="-10"/>
      <point x="315" y="88"/>
      <point x="315" y="178" type="curve" smooth="yes"/>
      <point x="315" y="331"/>
      <point x="177" y="394"/>
      <point x="177" y="522" type="curve" smooth="yes"/>
      <point x="177" y="598"/>
      <point x="233" y="651"/>
      <point x="318" y="651" type="curve" smooth="yes"/>
      <point x="425" y="651"/>
      <point x="493" y="567"/>
      <point x="488" y="440" type="curve"/>
      <point x="558" y="523" type="line"/>
      <point x="536" y="636"/>
      <point x="440" y="712"/>
      <point x="320" y="712" type="curve" smooth="yes"/>
      <point x="187" y="712"/>
      <point x="99" y="633"/>
      <point x="99" y="518" type="curve" smooth="yes"/>
      <point x="99" y="368"/>
      <point x="239" y="300"/>
      <point x="239" y="182" type="curve" smooth="yes"/>
      <point x="239" y="107"/>
      <point x="204" y="47"/>
      <point x="148" y="47" type="curve" smooth="yes"/>
      <point x="63" y="47"/>
      <point x="63" y="168"/>
      <point x="147" y="168" type="curve" smooth="yes"/>
      <point x="276" y="168"/>
      <point x="257" y="-14"/>
      <point x="435" y="-14" type="curve" smooth="yes"/>
      <point x="467" y="-14"/>
      <point x="542" y="-5"/>
      <point x="588" y="79" type="curve"/>
      <point x="553" y="173" type="line"/>
      <point x="538" y="97"/>
      <point x="483" y="49"/>
      <point x="415" y="49" type="curve" smooth="yes"/>
      <point x="289" y="49"/>
      <point x="281" y="204"/>
      <point x="148" y="204" type="curve" smooth="yes"/>
      <point x="-5" y="204"/>
      <point x="-8" y="-10"/>
    </contour>
  </outline>
</glyph>
<glyph name="currency" format="2">
  <advance width="644"/>
  <unicode hex="00A4"/>
  <anchor x="312" y="250" name="_center"/>
  <anchor x="322" y="0" name="bottom"/>
  <anchor x="322" y="250" name="center"/>
  <anchor x="580" y="10" name="ogonek"/>
  <anchor x="322" y="500" name="top"/>
  <anchor x="624" y="500" name="topright"/>
  <outline>
    <contour>
      <point x="322" y="82" type="curve" smooth="yes"/>
      <point x="479" y="82"/>
      <point x="581" y="190"/>
      <point x="581" y="340" type="curve" smooth="yes"/>
      <point x="581" y="489"/>
      <point x="479" y="597"/>
      <point x="322" y="597" type="curve" smooth="yes"/>
      <point x="165" y="597"/>
      <point x="63" y="489"/>
      <point x="63" y="340" type="curve" smooth="yes"/>
      <point x="63" y="190"/>
      <point x="165" y="82"/>
    </contour>
    <contour>
      <point x="322" y="145" type="curve" smooth="yes"/>
      <point x="215" y="145"/>
      <point x="138" y="227"/>
      <point x="138" y="340" type="curve" smooth="yes"/>
      <point x="138" y="453"/>
      <point x="215" y="534"/>
      <point x="322" y="534" type="curve" smooth="yes"/>
      <point x="429" y="534"/>
      <point x="506" y="453"/>
      <point x="506" y="340" type="curve" smooth="yes"/>
      <point x="506" y="227"/>
      <point x="429" y="145"/>
    </contour>
    <contour>
      <point x="58" y="0" type="line"/>
      <point x="108" y="0" type="line"/>
      <point x="235" y="154" type="line"/>
      <point x="185" y="154" type="line"/>
    </contour>
    <contour>
      <point x="586" y="0" type="line"/>
      <point x="459" y="154" type="line"/>
      <point x="409" y="154" type="line"/>
      <point x="536" y="0" type="line"/>
    </contour>
    <contour>
      <point x="58" y="700" type="line"/>
      <point x="185" y="546" type="line"/>
      <point x="235" y="546" type="line"/>
      <point x="108" y="700" type="line"/>
    </contour>
    <contour>
      <point x="586" y="700" type="line"/>
      <point x="536" y="700" type="line"/>
      <point x="409" y="546" type="line"/>
      <point x="459" y="546" type="line"/>
    </contour>
  </outline>
</glyph>
<glyph name="yen" format="2">
  <advance width="674"/>
  <unicode hex="00A5"/>
  <anchor x="337" y="0" name="bottom"/>
  <anchor x="337" y="700" name="top"/>
  <anchor x="-17" y="700" name="topleft"/>
  <outline>
    <contour>
      <point x="132" y="700" type="line"/>
      <point x="45" y="700" type="line"/>
      <point x="300" y="334" type="line"/>
      <point x="300" y="0" type="line"/>
      <point x="375" y="0" type="line"/>
      <point x="375" y="335" type="line"/>
      <point x="629" y="700" type="line"/>
      <point x="544" y="700" type="line"/>
      <point x="303" y="347" type="line"/>
      <point x="373" y="347" type="line"/>
    </contour>
    <contour>
      <point x="81" y="340" type="line"/>
      <point x="81" y="305" type="line"/>
      <point x="594" y="305" type="line"/>
      <point x="594" y="340" type="line"/>
    </contour>
    <contour>
      <point x="81" y="230" type="line"/>
      <point x="81" y="195" type="line"/>
      <point x="594" y="195" type="line"/>
      <point x="594" y="230" type="line"/>
    </contour>
  </outline>
</glyph>
<glyph name="brokenbar" format="2">
  <advance width="207"/>
  <unicode hex="00A6"/>
  <outline>
    <contour>
      <point x="85" y="480" type="line"/>
      <point x="122" y="480" type="line"/>
      <point x="122" y="800" type="line"/>
      <point x="85" y="800" type="line"/>
    </contour>
    <contour>
      <point x="85" y="-200" type="line"/>
      <point x="122" y="-200" type="line"/>
      <point x="122" y="120" type="line"/>
      <point x="85" y="120" type="line"/>
    </contour>
  </outline>
</glyph>
<glyph name="section" format="2">
  <advance width="513"/>
  <unicode hex="00A7"/>
  <anchor x="260" y="0" name="bottom"/>
  <anchor x="260" y="500" name="top"/>
  <outline>
    <contour>
      <point x="294" y="249" type="curve"/>
      <point x="310" y="224" type="line"/>
      <point x="389" y="229"/>
      <point x="465" y="271"/>
      <point x="465" y="351" type="curve" smooth="yes"/>
      <point x="465" y="538"/>
      <point x="151" y="438"/>
      <point x="151" y="571" type="curve" smooth="yes"/>
      <point x="151" y="623"/>
      <point x="199" y="651"/>
      <point x="253" y="651" type="curve" smooth="yes"/>
      <point x="322" y="651"/>
      <point x="390" y="606"/>
      <point x="374" y="506" type="curve"/>
      <point x="446" y="572" type="line"/>
      <point x="429" y="660"/>
      <point x="358" y="710"/>
      <point x="257" y="710" type="curve" smooth="yes"/>
      <point x="162" y="710"/>
      <point x="78" y="666"/>
      <point x="78" y="564" type="curve" smooth="yes"/>
      <point x="78" y="366"/>
      <point x="392" y="473"/>
      <point x="392" y="337" type="curve" smooth="yes"/>
      <point x="392" y="286"/>
      <point x="348" y="256"/>
    </contour>
    <contour>
      <point x="219" y="449" type="curve"/>
      <point x="203" y="474" type="line"/>
      <point x="124" y="469"/>
      <point x="48" y="427"/>
      <point x="48" y="347" type="curve" smooth="yes"/>
      <point x="48" y="160"/>
      <point x="362" y="260"/>
      <point x="362" y="127" type="curve" smooth="yes"/>
      <point x="362" y="75"/>
      <point x="314" y="47"/>
      <point x="260" y="47" type="curve" smooth="yes"/>
      <point x="191" y="47"/>
      <point x="123" y="92"/>
      <point x="139" y="192" type="curve"/>
      <point x="67" y="126" type="line"/>
      <point x="84" y="38"/>
      <point x="155" y="-12"/>
      <point x="256" y="-12" type="curve" smooth="yes"/>
      <point x="351" y="-12"/>
      <point x="435" y="32"/>
      <point x="435" y="134" type="curve" smooth="yes"/>
      <point x="435" y="332"/>
      <point x="121" y="225"/>
      <point x="121" y="361" type="curve" smooth="yes"/>
      <point x="121" y="412"/>
      <point x="165" y="442"/>
    </contour>
  </outline>
</glyph>
<glyph name="copyright" format="2">
  <advance width="868"/>
  <unicode hex="00A9"/>
  <anchor x="434" y="0" name="bottom"/>
  <anchor x="434" y="350" name="center"/>
  <anchor x="764" y="10" name="ogonek"/>
  <anchor x="434" y="700" name="top"/>
  <anchor x="42" y="700" name="topleft"/>
  <anchor x="826" y="700" name="topright"/>
  <outline>
    <contour>
      <point x="434" y="-8" type="curve" smooth="yes"/>
      <point x="637" y="-8"/>
      <point x="796" y="151"/>
      <point x="796" y="353" type="curve" smooth="yes"/>
      <point x="796" y="555"/>
      <point x="637" y="713"/>
      <point x="434" y="713" type="curve" smooth="yes"/>
      <point x="231" y="713"/>
      <point x="72" y="555"/>
      <point x="72" y="353" type="curve" smooth="yes"/>
      <point x="72" y="151"/>
      <point x="231" y="-8"/>
    </contour>
    <contour>
      <point x="273" y="356" type="curve" smooth="yes"/>
      <point x="273" y="457"/>
      <point x="343" y="530"/>
      <point x="439" y="530" type="curve" smooth="yes"/>
      <point x="508" y="530"/>
      <point x="564" y="496"/>
      <point x="588" y="435" type="curve"/>
      <point x="613" y="471" type="line"/>
      <point x="579" y="530"/>
      <point x="512" y="565"/>
      <point x="439" y="565" type="curve" smooth="yes"/>
      <point x="320" y="565"/>
      <point x="233" y="477"/>
      <point x="233" y="356" type="curve" smooth="yes"/>
      <point x="233" y="235"/>
      <point x="320" y="147"/>
      <point x="439" y="147" type="curve" smooth="yes"/>
      <point x="512" y="147"/>
      <point x="579" y="182"/>
      <point x="613" y="241" type="curve"/>
      <point x="588" y="278" type="line"/>
      <point x="564" y="216"/>
      <point x="508" y="182"/>
      <point x="439" y="182" type="curve" smooth="yes"/>
      <point x="343" y="182"/>
      <point x="273" y="255"/>
    </contour>
  </outline>
</glyph>
<glyph name="logicalnot" format="2">
  <advance width="573"/>
  <unicode hex="00AC"/>
  <outline>
    <contour>
      <point x="60" y="288" type="line"/>
      <point x="60" y="253" type="line"/>
      <point x="513" y="253" type="line"/>
      <point x="513" y="288" type="line"/>
    </contour>
    <contour>
      <point x="478" y="97" type="line"/>
      <point x="513" y="97" type="line"/>
      <point x="513" y="288" type="line"/>
      <point x="478" y="288" type="line"/>
    </contour>
  </outline>
</glyph>
<glyph name="registered" format="2">
  <advance width="519"/>
  <unicode hex="00AE"/>
  <anchor x="209" y="0" name="bottom"/>
  <anchor x="209" y="700" name="top"/>
  <outline>
    <contour>
      <point x="259" y="274" type="curve" smooth="yes"/>
      <point x="378" y="274"/>
      <point x="471" y="367"/>
      <point x="471" y="486" type="curve" smooth="yes"/>
      <point x="471" y="605"/>
      <point x="378" y="697"/>
      <point x="259" y="697" type="curve" smooth="yes"/>
      <point x="140" y="697"/>
      <point x="47" y="605"/>
      <point x="47" y="486" type="curve" smooth="yes"/>
      <point x="47" y="367"/>
      <point x="140" y="274"/>
    </contour>
    <contour>
      <point x="185" y="483" type="line"/>
      <point x="281" y="483" type="line"/>
      <point x="284" y="491" type="line"/>
      <point x="327" y="492"/>
      <point x="349" y="513"/>
      <point x="349" y="544" type="curve" smooth="yes"/>
      <point x="349" y="579"/>
      <point x="325" y="600"/>
      <point x="282" y="600" type="curve" smooth="yes"/>
      <point x="185" y="600" type="line"/>
      <point x="185" y="568" type="line"/>
      <point x="282" y="568" type="line" smooth="yes"/>
      <point x="303" y="568"/>
      <point x="314" y="559"/>
      <point x="314" y="541" type="curve" smooth="yes"/>
      <point x="314" y="524"/>
      <point x="303" y="514"/>
      <point x="282" y="514" type="curve" smooth="yes"/>
      <point x="185" y="514" type="line"/>
    </contour>
    <contour>
      <point x="174" y="378" type="line"/>
      <point x="208" y="378" type="line"/>
      <point x="208" y="600" type="line"/>
      <point x="174" y="600" type="line"/>
    </contour>
    <contour>
      <point x="322" y="378" type="curve"/>
      <point x="365" y="378" type="line"/>
      <point x="340" y="399"/>
      <point x="338" y="416"/>
      <point x="338" y="436" type="curve" smooth="yes"/>
      <point x="338" y="443" type="line" smooth="yes"/>
      <point x="338" y="491"/>
      <point x="316" y="503"/>
      <point x="262" y="503" type="curve" smooth="yes"/>
      <point x="217" y="503" type="line"/>
      <point x="217" y="483" type="line"/>
      <point x="262" y="483" type="line" smooth="yes"/>
      <point x="289" y="483"/>
      <point x="304" y="478"/>
      <point x="304" y="444" type="curve" smooth="yes"/>
      <point x="304" y="436" type="line" smooth="yes"/>
      <point x="304" y="414"/>
      <point x="306" y="390"/>
    </contour>
  </outline>
</glyph>
<glyph name="degree" format="2">
  <advance width="405"/>
  <unicode hex="00B0"/>
  <outline>
    <contour>
      <point x="202" y="429" type="curve" smooth="yes"/>
      <point x="276" y="429"/>
      <point x="335" y="487"/>
      <point x="335" y="561" type="curve" smooth="yes"/>
      <point x="335" y="635"/>
      <point x="276" y="693"/>
      <point x="202" y="693" type="curve" smooth="yes"/>
      <point x="128" y="693"/>
      <point x="69" y="635"/>
      <point x="69" y="561" type="curve" smooth="yes"/>
      <point x="69" y="487"/>
      <point x="128" y="429"/>
    </contour>
  </outline>
</glyph>
<glyph name="plusminus" format="2">
  <advance width="573"/>
  <unicode hex="00B1"/>
  <outline>
    <contour>
      <point x="60" y="87" type="line"/>
      <point x="60" y="52" type="line"/>
      <point x="513" y="52" type="line"/>
      <point x="513" y="87" type="line"/>
    </contour>
    <contour>
      <point x="60" y="358" type="line"/>
      <point x="60" y="323" type="line"/>
      <point x="513" y="323" type="line"/>
      <point x="513" y="358" type="line"/>
    </contour>
    <contour>
      <point x="304" y="517" type="line"/>
      <point x="269" y="517" type="line"/>
      <point x="269" y="164" type="line"/>
      <point x="304" y="164" type="line"/>
    </contour>
  </outline>
</glyph>
<glyph name="micro" format="2">
  <advance width="573"/>
  <unicode hex="00B5"/>
  <anchor x="296" y="0" name="bottom"/>
  <anchor x="527" y="0" name="ogonek"/>
  <anchor x="296" y="500" name="top"/>
  <anchor x="553" y="500" name="topright"/>
  <outline>
    <contour>
      <point x="280" y="44" type="curve" smooth="yes"/>
      <point x="203" y="44"/>
      <point x="148" y="95"/>
      <point x="148" y="194" type="curve" smooth="yes"/>
      <point x="148" y="500" type="line"/>
      <point x="75" y="500" type="line"/>
      <point x="75" y="181" type="line"/>
      <point x="120" y="72" type="line"/>
      <point x="145" y="18"/>
      <point x="193" y="-12"/>
      <point x="264" y="-12" type="curve" smooth="yes"/>
      <point x="387" y="-12"/>
      <point x="448" y="79"/>
      <point x="453" y="208" type="curve"/>
      <point x="427" y="208" type="line"/>
      <point x="420" y="102"/>
      <point x="364" y="44"/>
    </contour>
    <contour>
      <point x="499" y="500" type="line"/>
      <point x="427" y="500" type="line"/>
      <point x="427" y="0" type="line"/>
      <point x="499" y="0" type="line"/>
    </contour>
    <contour>
      <point x="147" y="500" type="line"/>
      <point x="75" y="500" type="line"/>
      <point x="75" y="-200" type="line"/>
      <point x="147" y="-200" type="line"/>
    </contour>
  </outline>
</glyph>
<glyph name="paragraph" format="2">
  <advance width="543"/>
  <unicode hex="00B6"/>
  <outline>
    <contour>
      <point x="293" y="700" type="line"/>
      <point x="216" y="700" type="line" smooth="yes"/>
      <point x="107" y="700"/>
      <point x="40" y="641"/>
      <point x="40" y="545" type="curve" smooth="yes"/>
      <point x="40" y="447"/>
      <point x="107" y="388"/>
      <point x="216" y="388" type="curve" smooth="yes"/>
      <point x="293" y="388" type="line"/>
    </contour>
    <contour>
      <point x="261" y="0" type="line"/>
      <point x="298" y="0" type="line"/>
      <point x="298" y="700" type="line"/>
      <point x="261" y="700" type="line"/>
    </contour>
    <contour>
      <point x="421" y="0" type="line"/>
      <point x="458" y="0" type="line"/>
      <point x="458" y="700" type="line"/>
      <point x="421" y="700" type="line"/>
    </contour>
  </outline>
</glyph>
<glyph name="AE" format="2">
  <advance width="1052"/>
  <unicode hex="00C6"/>
  <anchor x="748" y="0" name="bottom"/>
  <anchor x="999" y="10" name="ogonek"/>
  <anchor x="748" y="700" name="top"/>
  <anchor x="454" y="700" name="topleft"/>
  <outline>
    <contour>
      <point x="6" y="0" type="line"/>
      <point x="93" y="0" type="line"/>
      <point x="560" y="700" type="line"/>
      <point x="475" y="700" type="line"/>
    </contour>
    <contour>
      <point x="234" y="304" type="line"/>
      <point x="532" y="304" type="line"/>
      <point x="557" y="369" type="line"/>
      <point x="279" y="369" type="line"/>
    </contour>
    <contour>
      <point x="519" y="0" type="line"/>
      <point x="594" y="0" type="line"/>
      <point x="594" y="700" type="line"/>
      <point x="519" y="700" type="line"/>
    </contour>
    <contour>
      <point x="554" y="0" type="line"/>
      <point x="1002" y="0" type="line"/>
      <point x="1002" y="65" type="line"/>
      <point x="554" y="65" type="line"/>
    </contour>
    <contour>
      <point x="554" y="635" type="line"/>
      <point x="1002" y="635" type="line"/>
      <point x="1002" y="700" type="line"/>
      <point x="554" y="700" type="line"/>
    </contour>
    <contour>
      <point x="554" y="344" type="line"/>
      <point x="992" y="344" type="line"/>
      <point x="992" y="409" type="line"/>
      <point x="554" y="409" type="line"/>
    </contour>
  </outline>
</glyph>
<glyph name="multiply" format="2">
  <advance width="573"/>
  <unicode hex="00D7"/>
  <outline>
    <contour>
      <point x="118" y="464" type="line"/>
      <point x="93" y="439" type="line"/>
      <point x="455" y="77" type="line"/>
      <point x="480" y="102" type="line"/>
    </contour>
    <contour>
      <point x="480" y="439" type="line"/>
      <point x="455" y="464" type="line"/>
      <point x="93" y="102" type="line"/>
      <point x="118" y="77" type="line"/>
    </contour>
  </outline>
</glyph>
<glyph name="Thorn" format="2">
  <advance width="654"/>
  <unicode hex="00DE"/>
  <outline>
    <contour>
      <point x="122" y="560" type="line"/>
      <point x="122" y="495" type="line"/>
      <point x="372" y="495" type="line" smooth="yes"/>
      <point x="476" y="495"/>
      <point x="539" y="447"/>
      <point x="539" y="367" type="curve" smooth="yes"/>
      <point x="539" y="285"/>
      <point x="476" y="235"/>
      <point x="372" y="235" type="curve" smooth="yes"/>
      <point x="122" y="235" type="line"/>
      <point x="122" y="170" type="line"/>
      <point x="372" y="170" type="line" smooth="yes"/>
      <point x="522" y="170"/>
      <point x="614" y="244"/>
      <point x="614" y="367" type="curve" smooth="yes"/>
      <point x="614" y="487"/>
      <point x="522" y="560"/>
      <point x="372" y="560" type="curve" smooth="yes"/>
    </contour>
    <contour>
      <point x="85" y="0" type="line"/>
      <point x="160" y="0" type="line"/>
      <point x="160" y="700" type="line"/>
      <point x="85" y="700" type="line"/>
    </contour>
  </outline>
</glyph>
<glyph name="germandbls" format="2">
  <advance width="591"/>
  <unicode hex="00DF"/>
  <anchor x="436" y="0" name="bottom"/>
  <anchor x="436" y="500" name="top"/>
  <outline>
    <contour>
      <point x="466" y="649" type="curve" smooth="yes"/>
      <point x="466" y="752"/>
      <point x="383" y="807"/>
      <point x="274" y="807" type="curve" smooth="yes"/>
      <point x="157" y="807"/>
      <point x="75" y="730"/>
      <point x="75" y="601" type="curve" smooth="yes"/>
      <point x="75" y="0" type="line"/>
      <point x="147" y="0" type="line"/>
      <point x="147" y="591" type="line" smooth="yes"/>
      <point x="147" y="691"/>
      <point x="200" y="748"/>
      <point x="275" y="748" type="curve" smooth="yes"/>
      <point x="349" y="748"/>
      <point x="396" y="706"/>
      <point x="396" y="644" type="curve" smooth="yes"/>
      <point x="396" y="546"/>
      <point x="289" y="531"/>
      <point x="289" y="407" type="curve" smooth="yes"/>
      <point x="289" y="252"/>
      <point x="494" y="270"/>
      <point x="494" y="140" type="curve" smooth="yes"/>
      <point x="494" y="85"/>
      <point x="456" y="48"/>
      <point x="400" y="48" type="curve" smooth="yes"/>
      <point x="333" y="48"/>
      <point x="297" y="102"/>
      <point x="309" y="184" type="curve"/>
      <point x="237" y="118" type="line"/>
      <point x="251" y="40"/>
      <point x="306" y="-12"/>
      <point x="400" y="-12" type="curve" smooth="yes"/>
      <point x="497" y="-12"/>
      <point x="567" y="51"/>
      <point x="567" y="146" type="curve" smooth="yes"/>
      <point x="567" y="313"/>
      <point x="361" y="304"/>
      <point x="361" y="417" type="curve" smooth="yes"/>
      <point x="361" y="509"/>
      <point x="466" y="527"/>
    </contour>
  </outline>
</glyph>
<glyph name="ae" format="2">
  <advance width="952"/>
  <unicode hex="00E6"/>
  <anchor x="860" y="0" name="bottom"/>
  <anchor x="1100" y="10" name="ogonek"/>
  <anchor x="860" y="500" name="top"/>
  <outline>
    <contour>
      <point x="396" y="157" type="curve"/>
      <point x="466" y="196" type="line"/>
      <point x="467" y="232"/>
      <point x="469" y="267"/>
      <point x="469" y="299" type="curve" smooth="yes"/>
      <point x="469" y="439"/>
      <point x="384" y="512"/>
      <point x="255" y="512" type="curve" smooth="yes"/>
      <point x="146" y="512"/>
      <point x="64" y="449"/>
      <point x="49" y="364" type="curve"/>
      <point x="121" y="298" type="line"/>
      <point x="102" y="403"/>
      <point x="182" y="453"/>
      <point x="254" y="453" type="curve" smooth="yes"/>
      <point x="343" y="453"/>
      <point x="400" y="404"/>
      <point x="400" y="299" type="curve" smooth="yes"/>
      <point x="400" y="256"/>
      <point x="395" y="205"/>
    </contour>
    <contour>
      <point x="397" y="218" type="line"/>
      <point x="397" y="170"/>
      <point x="354" y="49"/>
      <point x="225" y="49" type="curve" smooth="yes"/>
      <point x="163" y="49"/>
      <point x="123" y="87"/>
      <point x="123" y="138" type="curve" smooth="yes"/>
      <point x="123" y="207"/>
      <point x="175" y="236"/>
      <point x="253" y="237" type="curve" smooth="yes"/>
      <point x="409" y="239" type="line"/>
      <point x="408" y="299" type="line"/>
      <point x="253" y="298" type="line" smooth="yes"/>
      <point x="140" y="297"/>
      <point x="51" y="238"/>
      <point x="51" y="131" type="curve" smooth="yes"/>
      <point x="51" y="53"/>
      <point x="111" y="-10"/>
      <point x="225" y="-10" type="curve" smooth="yes"/>
      <point x="362" y="-10"/>
      <point x="436" y="84"/>
      <point x="443" y="213" type="curve"/>
    </contour>
    <contour>
      <point x="447" y="300" type="line"/>
      <point x="447" y="241" type="line"/>
      <point x="909" y="241" type="line"/>
      <point x="909" y="280" type="line" smooth="yes"/>
      <point x="909" y="397"/>
      <point x="811" y="507"/>
      <point x="659" y="507" type="curve" smooth="yes"/>
      <point x="505" y="507"/>
      <point x="404" y="397"/>
      <point x="404" y="250" type="curve" smooth="yes"/>
      <point x="404" y="100"/>
      <point x="505" y="-8"/>
      <point x="660" y="-8" type="curve" smooth="yes"/>
      <point x="763" y="-8"/>
      <point x="843" y="30"/>
      <point x="887" y="94" type="curve"/>
      <point x="847" y="183" type="line"/>
      <point x="815" y="97"/>
      <point x="756" y="55"/>
      <point x="660" y="55" type="curve" smooth="yes"/>
      <point x="553" y="55"/>
      <point x="476" y="137"/>
      <point x="476" y="240" type="curve" smooth="yes"/>
      <point x="476" y="267" type="line" smooth="yes"/>
      <point x="476" y="371"/>
      <point x="543" y="444"/>
      <point x="659" y="444" type="curve" smooth="yes"/>
      <point x="751" y="444"/>
      <point x="833" y="388"/>
      <point x="833" y="279" type="curve" smooth="yes"/>
      <point x="833" y="268" type="line"/>
      <point x="874" y="300" type="line"/>
    </contour>
  </outline>
</glyph>
<glyph name="eth" format="2">
  <advance width="621"/>
  <unicode hex="00F0"/>
  <anchor x="410" y="600" name="_center"/>
  <outline>
    <contour>
      <point x="292" y="-10" type="curve" smooth="yes"/>
      <point x="470" y="-10"/>
      <point x="569" y="152"/>
      <point x="569" y="357" type="curve" smooth="yes"/>
      <point x="569" y="624"/>
      <point x="392" y="801"/>
      <point x="166" y="801" type="curve"/>
      <point x="166" y="761" type="line"/>
      <point x="338" y="761"/>
      <point x="494" y="605"/>
      <point x="494" y="377" type="curve" smooth="yes"/>
      <point x="494" y="335"/>
      <point x="489" y="294"/>
      <point x="478" y="260" type="curve"/>
      <point x="507" y="252" type="line"/>
      <point x="506" y="401"/>
      <point x="423" y="507"/>
      <point x="282" y="507" type="curve" smooth="yes"/>
      <point x="141" y="507"/>
      <point x="43" y="405"/>
      <point x="43" y="255" type="curve" smooth="yes"/>
      <point x="43" y="104"/>
      <point x="141" y="-10"/>
    </contour>
    <contour>
      <point x="466" y="255" type="curve" smooth="yes"/>
      <point x="466" y="135"/>
      <point x="396" y="55"/>
      <point x="292" y="55" type="curve" smooth="yes"/>
      <point x="188" y="55"/>
      <point x="118" y="135"/>
      <point x="118" y="255" type="curve" smooth="yes"/>
      <point x="118" y="368"/>
      <point x="188" y="444"/>
      <point x="292" y="444" type="curve" smooth="yes"/>
      <point x="396" y="444"/>
      <point x="466" y="368"/>
    </contour>
    <contour>
      <point x="223" y="640" type="line"/>
      <point x="246" y="599" type="line"/>
      <point x="519" y="769" type="line"/>
      <point x="496" y="810" type="line"/>
    </contour>
  </outline>
</glyph>
<glyph name="divide" format="2">
  <advance width="573"/>
  <unicode hex="00F7"/>
  <outline>
    <contour>
      <point x="60" y="288" type="line"/>
      <point x="60" y="253" type="line"/>
      <point x="513" y="253" type="line"/>
      <point x="513" y="288" type="line"/>
    </contour>
    <contour>
      <point x="234" y="42" type="line"/>
      <point x="340" y="42" type="line"/>
      <point x="340" y="147" type="line"/>
      <point x="234" y="147" type="line"/>
    </contour>
    <contour>
      <point x="234" y="396" type="line"/>
      <point x="340" y="396" type="line"/>
      <point x="340" y="501" type="line"/>
      <point x="234" y="501" type="line"/>
    </contour>
  </outline>
</glyph>
<glyph name="idotless" format="2">
  <advance width="220"/>
  <unicode hex="0131"/>
  <anchor x="110" y="0" name="bottom"/>
  <anchor x="110" y="250" name="center"/>
  <anchor x="174" y="0" name="ogonek"/>
  <anchor x="110" y="500" name="top"/>
  <outline>
    <contour>
      <point x="74" y="0" type="line"/>
      <point x="146" y="0" type="line"/>
      <point x="146" y="500" type="line"/>
      <point x="74" y="500" type="line"/>
    </contour>
  </outline>
</glyph>
<glyph name="IJ" format="2">
  <advance width="670"/>
  <unicode hex="0132"/>
  <anchor x="348" y="0" name="bottom"/>
  <anchor x="-37" y="0" name="ogonek"/>
  <anchor x="348" y="700" name="top"/>
  <anchor x="-205" y="700" name="topleft"/>
  <outline>
    <contour>
      <point x="80" y="370" type="line"/>
      <point x="155" y="370" type="line"/>
      <point x="155" y="700" type="line"/>
      <point x="80" y="700" type="line"/>
    </contour>
    <contour>
      <point x="333" y="-10" type="curve" smooth="yes"/>
      <point x="492" y="-10"/>
      <point x="590" y="91"/>
      <point x="590" y="257" type="curve" smooth="yes"/>
      <point x="590" y="700" type="line"/>
      <point x="515" y="700" type="line"/>
      <point x="515" y="257" type="line" smooth="yes"/>
      <point x="515" y="132"/>
      <point x="446" y="56"/>
      <point x="333" y="56" type="curve" smooth="yes"/>
      <point x="240" y="56"/>
      <point x="151" y="116"/>
      <point x="155" y="266" type="curve"/>
      <point x="85" y="183" type="line"/>
      <point x="107" y="67"/>
      <point x="192" y="-10"/>
    </contour>
  </outline>
</glyph>
<glyph name="kgreenlandic" format="2">
  <advance width="527"/>
  <unicode hex="0138"/>
  <anchor x="274" y="0" name="bottom"/>
  <anchor x="274" y="500" name="top"/>
  <outline>
    <contour>
      <point x="75" y="0" type="line"/>
      <point x="147" y="0" type="line"/>
      <point x="147" y="500" type="line"/>
      <point x="75" y="500" type="line"/>
    </contour>
    <contour>
      <point x="105" y="222" type="line"/>
      <point x="147" y="180" type="line"/>
      <point x="507" y="500" type="line"/>
      <point x="414" y="500" type="line"/>
    </contour>
    <contour>
      <point x="217" y="313" type="line"/>
      <point x="442" y="0" type="line"/>
      <point x="527" y="0" type="line"/>
      <point x="283" y="344" type="line"/>
    </contour>
  </outline>
</glyph>
<glyph name="napostrophe" format="2">
  <advance width="558"/>
  <unicode hex="0149"/>
  <anchor x="283" y="0" name="bottom"/>
  <anchor x="283" y="500" name="top"/>
  <outline>
    <contour>
      <point x="293" y="456" type="curve" smooth="yes"/>
      <point x="370" y="456"/>
      <point x="425" y="405"/>
      <point x="425" y="306" type="curve" smooth="yes"/>
      <point x="425" y="0" type="line"/>
      <point x="498" y="0" type="line"/>
      <point x="498" y="319" type="line" smooth="yes"/>
      <point x="498" y="439"/>
      <point x="432" y="512"/>
      <point x="316" y="512" type="curve" smooth="yes"/>
      <point x="187" y="512"/>
      <point x="125" y="421"/>
      <point x="120" y="292" type="curve"/>
      <point x="146" y="292" type="line"/>
      <point x="153" y="398"/>
      <point x="209" y="456"/>
    </contour>
    <contour>
      <point x="74" y="0" type="line"/>
      <point x="146" y="0" type="line"/>
      <point x="146" y="500" type="line"/>
      <point x="74" y="500" type="line"/>
    </contour>
    <contour>
      <point x="83" y="695" type="line"/>
      <point x="130" y="695" type="line"/>
      <point x="130" y="633"/>
      <point x="125" y="595"/>
      <point x="65" y="545" type="curve"/>
      <point x="144" y="545" type="line"/>
      <point x="184" y="595"/>
      <point x="189" y="630"/>
      <point x="189" y="705" type="curve" smooth="yes"/>
      <point x="189" y="800" type="line"/>
      <point x="83" y="800" type="line"/>
    </contour>
  </outline>
</glyph>
<glyph name="Eng" format="2">
  <advance width="725"/>
  <unicode hex="014A"/>
  <anchor x="847" y="-200" name="bottom"/>
  <anchor x="847" y="708" name="top"/>
  <outline>
    <contour>
      <point x="85" y="0" type="line"/>
      <point x="160" y="0" type="line"/>
      <point x="160" y="647" type="line"/>
      <point x="154" y="639" type="line"/>
      <point x="522" y="0" type="line"/>
      <point x="640" y="0" type="line"/>
      <point x="640" y="700" type="line"/>
      <point x="565" y="700" type="line"/>
      <point x="565" y="45" type="line"/>
      <point x="571" y="53" type="line"/>
      <point x="203" y="700" type="line"/>
      <point x="85" y="700" type="line"/>
    </contour>
    <contour>
      <point x="565" y="-67" type="line" smooth="yes"/>
      <point x="565" y="-119"/>
      <point x="547" y="-142"/>
      <point x="515" y="-142" type="curve" smooth="yes"/>
      <point x="491" y="-142"/>
      <point x="464" y="-133"/>
      <point x="439" y="-86" type="curve"/>
      <point x="439" y="-175" type="line"/>
      <point x="464" y="-197"/>
      <point x="499" y="-206"/>
      <point x="523" y="-206" type="curve" smooth="yes"/>
      <point x="595" y="-206"/>
      <point x="640" y="-157"/>
      <point x="640" y="-77" type="curve" smooth="yes"/>
      <point x="640" y="500" type="line"/>
      <point x="565" y="500" type="line"/>
    </contour>
  </outline>
</glyph>
<glyph name="eng" format="2">
  <advance width="569"/>
  <unicode hex="014B"/>
  <anchor x="691" y="-200" name="bottom"/>
  <anchor x="691" y="708" name="top"/>
  <outline>
    <contour>
      <point x="304" y="456" type="curve" smooth="yes"/>
      <point x="381" y="456"/>
      <point x="436" y="405"/>
      <point x="436" y="306" type="curve" smooth="yes"/>
      <point x="436" y="0" type="line"/>
      <point x="509" y="0" type="line"/>
      <point x="509" y="319" type="line" smooth="yes"/>
      <point x="509" y="439"/>
      <point x="443" y="512"/>
      <point x="327" y="512" type="curve" smooth="yes"/>
      <point x="198" y="512"/>
      <point x="136" y="421"/>
      <point x="131" y="292" type="curve"/>
      <point x="157" y="292" type="line"/>
      <point x="164" y="398"/>
      <point x="220" y="456"/>
    </contour>
    <contour>
      <point x="85" y="0" type="line"/>
      <point x="157" y="0" type="line"/>
      <point x="157" y="500" type="line"/>
      <point x="85" y="500" type="line"/>
    </contour>
    <contour>
      <point x="436" y="-67" type="line" smooth="yes"/>
      <point x="436" y="-119"/>
      <point x="418" y="-142"/>
      <point x="386" y="-142" type="curve" smooth="yes"/>
      <point x="362" y="-142"/>
      <point x="335" y="-133"/>
      <point x="310" y="-86" type="curve"/>
      <point x="310" y="-175" type="line"/>
      <point x="335" y="-197"/>
      <point x="370" y="-206"/>
      <point x="394" y="-206" type="curve" smooth="yes"/>
      <point x="464" y="-206"/>
      <point x="509" y="-157"/>
      <point x="509" y="-77" type="curve" smooth="yes"/>
      <point x="509" y="300" type="line"/>
      <point x="436" y="300" type="line"/>
    </contour>
  </outline>
</glyph>
<glyph name="OE" format="2">
  <advance width="1234"/>
  <unicode hex="0152"/>
  <anchor x="623" y="0" name="bottom"/>
  <anchor x="623" y="700" name="top"/>
  <outline>
    <contour>
      <point x="414" y="-8" type="curve" smooth="yes"/>
      <point x="634" y="-8"/>
      <point x="776" y="143"/>
      <point x="776" y="353" type="curve" smooth="yes"/>
      <point x="776" y="562"/>
      <point x="634" y="713"/>
      <point x="414" y="713" type="curve" smooth="yes"/>
      <point x="194" y="713"/>
      <point x="52" y="562"/>
      <point x="52" y="353" type="curve" smooth="yes"/>
      <point x="52" y="143"/>
      <point x="194" y="-8"/>
    </contour>
    <contour>
      <point x="414" y="57" type="curve" smooth="yes"/>
      <point x="247" y="57"/>
      <point x="127" y="181"/>
      <point x="127" y="353" type="curve" smooth="yes"/>
      <point x="127" y="525"/>
      <point x="247" y="648"/>
      <point x="414" y="648" type="curve" smooth="yes"/>
      <point x="581" y="648"/>
      <point x="701" y="525"/>
      <point x="701" y="353" type="curve" smooth="yes"/>
      <point x="701" y="181"/>
      <point x="581" y="57"/>
    </contour>
    <contour>
      <point x="701" y="0" type="line"/>
      <point x="776" y="0" type="line"/>
      <point x="776" y="700" type="line"/>
      <point x="701" y="700" type="line"/>
    </contour>
    <contour>
      <point x="736" y="0" type="line"/>
      <point x="1184" y="0" type="line"/>
      <point x="1184" y="65" type="line"/>
      <point x="736" y="65" type="line"/>
    </contour>
    <contour>
      <point x="736" y="635" type="line"/>
      <point x="1184" y="635" type="line"/>
      <point x="1184" y="700" type="line"/>
      <point x="736" y="700" type="line"/>
    </contour>
    <contour>
      <point x="736" y="344" type="line"/>
      <point x="1174" y="344" type="line"/>
      <point x="1174" y="409" type="line"/>
      <point x="736" y="409" type="line"/>
    </contour>
  </outline>
</glyph>
<glyph name="oe" format="2">
  <advance width="1037"/>
  <unicode hex="0153"/>
  <anchor x="924" y="0" name="bottom"/>
  <anchor x="302" y="250" name="center"/>
  <anchor x="1164" y="10" name="ogonek"/>
  <anchor x="924" y="500" name="top"/>
  <anchor x="604" y="500" name="topright"/>
  <outline>
    <contour>
      <point x="302" y="-8" type="curve" smooth="yes"/>
      <point x="459" y="-8"/>
      <point x="561" y="100"/>
      <point x="561" y="250" type="curve" smooth="yes"/>
      <point x="561" y="399"/>
      <point x="459" y="507"/>
      <point x="302" y="507" type="curve" smooth="yes"/>
      <point x="145" y="507"/>
      <point x="43" y="399"/>
      <point x="43" y="250" type="curve" smooth="yes"/>
      <point x="43" y="100"/>
      <point x="145" y="-8"/>
    </contour>
    <contour>
      <point x="302" y="55" type="curve" smooth="yes"/>
      <point x="195" y="55"/>
      <point x="118" y="137"/>
      <point x="118" y="250" type="curve" smooth="yes"/>
      <point x="118" y="363"/>
      <point x="195" y="444"/>
      <point x="302" y="444" type="curve" smooth="yes"/>
      <point x="409" y="444"/>
      <point x="486" y="363"/>
      <point x="486" y="250" type="curve" smooth="yes"/>
      <point x="486" y="137"/>
      <point x="409" y="55"/>
    </contour>
    <contour>
      <point x="532" y="300" type="line"/>
      <point x="532" y="241" type="line"/>
      <point x="994" y="241" type="line"/>
      <point x="994" y="280" type="line" smooth="yes"/>
      <point x="994" y="397"/>
      <point x="896" y="507"/>
      <point x="744" y="507" type="curve" smooth="yes"/>
      <point x="588" y="507"/>
      <point x="486" y="397"/>
      <point x="486" y="250" type="curve" smooth="yes"/>
      <point x="486" y="100"/>
      <point x="588" y="-8"/>
      <point x="745" y="-8" type="curve" smooth="yes"/>
      <point x="848" y="-8"/>
      <point x="928" y="30"/>
      <point x="972" y="94" type="curve"/>
      <point x="932" y="183" type="line"/>
      <point x="900" y="97"/>
      <point x="841" y="55"/>
      <point x="745" y="55" type="curve" smooth="yes"/>
      <point x="638" y="55"/>
      <point x="561" y="137"/>
      <point x="561" y="240" type="curve" smooth="yes"/>
      <point x="561" y="267" type="line" smooth="yes"/>
      <point x="561" y="371"/>
      <point x="628" y="444"/>
      <point x="744" y="444" type="curve" smooth="yes"/>
      <point x="836" y="444"/>
      <point x="918" y="388"/>
      <point x="918" y="279" type="curve" smooth="yes"/>
      <point x="918" y="268" type="line"/>
      <point x="959" y="300" type="line"/>
    </contour>
  </outline>
</glyph>
<glyph name="Schwa" format="2">
  <advance width="807"/>
  <unicode hex="018F"/>
  <anchor x="516" y="0" name="bottom"/>
  <anchor x="294" y="700" name="ogonek"/>
  <anchor x="516" y="700" name="top"/>
  <outline>
    <contour>
      <point x="690" y="290" type="line"/>
      <point x="690" y="353" type="line"/>
      <point x="57" y="353" type="line"/>
      <point x="57" y="322" type="line" smooth="yes"/>
      <point x="57" y="143"/>
      <point x="191" y="-8"/>
      <point x="400" y="-8" type="curve" smooth="yes"/>
      <point x="615" y="-8"/>
      <point x="755" y="143"/>
      <point x="755" y="351" type="curve" smooth="yes"/>
      <point x="755" y="564"/>
      <point x="615" y="712"/>
      <point x="399" y="712" type="curve" smooth="yes"/>
      <point x="259" y="712"/>
      <point x="152" y="663"/>
      <point x="90" y="575" type="curve"/>
      <point x="129" y="486" type="line"/>
      <point x="179" y="590"/>
      <point x="268" y="644"/>
      <point x="399" y="644" type="curve" smooth="yes"/>
      <point x="565" y="644"/>
      <point x="680" y="519"/>
      <point x="680" y="365" type="curve" smooth="yes"/>
      <point x="680" y="328" type="line" smooth="yes"/>
      <point x="680" y="171"/>
      <point x="578" y="57"/>
      <point x="400" y="57" type="curve" smooth="yes"/>
      <point x="260" y="57"/>
      <point x="133" y="146"/>
      <point x="133" y="310" type="curve" smooth="yes"/>
      <point x="133" y="296" type="line"/>
      <point x="126" y="290" type="line"/>
    </contour>
  </outline>
</glyph>
<glyph name="florin" format="2">
  <advance width="664"/>
  <unicode hex="0192"/>
  <anchor x="283" y="-200" name="bottom"/>
  <anchor x="283" y="708" name="top"/>
  <outline>
    <contour>
      <point x="296" y="521" type="curve" smooth="yes"/>
      <point x="296" y="177" type="line"/>
      <point x="368" y="177" type="line"/>
      <point x="368" y="511" type="line" smooth="yes"/>
      <point x="368" y="604"/>
      <point x="411" y="648"/>
      <point x="479" y="648" type="curve" smooth="yes"/>
      <point x="530" y="648"/>
      <point x="587" y="603"/>
      <point x="577" y="510" type="curve"/>
      <point x="644" y="576" type="line"/>
      <point x="632" y="651"/>
      <point x="566" y="707"/>
      <point x="478" y="707" type="curve" smooth="yes"/>
      <point x="369" y="707"/>
      <point x="296" y="643"/>
    </contour>
    <contour>
      <point x="132" y="336" type="line"/>
      <point x="535" y="336" type="line"/>
      <point x="535" y="395" type="line"/>
      <point x="132" y="395" type="line"/>
    </contour>
    <contour>
      <point x="368" y="177" type="curve"/>
      <point x="296" y="187" type="line"/>
      <point x="296" y="94"/>
      <point x="253" y="50"/>
      <point x="185" y="50" type="curve" smooth="yes"/>
      <point x="134" y="50"/>
      <point x="77" y="95"/>
      <point x="87" y="188" type="curve"/>
      <point x="20" y="122" type="line"/>
      <point x="32" y="47"/>
      <point x="98" y="-9"/>
      <point x="186" y="-9" type="curve" smooth="yes"/>
      <point x="295" y="-9"/>
      <point x="368" y="55"/>
    </contour>
  </outline>
</glyph>
<glyph name="Nhookleft" format="2">
  <advance width="771"/>
  <unicode hex="019D"/>
  <anchor x="893" y="-200" name="bottom"/>
  <anchor x="893" y="708" name="top"/>
  <outline>
    <contour>
      <point x="131" y="0" type="line"/>
      <point x="206" y="0" type="line"/>
      <point x="206" y="647" type="line"/>
      <point x="200" y="639" type="line"/>
      <point x="568" y="0" type="line"/>
      <point x="686" y="0" type="line"/>
      <point x="686" y="700" type="line"/>
      <point x="611" y="700" type="line"/>
      <point x="611" y="45" type="line"/>
      <point x="617" y="53" type="line"/>
      <point x="249" y="700" type="line"/>
      <point x="131" y="700" type="line"/>
    </contour>
    <contour>
      <point x="131" y="-67" type="line" smooth="yes"/>
      <point x="131" y="-119"/>
      <point x="113" y="-142"/>
      <point x="81" y="-142" type="curve" smooth="yes"/>
      <point x="57" y="-142"/>
      <point x="30" y="-133"/>
      <point x="5" y="-86" type="curve"/>
      <point x="5" y="-175" type="line"/>
      <point x="30" y="-197"/>
      <point x="65" y="-206"/>
      <point x="89" y="-206" type="curve" smooth="yes"/>
      <point x="161" y="-206"/>
      <point x="206" y="-157"/>
      <point x="206" y="-77" type="curve" smooth="yes"/>
      <point x="206" y="500" type="line"/>
      <point x="131" y="500" type="line"/>
    </contour>
  </outline>
</glyph>
<glyph name="jdotless" format="2">
  <advance width="222"/>
  <unicode hex="0237"/>
  <anchor x="112" y="-200" name="bottom"/>
  <anchor x="112" y="500" name="top"/>
  <outline>
    <contour>
      <point x="75" y="-13" type="line" smooth="yes"/>
      <point x="75" y="-88"/>
      <point x="65" y="-161"/>
      <point x="5" y="-200" type="curve"/>
      <point x="98" y="-200" type="line"/>
      <point x="139" y="-165"/>
      <point x="147" y="-103"/>
      <point x="147" y="-38" type="curve" smooth="yes"/>
      <point x="147" y="500" type="line"/>
      <point x="75" y="500" type="line"/>
    </contour>
  </outline>
</glyph>
<glyph name="nhookleft" format="2">
  <advance width="615"/>
  <unicode hex="0272"/>
  <anchor x="737" y="-200" name="bottom"/>
  <anchor x="737" y="708" name="top"/>
  <outline>
    <contour>
      <point x="350" y="456" type="curve" smooth="yes"/>
      <point x="427" y="456"/>
      <point x="482" y="405"/>
      <point x="482" y="306" type="curve" smooth="yes"/>
      <point x="482" y="0" type="line"/>
      <point x="555" y="0" type="line"/>
      <point x="555" y="319" type="line" smooth="yes"/>
      <point x="555" y="439"/>
      <point x="489" y="512"/>
      <point x="373" y="512" type="curve" smooth="yes"/>
      <point x="244" y="512"/>
      <point x="182" y="421"/>
      <point x="177" y="292" type="curve"/>
      <point x="203" y="292" type="line"/>
      <point x="210" y="398"/>
      <point x="266" y="456"/>
    </contour>
    <contour>
      <point x="131" y="0" type="line"/>
      <point x="203" y="0" type="line"/>
      <point x="203" y="500" type="line"/>
      <point x="131" y="500" type="line"/>
    </contour>
    <contour>
      <point x="131" y="-67" type="line" smooth="yes"/>
      <point x="131" y="-119"/>
      <point x="113" y="-142"/>
      <point x="81" y="-142" type="curve" smooth="yes"/>
      <point x="57" y="-142"/>
      <point x="30" y="-133"/>
      <point x="5" y="-86" type="curve"/>
      <point x="5" y="-175" type="line"/>
      <point x="30" y="-197"/>
      <point x="65" y="-206"/>
      <point x="89" y="-206" type="curve" smooth="yes"/>
      <point x="159" y="-206"/>
      <point x="203" y="-157"/>
      <point x="203" y="-77" type="curve" smooth="yes"/>
      <point x="203" y="500" type="line"/>
      <point x="131" y="500" type="line"/>
    </contour>
  </outline>
</glyph>
<glyph name="gravecomb" format="2">
  <advance width="306"/>
  <unicode hex="0300"/>
  <anchor x="222" y="500" name="_top"/>
  <anchor x="222" y="760" name="top"/>
  <outline>
    <contour>
      <point x="246" y="573" type="line"/>
      <point x="152" y="741" type="line"/>
      <point x="40" y="741" type="line"/>
      <point x="206" y="573" type="line"/>
    </contour>
  </outline>
</glyph>
<glyph name="circumflexcomb" format="2">
  <advance width="397"/>
  <unicode hex="0302"/>
  <anchor x="199" y="500" name="_top"/>
  <anchor x="199" y="760" name="top"/>
  <outline>
    <contour>
      <point x="299" y="570" type="line"/>
      <point x="380" y="570" type="line"/>
      <point x="223" y="741" type="line"/>
      <point x="174" y="741" type="line"/>
      <point x="17" y="570" type="line"/>
      <point x="97" y="570" type="line"/>
      <point x="221" y="704" type="line"/>
      <point x="175" y="704" type="line"/>
    </contour>
  </outline>
</glyph>
<glyph name="tildecomb" format="2">
  <advance width="447"/>
  <unicode hex="0303"/>
  <anchor x="224" y="500" name="_top"/>
  <anchor x="224" y="720" name="top"/>
  <outline>
    <contour>
      <point x="141" y="666" type="curve" smooth="yes"/>
      <point x="194" y="666"/>
      <point x="217" y="591"/>
      <point x="306" y="591" type="curve" smooth="yes"/>
      <point x="374" y="591"/>
      <point x="416" y="635"/>
      <point x="406" y="720" type="curve"/>
      <point x="347" y="720" type="line"/>
      <point x="357" y="670"/>
      <point x="336" y="645"/>
      <point x="306" y="645" type="curve" smooth="yes"/>
      <point x="253" y="645"/>
      <point x="230" y="720"/>
      <point x="141" y="720" type="curve" smooth="yes"/>
      <point x="73" y="720"/>
      <point x="31" y="676"/>
      <point x="41" y="591" type="curve"/>
      <point x="100" y="591" type="line"/>
      <point x="90" y="641"/>
      <point x="111" y="666"/>
    </contour>
  </outline>
</glyph>
<glyph name="macroncomb" format="2">
  <advance width="473"/>
  <unicode hex="0304"/>
  <anchor x="237" y="500" name="_top"/>
  <anchor x="237" y="681" name="top"/>
  <outline>
    <contour>
      <point x="60" y="691" type="line"/>
      <point x="60" y="632" type="line"/>
      <point x="413" y="632" type="line"/>
      <point x="413" y="691" type="line"/>
    </contour>
  </outline>
</glyph>
<glyph name="brevecomb" format="2">
  <advance width="385"/>
  <unicode hex="0306"/>
  <anchor x="193" y="500" name="_top"/>
  <anchor x="193" y="761" name="top"/>
  <outline>
    <contour>
      <point x="96" y="737" type="curve"/>
      <point x="31" y="737" type="line"/>
      <point x="31" y="640"/>
      <point x="96" y="568"/>
      <point x="193" y="568" type="curve" smooth="yes"/>
      <point x="290" y="568"/>
      <point x="354" y="640"/>
      <point x="354" y="737" type="curve"/>
      <point x="290" y="737" type="line"/>
      <point x="286" y="672"/>
      <point x="251" y="624"/>
      <point x="193" y="624" type="curve" smooth="yes"/>
      <point x="135" y="624"/>
      <point x="99" y="672"/>
    </contour>
  </outline>
</glyph>
<glyph name="dotaccentcomb" format="2">
  <advance width="276"/>
  <unicode hex="0307"/>
  <anchor x="138" y="500" name="_top"/>
  <anchor x="138" y="708" name="top"/>
  <outline>
    <contour>
      <point x="85" y="602" type="line"/>
      <point x="191" y="602" type="line"/>
      <point x="191" y="708" type="line"/>
      <point x="85" y="708" type="line"/>
    </contour>
  </outline>
</glyph>
<glyph name="dieresiscomb" format="2">
  <advance width="462"/>
  <unicode hex="0308"/>
  <anchor x="231" y="500" name="_top"/>
  <anchor x="231" y="705" name="top"/>
  <outline>
    <contour>
      <point x="85" y="605" type="line"/>
      <point x="186" y="605" type="line"/>
      <point x="186" y="705" type="line"/>
      <point x="85" y="705" type="line"/>
    </contour>
    <contour>
      <point x="276" y="605" type="line"/>
      <point x="377" y="605" type="line"/>
      <point x="377" y="705" type="line"/>
      <point x="276" y="705" type="line"/>
    </contour>
  </outline>
</glyph>
<glyph name="ringcomb" format="2">
  <advance width="294"/>
  <unicode hex="030A"/>
  <anchor x="147" y="500" name="_top"/>
  <anchor x="147" y="507" name="top"/>
  <outline>
    <contour>
      <point x="147" y="565" type="curve" smooth="yes"/>
      <point x="208" y="565"/>
      <point x="251" y="606"/>
      <point x="251" y="664" type="curve" smooth="yes"/>
      <point x="251" y="721"/>
      <point x="208" y="762"/>
      <point x="147" y="762" type="curve" smooth="yes"/>
      <point x="86" y="762"/>
      <point x="43" y="721"/>
      <point x="43" y="664" type="curve" smooth="yes"/>
      <point x="43" y="606"/>
      <point x="86" y="565"/>
    </contour>
    <contour>
      <point x="147" y="614" type="curve" smooth="yes"/>
      <point x="120" y="614"/>
      <point x="100" y="635"/>
      <point x="100" y="664" type="curve" smooth="yes"/>
      <point x="100" y="692"/>
      <point x="120" y="713"/>
      <point x="147" y="713" type="curve" smooth="yes"/>
      <point x="174" y="713"/>
      <point x="194" y="692"/>
      <point x="194" y="664" type="curve" smooth="yes"/>
      <point x="194" y="635"/>
      <point x="174" y="614"/>
    </contour>
  </outline>
</glyph>
<glyph name="hungarumlautcomb" format="2">
  <advance width="456"/>
  <unicode hex="030B"/>
  <anchor x="156" y="500" name="_top"/>
  <anchor x="156" y="760" name="top"/>
  <outline>
    <contour>
      <point x="60" y="573" type="line"/>
      <point x="100" y="573" type="line"/>
      <point x="236" y="741" type="line"/>
      <point x="130" y="741" type="line"/>
    </contour>
    <contour>
      <point x="210" y="573" type="line"/>
      <point x="250" y="573" type="line"/>
      <point x="416" y="741" type="line"/>
      <point x="304" y="741" type="line"/>
    </contour>
  </outline>
</glyph>
<glyph name="caroncomb" format="2">
  <advance width="397"/>
  <unicode hex="030C"/>
  <anchor x="200" y="500" name="_top"/>
  <anchor x="200" y="761" name="top"/>
  <outline>
    <contour>
      <point x="98" y="741" type="line"/>
      <point x="17" y="741" type="line"/>
      <point x="174" y="570" type="line"/>
      <point x="223" y="570" type="line"/>
      <point x="380" y="741" type="line"/>
      <point x="300" y="741" type="line"/>
      <point x="176" y="607" type="line"/>
      <point x="222" y="607" type="line"/>
    </contour>
  </outline>
</glyph>
<glyph name="commaturnedabovecomb" format="2">
  <advance width="294"/>
  <unicode hex="0312"/>
  <anchor x="147" y="500" name="_top"/>
  <anchor x="147" y="606" name="top"/>
  <outline>
    <contour>
      <point x="191" y="709" type="line"/>
      <point x="99" y="709" type="line"/>
      <point x="144" y="615" type="line"/>
      <point x="144" y="699"/>
      <point x="138" y="741"/>
      <point x="209" y="800" type="curve"/>
      <point x="130" y="800" type="line"/>
      <point x="90" y="750"/>
      <point x="85" y="715"/>
      <point x="85" y="640" type="curve" smooth="yes"/>
      <point x="85" y="604" type="line"/>
      <point x="191" y="604" type="line"/>
    </contour>
  </outline>
</glyph>
<glyph name="dotbelowcomb" format="2">
  <advance width="276"/>
  <unicode hex="0323"/>
  <anchor x="138" y="0" name="_bottom"/>
  <anchor x="138" y="-198" name="bottom"/>
  <outline>
    <contour>
      <point x="85" y="-164" type="line"/>
      <point x="191" y="-164" type="line"/>
      <point x="191" y="-58" type="line"/>
      <point x="85" y="-58" type="line"/>
    </contour>
  </outline>
</glyph>
<glyph name="commaaccentcomb" format="2">
  <advance width="294"/>
  <unicode hex="0326"/>
  <anchor x="155" y="0" name="_bottom"/>
  <anchor x="155" y="-196" name="bottom"/>
  <outline>
    <contour>
      <point x="103" y="-163" type="line"/>
      <point x="195" y="-163" type="line"/>
      <point x="150" y="-69" type="line"/>
      <point x="150" y="-153"/>
      <point x="156" y="-195"/>
      <point x="85" y="-254" type="curve"/>
      <point x="164" y="-254" type="line"/>
      <point x="204" y="-204"/>
      <point x="209" y="-169"/>
      <point x="209" y="-94" type="curve" smooth="yes"/>
      <point x="209" y="-58" type="line"/>
      <point x="103" y="-58" type="line"/>
    </contour>
  </outline>
</glyph>
<glyph name="cedillacomb" format="2">
  <advance width="284"/>
  <unicode hex="0327"/>
  <anchor x="149" y="0" name="_bottom"/>
  <anchor x="147" y="-219" name="bottom"/>
  <outline>
    <contour>
      <point x="124" y="0" type="line"/>
      <point x="112" y="-75" type="line"/>
      <point x="132" y="-75" type="line" smooth="yes"/>
      <point x="166" y="-75"/>
      <point x="185" y="-94"/>
      <point x="185" y="-120" type="curve" smooth="yes"/>
      <point x="185" y="-147"/>
      <point x="167" y="-166"/>
      <point x="142" y="-166" type="curve" smooth="yes"/>
      <point x="117" y="-166"/>
      <point x="89" y="-149"/>
      <point x="99" y="-92" type="curve"/>
      <point x="43" y="-133" type="line"/>
      <point x="48" y="-178"/>
      <point x="84" y="-214"/>
      <point x="142" y="-214" type="curve" smooth="yes"/>
      <point x="199" y="-214"/>
      <point x="241" y="-175"/>
      <point x="241" y="-120" type="curve" smooth="yes"/>
      <point x="241" y="-65"/>
      <point x="197" y="-26"/>
      <point x="140" y="-28" type="curve"/>
      <point x="159" y="-73" type="line"/>
      <point x="168" y="0" type="line"/>
    </contour>
  </outline>
</glyph>
<glyph name="ogonekcomb" format="2">
  <advance width="288"/>
  <unicode hex="0328"/>
  <anchor x="241" y="0" name="_ogonek"/>
  <outline>
    <contour>
      <point x="10" y="25"/>
      <point x="10" y="-206"/>
      <point x="157" y="-206" type="curve" smooth="yes"/>
      <point x="181" y="-206"/>
      <point x="216" y="-197"/>
      <point x="241" y="-175" type="curve"/>
      <point x="241" y="-91" type="line"/>
      <point x="216" y="-138"/>
      <point x="189" y="-147"/>
      <point x="165" y="-147" type="curve" smooth="yes"/>
      <point x="87" y="-147"/>
      <point x="88" y="0"/>
      <point x="213" y="0" type="curve"/>
      <point x="203" y="25" type="line"/>
    </contour>
  </outline>
</glyph>
<glyph name="strokeshortcomb" format="2">
  <advance width="473"/>
  <unicode hex="0335"/>
  <anchor x="350" y="800" name="_topright"/>
  <outline>
    <contour>
      <point x="60" y="658" type="line"/>
      <point x="60" y="623" type="line"/>
      <point x="413" y="623" type="line"/>
      <point x="413" y="658" type="line"/>
    </contour>
  </outline>
</glyph>
<glyph name="slashshortcomb" format="2">
  <advance width="393"/>
  <unicode hex="0337"/>
  <anchor x="197" y="400" name="_center"/>
  <outline>
    <contour>
      <point x="60" y="370" type="line"/>
      <point x="60" y="307" type="line"/>
      <point x="333" y="447" type="line"/>
      <point x="333" y="510" type="line"/>
    </contour>
  </outline>
</glyph>
<glyph name="slashlongcomb" format="2">
  <advance width="527"/>
  <unicode hex="0338"/>
  <anchor x="264" y="250" name="_center"/>
  <outline>
    <contour>
      <point x="20" y="-10" type="line"/>
      <point x="70" y="-10" type="line"/>
      <point x="507" y="510" type="line"/>
      <point x="457" y="510" type="line"/>
    </contour>
  </outline>
</glyph>
<glyph name="Omega" format="2">
  <advance width="828"/>
  <unicode hex="03A9"/>
  <anchor x="414" y="0" name="bottom"/>
  <anchor x="414" y="350" name="center"/>
  <anchor x="744" y="10" name="ogonek"/>
  <anchor x="414" y="700" name="top"/>
  <anchor x="22" y="700" name="topleft"/>
  <anchor x="806" y="700" name="topright"/>
  <outline>
    <contour>
      <point x="65" y="0" type="line"/>
      <point x="353" y="0" type="line"/>
      <point x="353" y="65" type="line"/>
      <point x="65" y="65" type="line"/>
    </contour>
    <contour>
      <point x="414" y="648" type="curve"/>
      <point x="414" y="713" type="line"/>
      <point x="200" y="713"/>
      <point x="62" y="560"/>
      <point x="62" y="359" type="curve" smooth="yes"/>
      <point x="62" y="181"/>
      <point x="173" y="57"/>
      <point x="353" y="30" type="curve"/>
      <point x="353" y="65" type="line"/>
      <point x="224" y="95"/>
      <point x="137" y="207"/>
      <point x="137" y="353" type="curve" smooth="yes"/>
      <point x="137" y="525"/>
      <point x="253" y="648"/>
    </contour>
    <contour>
      <point x="763" y="0" type="line"/>
      <point x="763" y="65" type="line"/>
      <point x="475" y="65" type="line"/>
      <point x="475" y="0" type="line"/>
    </contour>
    <contour>
      <point x="414" y="648" type="line"/>
      <point x="575" y="648"/>
      <point x="691" y="525"/>
      <point x="691" y="353" type="curve" smooth="yes"/>
      <point x="691" y="207"/>
      <point x="604" y="95"/>
      <point x="475" y="65" type="curve"/>
      <point x="475" y="30" type="line"/>
      <point x="655" y="58"/>
      <point x="766" y="181"/>
      <point x="766" y="359" type="curve" smooth="yes"/>
      <point x="766" y="560"/>
      <point x="628" y="713"/>
      <point x="414" y="713" type="curve"/>
    </contour>
  </outline>
</glyph>
<glyph name="pi" format="2">
  <advance width="619"/>
  <unicode hex="03C0"/>
  <outline>
    <contour>
      <point x="589" y="500" type="line"/>
      <point x="39" y="500" type="line"/>
      <point x="39" y="441" type="line"/>
      <point x="589" y="441" type="line"/>
    </contour>
    <contour>
      <point x="456" y="133" type="curve" smooth="yes"/>
      <point x="456" y="500" type="line"/>
      <point x="384" y="500" type="line"/>
      <point x="384" y="123" type="line" smooth="yes"/>
      <point x="384" y="43"/>
      <point x="428" y="-6"/>
      <point x="498" y="-6" type="curve" smooth="yes"/>
      <point x="522" y="-6"/>
      <point x="557" y="3"/>
      <point x="582" y="25" type="curve"/>
      <point x="582" y="114" type="line"/>
      <point x="557" y="67"/>
      <point x="530" y="58"/>
      <point x="506" y="58" type="curve" smooth="yes"/>
      <point x="474" y="58"/>
      <point x="456" y="81"/>
    </contour>
    <contour>
      <point x="234" y="0" type="line"/>
      <point x="234" y="500" type="line"/>
      <point x="162" y="500" type="line"/>
      <point x="162" y="0" type="line"/>
    </contour>
  </outline>
</glyph>
<glyph name="baht" format="2">
  <advance width="664"/>
  <unicode hex="0E3F"/>
  <outline>
    <contour>
      <point x="122" y="0" type="line"/>
      <point x="332" y="0" type="line" smooth="yes"/>
      <point x="494" y="0"/>
      <point x="594" y="83"/>
      <point x="594" y="213" type="curve" smooth="yes"/>
      <point x="594" y="343"/>
      <point x="494" y="419"/>
      <point x="332" y="419" type="curve" smooth="yes"/>
      <point x="122" y="419" type="line"/>
      <point x="122" y="365" type="line"/>
      <point x="332" y="365" type="line" smooth="yes"/>
      <point x="448" y="365"/>
      <point x="519" y="307"/>
      <point x="519" y="213" type="curve" smooth="yes"/>
      <point x="519" y="121"/>
      <point x="448" y="65"/>
      <point x="332" y="65" type="curve" smooth="yes"/>
      <point x="122" y="65" type="line"/>
    </contour>
    <contour>
      <point x="85" y="700" type="line"/>
      <point x="85" y="0" type="line"/>
      <point x="160" y="0" type="line"/>
      <point x="160" y="700" type="line"/>
    </contour>
    <contour>
      <point x="122" y="380" type="line"/>
      <point x="352" y="380" type="line" smooth="yes"/>
      <point x="477" y="380"/>
      <point x="554" y="444"/>
      <point x="554" y="539" type="curve" smooth="yes"/>
      <point x="554" y="642"/>
      <point x="478" y="700"/>
      <point x="352" y="700" type="curve" smooth="yes"/>
      <point x="122" y="700" type="line"/>
      <point x="122" y="635" type="line"/>
      <point x="352" y="635" type="line" smooth="yes"/>
      <point x="431" y="635"/>
      <point x="479" y="596"/>
      <point x="479" y="533" type="curve" smooth="yes"/>
      <point x="479" y="469"/>
      <point x="431" y="430"/>
      <point x="352" y="430" type="curve" smooth="yes"/>
      <point x="122" y="430" type="line"/>
    </contour>
    <contour>
      <point x="296" y="-130" type="line"/>
      <point x="333" y="-130" type="line"/>
      <point x="333" y="840" type="line"/>
      <point x="296" y="840" type="line"/>
    </contour>
  </outline>
</glyph>
<glyph name="Germandbls" format="2">
  <advance width="786"/>
  <unicode hex="1E9E"/>
  <anchor x="539" y="0" name="bottom"/>
  <anchor x="25" y="-9" name="bottomleft"/>
  <anchor x="73" y="681" name="ogonek"/>
  <anchor x="539" y="700" name="top"/>
  <outline>
    <contour>
      <point x="712" y="700" type="line"/>
      <point x="347" y="700" type="line"/>
      <point x="181" y="700"/>
      <point x="80" y="600"/>
      <point x="80" y="434" type="curve" smooth="yes"/>
      <point x="80" y="0" type="line"/>
      <point x="155" y="0" type="line"/>
      <point x="155" y="434" type="line" smooth="yes"/>
      <point x="155" y="559"/>
      <point x="228" y="635"/>
      <point x="347" y="635" type="curve" smooth="yes"/>
      <point x="619" y="635" type="line"/>
      <point x="641" y="642" type="line"/>
      <point x="533" y="642"/>
      <point x="472" y="577"/>
      <point x="472" y="495" type="curve" smooth="yes"/>
      <point x="472" y="351"/>
      <point x="661" y="337"/>
      <point x="661" y="190" type="curve" smooth="yes"/>
      <point x="661" y="108"/>
      <point x="598" y="50"/>
      <point x="504" y="50" type="curve" smooth="yes"/>
      <point x="393" y="50"/>
      <point x="322" y="134"/>
      <point x="327" y="261" type="curve"/>
      <point x="257" y="178" type="line"/>
      <point x="279" y="65"/>
      <point x="377" y="-11"/>
      <point x="501" y="-11" type="curve" smooth="yes"/>
      <point x="642" y="-11"/>
      <point x="736" y="73"/>
      <point x="736" y="194" type="curve" smooth="yes"/>
      <point x="736" y="384"/>
      <point x="542" y="388"/>
      <point x="542" y="513" type="curve" smooth="yes"/>
      <point x="542" y="596"/>
      <point x="629" y="627"/>
      <point x="712" y="639" type="curve"/>
    </contour>
  </outline>
</glyph>
<glyph name="endash" format="2">
  <advance width="573"/>
  <unicode hex="2013"/>
  <outline>
    <contour>
      <point x="60" y="288" type="line"/>
      <point x="60" y="253" type="line"/>
      <point x="513" y="253" type="line"/>
      <point x="513" y="288" type="line"/>
    </contour>
  </outline>
</glyph>
<glyph name="emdash" format="2">
  <advance width="673"/>
  <unicode hex="2014"/>
  <outline>
    <contour>
      <point x="60" y="288" type="line"/>
      <point x="60" y="253" type="line"/>
      <point x="613" y="253" type="line"/>
      <point x="613" y="288" type="line"/>
    </contour>
  </outline>
</glyph>
<glyph name="dagger" format="2">
  <advance width="413"/>
  <unicode hex="2020"/>
  <anchor x="222" y="0" name="bottom"/>
  <anchor x="222" y="250" name="center"/>
  <anchor x="222" y="500" name="top"/>
  <anchor x="403" y="800" name="topright"/>
  <outline>
    <contour>
      <point x="189" y="167" type="line"/>
      <point x="226" y="167" type="line"/>
      <point x="226" y="710" type="line"/>
      <point x="189" y="710" type="line"/>
    </contour>
    <contour>
      <point x="30" y="554" type="line"/>
      <point x="30" y="521" type="line"/>
      <point x="383" y="521" type="line"/>
      <point x="383" y="554" type="line"/>
    </contour>
  </outline>
</glyph>
<glyph name="ellipsis" format="2">
  <advance width="756"/>
  <unicode hex="2026"/>
  <outline>
    <contour>
      <point x="85" y="0" type="line"/>
      <point x="191" y="0" type="line"/>
      <point x="191" y="105" type="line"/>
      <point x="85" y="105" type="line"/>
    </contour>
    <contour>
      <point x="325" y="0" type="line"/>
      <point x="431" y="0" type="line"/>
      <point x="431" y="105" type="line"/>
      <point x="325" y="105" type="line"/>
    </contour>
    <contour>
      <point x="565" y="0" type="line"/>
      <point x="671" y="0" type="line"/>
      <point x="671" y="105" type="line"/>
      <point x="565" y="105" type="line"/>
    </contour>
  </outline>
</glyph>
<glyph name="perthousand" format="2">
  <advance width="1279"/>
  <unicode hex="2030"/>
  <anchor x="219" y="0" name="bottom"/>
  <anchor x="219" y="250" name="center"/>
  <anchor x="477" y="10" name="ogonek"/>
  <anchor x="219" y="500" name="top"/>
  <anchor x="521" y="500" name="topright"/>
  <outline>
    <contour>
      <point x="219" y="326" type="curve" smooth="yes"/>
      <point x="325" y="326"/>
      <point x="395" y="402"/>
      <point x="395" y="517" type="curve" smooth="yes"/>
      <point x="395" y="631"/>
      <point x="325" y="707"/>
      <point x="219" y="707" type="curve" smooth="yes"/>
      <point x="113" y="707"/>
      <point x="43" y="631"/>
      <point x="43" y="517" type="curve" smooth="yes"/>
      <point x="43" y="402"/>
      <point x="113" y="326"/>
    </contour>
    <contour>
      <point x="219" y="361" type="curve" smooth="yes"/>
      <point x="138" y="361"/>
      <point x="83" y="423"/>
      <point x="83" y="517" type="curve" smooth="yes"/>
      <point x="83" y="611"/>
      <point x="138" y="673"/>
      <point x="219" y="672" type="curve" smooth="yes"/>
      <point x="300" y="673"/>
      <point x="355" y="611"/>
      <point x="355" y="517" type="curve" smooth="yes"/>
      <point x="355" y="423"/>
      <point x="300" y="361"/>
    </contour>
    <contour>
      <point x="169" y="0" type="line"/>
      <point x="213" y="0" type="line"/>
      <point x="696" y="700" type="line"/>
      <point x="652" y="700" type="line"/>
    </contour>
    <contour>
      <point x="650" y="-10" type="curve" smooth="yes"/>
      <point x="756" y="-10"/>
      <point x="826" y="66"/>
      <point x="826" y="181" type="curve" smooth="yes"/>
      <point x="826" y="295"/>
      <point x="756" y="371"/>
      <point x="650" y="371" type="curve" smooth="yes"/>
      <point x="544" y="371"/>
      <point x="474" y="295"/>
      <point x="474" y="181" type="curve" smooth="yes"/>
      <point x="474" y="66"/>
      <point x="544" y="-10"/>
    </contour>
    <contour>
      <point x="650" y="25" type="curve" smooth="yes"/>
      <point x="569" y="25"/>
      <point x="514" y="87"/>
      <point x="514" y="181" type="curve" smooth="yes"/>
      <point x="514" y="275"/>
      <point x="569" y="337"/>
      <point x="650" y="336" type="curve" smooth="yes"/>
      <point x="731" y="337"/>
      <point x="786" y="275"/>
      <point x="786" y="181" type="curve" smooth="yes"/>
      <point x="786" y="87"/>
      <point x="731" y="25"/>
    </contour>
    <contour>
      <point x="1060" y="-10" type="curve" smooth="yes"/>
      <point x="1166" y="-10"/>
      <point x="1236" y="66"/>
      <point x="1236" y="181" type="curve" smooth="yes"/>
      <point x="1236" y="295"/>
      <point x="1166" y="371"/>
      <point x="1060" y="371" type="curve" smooth="yes"/>
      <point x="954" y="371"/>
      <point x="884" y="295"/>
      <point x="884" y="181" type="curve" smooth="yes"/>
      <point x="884" y="66"/>
      <point x="954" y="-10"/>
    </contour>
    <contour>
      <point x="1060" y="25" type="curve" smooth="yes"/>
      <point x="979" y="25"/>
      <point x="924" y="87"/>
      <point x="924" y="181" type="curve" smooth="yes"/>
      <point x="924" y="275"/>
      <point x="979" y="337"/>
      <point x="1060" y="336" type="curve" smooth="yes"/>
      <point x="1141" y="337"/>
      <point x="1196" y="275"/>
      <point x="1196" y="181" type="curve" smooth="yes"/>
      <point x="1196" y="87"/>
      <point x="1141" y="25"/>
    </contour>
  </outline>
</glyph>
<glyph name="minute" format="2">
  <advance width="265"/>
  <unicode hex="2032"/>
  <anchor x="-5" y="0" name="#entry"/>
  <anchor x="155" y="0" name="#exit"/>
  <outline>
    <contour>
      <point x="85" y="431" type="line"/>
      <point x="125" y="431" type="line"/>
      <point x="180" y="700" type="line"/>
      <point x="85" y="700" type="line"/>
    </contour>
  </outline>
</glyph>
<glyph name="guilsinglleft" format="2">
  <advance width="382"/>
  <unicode hex="2039"/>
  <outline>
    <contour>
      <point x="322" y="383" type="line"/>
      <point x="322" y="451" type="line"/>
      <point x="60" y="290" type="line"/>
      <point x="60" y="229" type="line"/>
      <point x="322" y="68" type="line"/>
      <point x="322" y="135" type="line"/>
      <point x="85" y="280" type="line"/>
      <point x="85" y="238" type="line"/>
    </contour>
  </outline>
</glyph>
<glyph name="interrobang" format="2">
  <advance width="480"/>
  <unicode hex="203D"/>
  <outline>
    <contour>
      <point x="221" y="182" type="curve"/>
      <point x="251" y="182" type="line"/>
      <point x="251" y="334"/>
      <point x="451" y="357"/>
      <point x="451" y="531" type="curve" smooth="yes"/>
      <point x="451" y="640"/>
      <point x="369" y="712"/>
      <point x="246" y="712" type="curve" smooth="yes"/>
      <point x="132" y="712"/>
      <point x="42" y="644"/>
      <point x="22" y="543" type="curve"/>
      <point x="92" y="460" type="line"/>
      <point x="87" y="575"/>
      <point x="149" y="651"/>
      <point x="246" y="651" type="curve" smooth="yes"/>
      <point x="324" y="651"/>
      <point x="376" y="603"/>
      <point x="376" y="531" type="curve" smooth="yes"/>
      <point x="376" y="386"/>
      <point x="208" y="377"/>
    </contour>
    <contour>
      <point x="181" y="0" type="line"/>
      <point x="287" y="0" type="line"/>
      <point x="287" y="105" type="line"/>
      <point x="181" y="105" type="line"/>
    </contour>
    <contour>
      <point x="211" y="182" type="line"/>
      <point x="251" y="182" type="line"/>
      <point x="273" y="461" type="line"/>
      <point x="273" y="560" type="line"/>
      <point x="193" y="560" type="line"/>
      <point x="193" y="461" type="line"/>
    </contour>
  </outline>
</glyph>
<glyph name="fraction" format="2">
  <advance width="265"/>
  <unicode hex="2044"/>
  <outline>
    <contour>
      <point x="-130" y="0" type="line"/>
      <point x="-88" y="0" type="line"/>
      <point x="395" y="700" type="line"/>
      <point x="353" y="700" type="line"/>
    </contour>
  </outline>
</glyph>
<glyph name="parenleftsuperior" format="2">
  <advance width="331"/>
  <unicode hex="207D"/>
  <outline>
    <contour>
      <point x="303" y="393" type="move"/>
      <point x="167" y="405"/>
      <point x="60" y="525"/>
      <point x="60" y="694" type="curve" smooth="yes"/>
      <point x="60" y="863"/>
      <point x="167" y="983"/>
      <point x="303" y="995" type="curve"/>
    </contour>
  </outline>
</glyph>
<glyph name="sheqel" format="2">
  <advance width="685"/>
  <unicode hex="20AA"/>
  <anchor x="368" y="0" name="bottom"/>
  <anchor x="368" y="350" name="center"/>
  <anchor x="368" y="700" name="top"/>
  <anchor x="428" y="700" name="topright"/>
  <outline>
    <contour>
      <point x="85" y="700" type="line"/>
      <point x="85" y="0" type="line"/>
      <point x="122" y="0" type="line"/>
      <point x="122" y="630" type="line"/>
      <point x="276" y="630" type="line" smooth="yes"/>
      <point x="358" y="630"/>
      <point x="403" y="585"/>
      <point x="403" y="503" type="curve" smooth="yes"/>
      <point x="403" y="200" type="line"/>
      <point x="440" y="200" type="line"/>
      <point x="440" y="507" type="line" smooth="yes"/>
      <point x="440" y="632"/>
      <point x="382" y="700"/>
      <point x="276" y="700" type="curve" smooth="yes"/>
    </contour>
    <contour>
      <point x="600" y="0" type="line"/>
      <point x="600" y="700" type="line"/>
      <point x="563" y="700" type="line"/>
      <point x="563" y="70" type="line"/>
      <point x="409" y="70" type="line" smooth="yes"/>
      <point x="327" y="70"/>
      <point x="282" y="115"/>
      <point x="282" y="197" type="curve" smooth="yes"/>
      <point x="282" y="500" type="line"/>
      <point x="245" y="500" type="line"/>
      <point x="245" y="193" type="line" smooth="yes"/>
      <point x="245" y="68"/>
      <point x="303" y="0"/>
      <point x="409" y="0" type="curve" smooth="yes"/>
    </contour>
  </outline>
</glyph>
<glyph name="euro" format="2">
  <advance width="694"/>
  <unicode hex="20AC"/>
  <anchor x="377" y="0" name="bottom"/>
  <anchor x="377" y="700" name="top"/>
  <outline>
    <contour>
      <point x="648" y="135" type="curve"/>
      <point x="600" y="232" type="line"/>
      <point x="579" y="124"/>
      <point x="504" y="57"/>
      <point x="402" y="57" type="curve" smooth="yes"/>
      <point x="267" y="57"/>
      <point x="185" y="169"/>
      <point x="185" y="353" type="curve" smooth="yes"/>
      <point x="185" y="536"/>
      <point x="267" y="648"/>
      <point x="402" y="648" type="curve" smooth="yes"/>
      <point x="501" y="648"/>
      <point x="575" y="585"/>
      <point x="598" y="481" type="curve"/>
      <point x="645" y="576" type="line"/>
      <point x="599" y="661"/>
      <point x="507" y="713"/>
      <point x="402" y="713" type="curve" smooth="yes"/>
      <point x="221" y="713"/>
      <point x="110" y="576"/>
      <point x="110" y="353" type="curve" smooth="yes"/>
      <point x="110" y="129"/>
      <point x="221" y="-8"/>
      <point x="402" y="-8" type="curve" smooth="yes"/>
      <point x="509" y="-8"/>
      <point x="603" y="46"/>
    </contour>
    <contour>
      <point x="10" y="431" type="line"/>
      <point x="10" y="396" type="line"/>
      <point x="558" y="396" type="line"/>
      <point x="573" y="431" type="line"/>
    </contour>
    <contour>
      <point x="10" y="315" type="line"/>
      <point x="10" y="280" type="line"/>
      <point x="513" y="280" type="line"/>
      <point x="528" y="315" type="line"/>
    </contour>
  </outline>
</glyph>
<glyph name="guarani" format="2">
  <advance width="678"/>
  <unicode hex="20B2"/>
  <anchor x="347" y="0" name="bottom"/>
  <anchor x="347" y="700" name="top"/>
  <outline>
    <contour>
      <point x="568" y="312" type="curve"/>
      <point x="543" y="312" type="line"/>
      <point x="541" y="130"/>
      <point x="449" y="57"/>
      <point x="347" y="57" type="curve" smooth="yes"/>
      <point x="210" y="57"/>
      <point x="115" y="181"/>
      <point x="115" y="353" type="curve" smooth="yes"/>
      <point x="115" y="525"/>
      <point x="214" y="648"/>
      <point x="352" y="648" type="curve" smooth="yes"/>
      <point x="454" y="648"/>
      <point x="542" y="579"/>
      <point x="568" y="451" type="curve"/>
      <point x="615" y="546" type="line"/>
      <point x="565" y="649"/>
      <point x="473" y="713"/>
      <point x="352" y="713" type="curve" smooth="yes"/>
      <point x="162" y="713"/>
      <point x="40" y="563"/>
      <point x="40" y="351" type="curve" smooth="yes"/>
      <point x="40" y="143"/>
      <point x="157" y="-8"/>
      <point x="330" y="-8" type="curve" smooth="yes"/>
      <point x="470" y="-8"/>
      <point x="566" y="98"/>
    </contour>
    <contour>
      <point x="543" y="0" type="line"/>
      <point x="618" y="0" type="line"/>
      <point x="618" y="390" type="line"/>
      <point x="348" y="390" type="line"/>
      <point x="348" y="325" type="line"/>
      <point x="543" y="325" type="line"/>
    </contour>
    <contour>
      <point x="334" y="-130" type="line"/>
      <point x="371" y="-130" type="line"/>
      <point x="371" y="840" type="line"/>
      <point x="334" y="840" type="line"/>
    </contour>
  </outline>
</glyph>
<glyph name="hryvnia" format="2">
  <advance width="697"/>
  <unicode hex="20B4"/>
  <anchor x="352" y="0" name="bottom"/>
  <anchor x="352" y="700" name="top"/>
  <outline>
    <contour>
      <point x="391" y="415" type="curve"/>
      <point x="518" y="415" type="line"/>
      <point x="559" y="443"/>
      <point x="578" y="487"/>
      <point x="578" y="537" type="curve" smooth="yes"/>
      <point x="578" y="652"/>
      <point x="476" y="712"/>
      <point x="355" y="712" type="curve" smooth="yes"/>
      <point x="230" y="712"/>
      <point x="143" y="648"/>
      <point x="119" y="533" type="curve"/>
      <point x="189" y="450" type="line"/>
      <point x="183" y="598"/>
      <point x="275" y="656"/>
      <point x="359" y="656" type="curve" smooth="yes"/>
      <point x="430" y="656"/>
      <point x="501" y="615"/>
      <point x="501" y="534" type="curve" smooth="yes"/>
      <point x="501" y="469"/>
      <point x="454" y="437"/>
    </contour>
    <contour>
      <point x="42" y="432" type="line"/>
      <point x="42" y="397" type="line"/>
      <point x="655" y="397" type="line"/>
      <point x="655" y="432" type="line"/>
    </contour>
    <contour>
      <point x="42" y="322" type="line"/>
      <point x="42" y="287" type="line"/>
      <point x="655" y="287" type="line"/>
      <point x="655" y="322" type="line"/>
    </contour>
    <contour>
      <point x="232" y="299" type="curve"/>
      <point x="136" y="299" type="line"/>
      <point x="111" y="272"/>
      <point x="95" y="231"/>
      <point x="95" y="184" type="curve" smooth="yes"/>
      <point x="95" y="58"/>
      <point x="210" y="-10"/>
      <point x="353" y="-10" type="curve" smooth="yes"/>
      <point x="505" y="-10"/>
      <point x="596" y="67"/>
      <point x="620" y="183" type="curve"/>
      <point x="550" y="266" type="line"/>
      <point x="555" y="111"/>
      <point x="453" y="50"/>
      <point x="346" y="50" type="curve" smooth="yes"/>
      <point x="255" y="50"/>
      <point x="172" y="94"/>
      <point x="172" y="190" type="curve" smooth="yes"/>
      <point x="172" y="244"/>
      <point x="199" y="279"/>
    </contour>
  </outline>
</glyph>
<glyph name="rupeeIndian" format="2">
  <advance width="594"/>
  <unicode hex="20B9"/>
  <anchor x="192" y="0" name="bottom"/>
  <anchor x="192" y="700" name="top"/>
  <outline>
    <contour>
      <point x="32" y="700" type="line"/>
      <point x="32" y="665" type="line"/>
      <point x="573" y="665" type="line"/>
      <point x="573" y="700" type="line"/>
    </contour>
    <contour>
      <point x="32" y="541" type="line"/>
      <point x="32" y="506" type="line"/>
      <point x="573" y="506" type="line"/>
      <point x="573" y="541" type="line"/>
    </contour>
    <contour>
      <point x="32" y="350" type="line"/>
      <point x="245" y="350" type="line"/>
      <point x="255" y="360" type="line"/>
      <point x="389" y="360"/>
      <point x="457" y="429"/>
      <point x="457" y="532" type="curve" smooth="yes"/>
      <point x="457" y="636"/>
      <point x="380" y="700"/>
      <point x="255" y="700" type="curve" smooth="yes"/>
      <point x="32" y="700" type="line"/>
      <point x="32" y="635" type="line"/>
      <point x="255" y="635" type="line" smooth="yes"/>
      <point x="334" y="635"/>
      <point x="382" y="593"/>
      <point x="382" y="524" type="curve" smooth="yes"/>
      <point x="382" y="457"/>
      <point x="334" y="415"/>
      <point x="255" y="415" type="curve" smooth="yes"/>
      <point x="32" y="415" type="line"/>
    </contour>
    <contour>
      <point x="392" y="0" type="curve"/>
      <point x="488" y="0" type="line"/>
      <point x="432" y="37"/>
      <point x="420" y="104"/>
      <point x="420" y="174" type="curve" smooth="yes"/>
      <point x="420" y="199" type="line" smooth="yes"/>
      <point x="420" y="349"/>
      <point x="358" y="385"/>
      <point x="188" y="385" type="curve" smooth="yes"/>
      <point x="150" y="385" type="line"/>
      <point x="150" y="350" type="line"/>
      <point x="188" y="350" type="line" smooth="yes"/>
      <point x="277" y="350"/>
      <point x="349" y="326"/>
      <point x="344" y="199" type="curve" smooth="yes"/>
      <point x="343" y="174" type="line" smooth="yes"/>
      <point x="340" y="105"/>
      <point x="349" y="37"/>
    </contour>
  </outline>
</glyph>
<glyph name="liraTurkish" format="2">
  <advance width="659"/>
  <unicode hex="20BA"/>
  <outline>
    <contour>
      <point x="156" y="0" type="line"/>
      <point x="229" y="0" type="line" smooth="yes"/>
      <point x="468" y="0"/>
      <point x="619" y="134"/>
      <point x="619" y="348" type="curve"/>
      <point x="554" y="348" type="line"/>
      <point x="554" y="174"/>
      <point x="429" y="65"/>
      <point x="231" y="65" type="curve"/>
      <point x="231" y="700" type="line"/>
      <point x="156" y="700" type="line"/>
    </contour>
    <contour>
      <point x="40" y="288" type="line"/>
      <point x="40" y="250" type="line"/>
      <point x="483" y="426" type="line"/>
      <point x="483" y="464" type="line"/>
    </contour>
    <contour>
      <point x="40" y="415" type="line"/>
      <point x="40" y="377" type="line"/>
      <point x="483" y="553" type="line"/>
      <point x="483" y="591" type="line"/>
    </contour>
  </outline>
</glyph>
<glyph name="ruble" format="2">
  <advance width="686"/>
  <unicode hex="20BD"/>
  <outline>
    <contour>
      <point x="194" y="700" type="line"/>
      <point x="194" y="635" type="line"/>
      <point x="414" y="635" type="line" smooth="yes"/>
      <point x="511" y="635"/>
      <point x="571" y="586"/>
      <point x="571" y="506" type="curve" smooth="yes"/>
      <point x="571" y="425"/>
      <point x="511" y="375"/>
      <point x="414" y="375" type="curve" smooth="yes"/>
      <point x="194" y="375" type="line"/>
      <point x="194" y="310" type="line"/>
      <point x="414" y="310" type="line" smooth="yes"/>
      <point x="558" y="310"/>
      <point x="646" y="384"/>
      <point x="646" y="506" type="curve" smooth="yes"/>
      <point x="646" y="626"/>
      <point x="558" y="700"/>
      <point x="414" y="700" type="curve" smooth="yes"/>
    </contour>
    <contour>
      <point x="157" y="0" type="line"/>
      <point x="232" y="0" type="line"/>
      <point x="232" y="700" type="line"/>
      <point x="157" y="700" type="line"/>
    </contour>
    <contour>
      <point x="40" y="345" type="line"/>
      <point x="40" y="310" type="line"/>
      <point x="413" y="310" type="line"/>
      <point x="413" y="345" type="line"/>
    </contour>
    <contour>
      <point x="40" y="235" type="line"/>
      <point x="40" y="200" type="line"/>
      <point x="463" y="200" type="line"/>
      <point x="463" y="235" type="line"/>
    </contour>
  </outline>
</glyph>
<glyph name="published" format="2">
  <advance width="519"/>
  <unicode hex="2117"/>
  <anchor x="209" y="0" name="bottom"/>
  <anchor x="209" y="700" name="top"/>
  <outline>
    <contour>
      <point x="259" y="274" type="curve" smooth="yes"/>
      <point x="378" y="274"/>
      <point x="471" y="367"/>
      <point x="471" y="486" type="curve" smooth="yes"/>
      <point x="471" y="605"/>
      <point x="378" y="697"/>
      <point x="259" y="697" type="curve" smooth="yes"/>
      <point x="140" y="697"/>
      <point x="47" y="605"/>
      <point x="47" y="486" type="curve" smooth="yes"/>
      <point x="47" y="367"/>
      <point x="140" y="274"/>
    </contour>
    <contour>
      <point x="197" y="477" type="line"/>
      <point x="293" y="477" type="line" smooth="yes"/>
      <point x="334" y="477"/>
      <point x="361" y="502"/>
      <point x="361" y="538" type="curve" smooth="yes"/>
      <point x="361" y="575"/>
      <point x="334" y="600"/>
      <point x="294" y="600" type="curve" smooth="yes"/>
      <point x="197" y="600" type="line"/>
      <point x="197" y="568" type="line"/>
      <point x="294" y="568" type="line" smooth="yes"/>
      <point x="313" y="568"/>
      <point x="326" y="556"/>
      <point x="326" y="538" type="curve" smooth="yes"/>
      <point x="326" y="520"/>
      <point x="313" y="508"/>
      <point x="294" y="508" type="curve" smooth="yes"/>
      <point x="197" y="508" type="line"/>
    </contour>
    <contour>
      <point x="186" y="378" type="line"/>
      <point x="220" y="378" type="line"/>
      <point x="220" y="600" type="line"/>
      <point x="186" y="600" type="line"/>
    </contour>
  </outline>
</glyph>
<glyph name="trademark" format="2">
  <advance width="706"/>
  <unicode hex="2122"/>
  <anchor x="352" y="0" name="bottom"/>
  <anchor x="352" y="350" name="center"/>
  <anchor x="352" y="700" name="top"/>
  <outline>
    <contour>
      <point x="175" y="704" type="line"/>
      <point x="139" y="704" type="line"/>
      <point x="139" y="422" type="line"/>
      <point x="175" y="422" type="line"/>
    </contour>
    <contour>
      <point x="299" y="704" type="line"/>
      <point x="20" y="704" type="line"/>
      <point x="20" y="673" type="line"/>
      <point x="299" y="673" type="line"/>
    </contour>
    <contour>
      <point x="483" y="484" type="line"/>
      <point x="585" y="658" type="line"/>
      <point x="585" y="422" type="line"/>
      <point x="621" y="422" type="line"/>
      <point x="621" y="704" type="line"/>
      <point x="575" y="704" type="line"/>
      <point x="473" y="528" type="line"/>
      <point x="493" y="528" type="line"/>
      <point x="392" y="704" type="line"/>
      <point x="344" y="704" type="line"/>
      <point x="344" y="422" type="line"/>
      <point x="380" y="422" type="line"/>
      <point x="380" y="658" type="line"/>
    </contour>
  </outline>
</glyph>
<glyph name="upArrow" format="2">
  <advance width="442"/>
  <unicode hex="2191"/>
  <outline>
    <contour>
      <point x="192" y="0" type="line"/>
      <point x="251" y="0" type="line"/>
      <point x="251" y="632" type="line"/>
      <point x="192" y="632" type="line"/>
    </contour>
    <contour>
      <point x="85" y="561" type="line"/>
      <point x="357" y="561" type="line"/>
      <point x="221" y="722" type="line"/>
    </contour>
  </outline>
</glyph>
<glyph name="rightArrow" format="2">
  <advance width="713"/>
  <unicode hex="2192"/>
  <outline>
    <contour>
      <point x="60" y="300" type="line"/>
      <point x="60" y="241" type="line"/>
      <point x="573" y="241" type="line"/>
      <point x="573" y="300" type="line"/>
    </contour>
    <contour>
      <point x="502" y="407" type="line"/>
      <point x="502" y="135" type="line"/>
      <point x="663" y="271" type="line"/>
    </contour>
  </outline>
</glyph>
<glyph name="upDownArrow" format="2">
  <advance width="442"/>
  <unicode hex="2195"/>
  <outline>
    <contour>
      <point x="85" y="561" type="line"/>
      <point x="191" y="561" type="line"/>
      <point x="191" y="139" type="line"/>
      <point x="85" y="139" type="line"/>
      <point x="221" y="-22" type="line"/>
      <point x="357" y="139" type="line"/>
      <point x="251" y="139" type="line"/>
      <point x="251" y="561" type="line"/>
      <point x="357" y="561" type="line"/>
      <point x="221" y="722" type="line"/>
    </contour>
  </outline>
</glyph>
<glyph name="northEastArrow" format="2">
  <advance width="510"/>
  <unicode hex="2197"/>
  <outline>
    <contour>
      <point x="212" y="700" type="line"/>
      <point x="425" y="487" type="line"/>
      <point x="425" y="700" type="line"/>
    </contour>
    <contour>
      <point x="85" y="188" type="curve" smooth="yes"/>
      <point x="85" y="0" type="line"/>
      <point x="144" y="0" type="line"/>
      <point x="144" y="188" type="line" smooth="yes"/>
      <point x="144" y="314"/>
      <point x="189" y="424"/>
      <point x="276" y="510" type="curve" smooth="yes"/>
      <point x="377" y="610" type="line"/>
      <point x="335" y="652" type="line"/>
      <point x="237" y="555" type="line" smooth="yes"/>
      <point x="137" y="456"/>
      <point x="85" y="343"/>
    </contour>
  </outline>
</glyph>
<glyph name="partialdiff" format="2">
  <advance width="609"/>
  <unicode hex="2202"/>
  <anchor x="410" y="600" name="_center"/>
  <outline>
    <contour>
      <point x="288" y="-10" type="curve" smooth="yes"/>
      <point x="457" y="-10"/>
      <point x="542" y="149"/>
      <point x="542" y="328" type="curve" smooth="yes"/>
      <point x="542" y="589"/>
      <point x="361" y="708"/>
      <point x="166" y="708" type="curve"/>
      <point x="166" y="678" type="line"/>
      <point x="324" y="680"/>
      <point x="507" y="582"/>
      <point x="507" y="327" type="curve" smooth="yes"/>
      <point x="507" y="301"/>
      <point x="505" y="245"/>
      <point x="493" y="210" type="curve"/>
      <point x="506" y="242" type="line"/>
      <point x="517" y="384"/>
      <point x="427" y="487"/>
      <point x="285" y="487" type="curve" smooth="yes"/>
      <point x="146" y="487"/>
      <point x="53" y="389"/>
      <point x="53" y="245" type="curve" smooth="yes"/>
      <point x="53" y="100"/>
      <point x="148" y="-10"/>
    </contour>
    <contour>
      <point x="485" y="240" type="curve" smooth="yes"/>
      <point x="485" y="113"/>
      <point x="408" y="24"/>
      <point x="290" y="24" type="curve" smooth="yes"/>
      <point x="174" y="24"/>
      <point x="93" y="112"/>
      <point x="93" y="244" type="curve" smooth="yes"/>
      <point x="93" y="370"/>
      <point x="167" y="454"/>
      <point x="285" y="454" type="curve" smooth="yes"/>
      <point x="404" y="454"/>
      <point x="485" y="370"/>
    </contour>
  </outline>
</glyph>
<glyph name="increment" format="2">
  <advance width="653"/>
  <unicode hex="2206"/>
  <anchor x="303" y="0" name="bottom"/>
  <anchor x="662" y="0" name="ogonek"/>
  <anchor x="303" y="700" name="top"/>
  <outline>
    <contour>
      <point x="42" y="0" type="line"/>
      <point x="81" y="0" type="line"/>
      <point x="341" y="700" type="line"/>
      <point x="302" y="700" type="line"/>
    </contour>
    <contour>
      <point x="611" y="0" type="line"/>
      <point x="351" y="700" type="line"/>
      <point x="312" y="700" type="line"/>
      <point x="572" y="0" type="line"/>
    </contour>
    <contour>
      <point x="70" y="35" type="line"/>
      <point x="70" y="0" type="line"/>
      <point x="583" y="0" type="line"/>
      <point x="583" y="35" type="line"/>
    </contour>
  </outline>
</glyph>
<glyph name="product" format="2">
  <advance width="765"/>
  <unicode hex="220F"/>
  <anchor x="228" y="0" name="bottom"/>
  <anchor x="228" y="350" name="center"/>
  <anchor x="228" y="700" name="top"/>
  <outline>
    <contour>
      <point x="745" y="700" type="line"/>
      <point x="20" y="700" type="line"/>
      <point x="20" y="635" type="line"/>
      <point x="188" y="635" type="line"/>
      <point x="188" y="0" type="line"/>
      <point x="263" y="0" type="line"/>
      <point x="263" y="635" type="line"/>
      <point x="502" y="635" type="line"/>
      <point x="502" y="0" type="line"/>
      <point x="577" y="0" type="line"/>
      <point x="577" y="635" type="line"/>
      <point x="745" y="635" type="line"/>
    </contour>
  </outline>
</glyph>
<glyph name="summation" format="2">
  <advance width="576"/>
  <unicode hex="2211"/>
  <anchor x="308" y="0" name="bottom"/>
  <anchor x="308" y="350" name="center"/>
  <anchor x="308" y="700" name="top"/>
  <outline>
    <contour>
      <point x="40" y="0" type="line"/>
      <point x="556" y="0" type="line"/>
      <point x="556" y="65" type="line"/>
      <point x="132" y="65" type="line"/>
      <point x="350" y="350" type="line"/>
      <point x="132" y="635" type="line"/>
      <point x="556" y="635" type="line"/>
      <point x="556" y="700" type="line"/>
      <point x="40" y="700" type="line"/>
      <point x="40" y="645" type="line"/>
      <point x="266" y="350" type="line"/>
      <point x="40" y="55" type="line"/>
    </contour>
  </outline>
</glyph>
<glyph name="radical" format="2">
  <advance width="785"/>
  <unicode hex="221A"/>
  <outline>
    <contour>
      <point x="47" y="505" type="move"/>
      <point x="207" y="30" type="line"/>
      <point x="208" y="30" type="line"/>
      <point x="438" y="703" type="line"/>
      <point x="765" y="703" type="line"/>
    </contour>
  </outline>
</glyph>
<glyph name="infinity" format="2">
  <advance width="1172"/>
  <unicode hex="221E"/>
  <anchor x="302" y="0" name="bottom"/>
  <anchor x="302" y="250" name="center"/>
  <anchor x="560" y="10" name="ogonek"/>
  <anchor x="302" y="500" name="top"/>
  <anchor x="604" y="500" name="topright"/>
  <outline>
    <contour>
      <point x="302" y="55" type="curve" smooth="yes"/>
      <point x="195" y="55"/>
      <point x="118" y="137"/>
      <point x="118" y="250" type="curve" smooth="yes"/>
      <point x="118" y="363"/>
      <point x="195" y="444"/>
      <point x="302" y="444" type="curve" smooth="yes"/>
      <point x="409" y="444"/>
      <point x="486" y="363"/>
      <point x="586" y="250" type="curve"/>
      <point x="486" y="137"/>
      <point x="409" y="55"/>
    </contour>
    <contour>
      <point x="870" y="55" type="curve" smooth="yes"/>
      <point x="763" y="55"/>
      <point x="686" y="137"/>
      <point x="586" y="250" type="curve"/>
      <point x="686" y="363"/>
      <point x="763" y="444"/>
      <point x="870" y="444" type="curve" smooth="yes"/>
      <point x="977" y="444"/>
      <point x="1054" y="363"/>
      <point x="1054" y="250" type="curve" smooth="yes"/>
      <point x="1054" y="137"/>
      <point x="977" y="55"/>
    </contour>
  </outline>
</glyph>
<glyph name="integral" format="2">
  <advance width="448"/>
  <unicode hex="222B"/>
  <anchor x="-89" y="-200" name="bottom"/>
  <anchor x="-89" y="708" name="top"/>
  <outline>
    <contour>
      <point x="5" y="-182" type="move"/>
      <point x="136" y="-208"/>
      <point x="224" y="-122"/>
      <point x="224" y="8" type="curve"/>
      <point x="224" y="597" type="line"/>
      <point x="224" y="727"/>
      <point x="312" y="813"/>
      <point x="443" y="786" type="curve"/>
    </contour>
  </outline>
</glyph>
<glyph name="notequal" format="2">
  <advance width="573"/>
  <unicode hex="2260"/>
  <outline>
    <contour>
      <point x="60" y="178" type="line"/>
      <point x="60" y="143" type="line"/>
      <point x="513" y="143" type="line"/>
      <point x="513" y="178" type="line"/>
    </contour>
    <contour>
      <point x="60" y="398" type="line"/>
      <point x="60" y="363" type="line"/>
      <point x="513" y="363" type="line"/>
      <point x="513" y="398" type="line"/>
    </contour>
    <contour>
      <point x="70" y="35" type="line"/>
      <point x="114" y="35" type="line"/>
      <point x="502" y="500" type="line"/>
      <point x="458" y="500" type="line"/>
    </contour>
  </outline>
</glyph>
<glyph name="blackSquare" format="2">
  <advance width="870"/>
  <unicode hex="25A0"/>
  <anchor x="435" y="158" name="circled"/>
  <outline>
    <contour>
      <point x="85" y="700" type="line"/>
      <point x="85" y="0" type="line"/>
      <point x="785" y="0" type="line"/>
      <point x="785" y="700" type="line"/>
    </contour>
  </outline>
</glyph>
<glyph name="lozenge" format="2">
  <advance width="518"/>
  <unicode hex="25CA"/>
  <outline>
    <contour>
      <point x="443" y="346" type="line"/>
      <point x="261" y="0" type="line"/>
      <point x="257" y="0" type="line"/>
      <point x="75" y="346" type="line"/>
      <point x="257" y="692" type="line"/>
      <point x="261" y="692" type="line"/>
    </contour>
  </outline>
</glyph>
<glyph name="whiteCircle" format="2">
  <advance width="868"/>
  <unicode hex="25CB"/>
  <anchor x="434" y="161" name="circled"/>
  <outline>
    <contour>
      <point x="434" y="-8" type="curve" smooth="yes"/>
      <point x="637" y="-8"/>
      <point x="796" y="151"/>
      <point x="796" y="353" type="curve" smooth="yes"/>
      <point x="796" y="555"/>
      <point x="637" y="713"/>
      <point x="434" y="713" type="curve" smooth="yes"/>
      <point x="231" y="713"/>
      <point x="72" y="555"/>
      <point x="72" y="353" type="curve" smooth="yes"/>
      <point x="72" y="151"/>
      <point x="231" y="-8"/>
    </contour>
  </outline>
</glyph>
<glyph name="dottedCircle" format="2">
  <advance width="860"/>
  <unicode hex="25CC"/>
  <anchor x="430" y="161" name="circled"/>
  <outline>
    <contour>
      <point x="148" y="582" type="move"/>
      <point x="105" y="529"/>
      <point x="77" y="464"/>
      <point x="70" y="391" type="curve"/>
    </contour>
    <contour>
      <point x="70" y="313" type="move"/>
      <point x="78" y="240"/>
      <point x="107" y="173"/>
      <point x="151" y="120" type="curve"/>
    </contour>
    <contour>
      <point x="391" y="711" type="move"/>
      <point x="321" y="704"/>
      <point x="257" y="677"/>
      <point x="205" y="637" type="curve"/>
    </contour>
    <contour>
      <point x="207" y="66" type="move"/>
      <point x="259" y="27"/>
      <point x="322" y="1"/>
      <point x="391" y="-6" type="curve"/>
    </contour>
    <contour>
      <point x="469" y="-6" type="move"/>
      <point x="541" y="1"/>
      <point x="606" y="29"/>
      <point x="659" y="71" type="curve"/>
    </contour>
    <contour>
      <point x="662" y="631" type="move"/>
      <point x="609" y="675"/>
      <point x="543" y="704"/>
      <point x="469" y="711" type="curve"/>
    </contour>
    <contour>
      <point x="715" y="127" type="move"/>
      <point x="756" y="179"/>
      <point x="782" y="243"/>
      <point x="790" y="313" type="curve"/>
    </contour>
    <contour>
      <point x="790" y="391" type="move"/>
      <point x="783" y="461"/>
      <point x="757" y="524"/>
      <point x="717" y="576" type="curve"/>
    </contour>
  </outline>
</glyph>
<glyph name="blackCircle" format="2">
  <advance width="868"/>
  <unicode hex="25CF"/>
  <anchor x="434" y="158" name="circled"/>
  <outline>
    <contour>
      <point x="434" y="-24" type="curve"/>
      <point x="649" y="-24"/>
      <point x="816" y="143"/>
      <point x="816" y="353" type="curve"/>
      <point x="816" y="563"/>
      <point x="649" y="730"/>
      <point x="434" y="730" type="curve"/>
      <point x="219" y="730"/>
      <point x="52" y="563"/>
      <point x="52" y="353" type="curve"/>
      <point x="52" y="143"/>
      <point x="219" y="-24"/>
    </contour>
  </outline>
</glyph>
<glyph name="whiteSmilingFace" format="2">
  <advance width="868"/>
  <unicode hex="263A"/>
  <outline>
    <contour>
      <point x="434" y="-8" type="curve" smooth="yes"/>
      <point x="637" y="-8"/>
      <point x="796" y="151"/>
      <point x="796" y="353" type="curve" smooth="yes"/>
      <point x="796" y="555"/>
      <point x="637" y="713"/>
      <point x="434" y="713" type="curve" smooth="yes"/>
      <point x="231" y="713"/>
      <point x="72" y="555"/>
      <point x="72" y="353" type="curve" smooth="yes"/>
      <point x="72" y="151"/>
      <point x="231" y="-8"/>
    </contour>
    <contour>
      <point x="343" y="322" type="curve" smooth="yes"/>
      <point x="366" y="322"/>
      <point x="379" y="367"/>
      <point x="379" y="444" type="curve" smooth="yes"/>
      <point x="379" y="521"/>
      <point x="366" y="566"/>
      <point x="343" y="566" type="curve" smooth="yes"/>
      <point x="320" y="566"/>
      <point x="307" y="521"/>
      <point x="307" y="444" type="curve" smooth="yes"/>
      <point x="307" y="367"/>
      <point x="320" y="322"/>
    </contour>
    <contour>
      <point x="211" y="204" type="move"/>
      <point x="258" y="204"/>
      <point x="295" y="241"/>
      <point x="295" y="289" type="curve" smooth="yes"/>
    </contour>
    <contour>
      <point x="269" y="232" type="move"/>
      <point x="314" y="180"/>
      <point x="370" y="161"/>
      <point x="430" y="161" type="curve" smooth="yes"/>
      <point x="490" y="161"/>
      <point x="546" y="180"/>
      <point x="591" y="232" type="curve"/>
    </contour>
    <contour>
      <point x="649" y="204" type="move"/>
      <point x="602" y="204"/>
      <point x="565" y="241"/>
      <point x="565" y="289" type="curve" smooth="yes"/>
    </contour>
    <contour>
      <point x="518" y="322" type="curve" smooth="yes"/>
      <point x="541" y="322"/>
      <point x="554" y="367"/>
      <point x="554" y="444" type="curve" smooth="yes"/>
      <point x="554" y="521"/>
      <point x="541" y="566"/>
      <point x="518" y="566" type="curve" smooth="yes"/>
      <point x="495" y="566"/>
      <point x="482" y="521"/>
      <point x="482" y="444" type="curve" smooth="yes"/>
      <point x="482" y="367"/>
      <point x="495" y="322"/>
    </contour>
  </outline>
</glyph>
<glyph name="Saltillo" format="2">
  <advance width="265"/>
  <unicode hex="A78B"/>
  <anchor x="23" y="0" name="#entry"/>
  <anchor x="183" y="0" name="#exit"/>
  <outline>
    <contour>
      <point x="113" y="331" type="line"/>
      <point x="153" y="331" type="line"/>
      <point x="180" y="700" type="line"/>
      <point x="85" y="700" type="line"/>
    </contour>
  </outline>
</glyph>
<glyph name="apple" format="2">
  <advance width="1291"/>
  <unicode hex="F8FF"/>
  <anchor x="412" y="0" name="bottom"/>
  <anchor x="412" y="350" name="center"/>
  <anchor x="742" y="10" name="ogonek"/>
  <anchor x="412" y="700" name="top"/>
  <anchor x="20" y="700" name="topleft"/>
  <anchor x="804" y="700" name="topright"/>
  <outline>
    <contour>
      <point x="1241" y="353" type="curve" smooth="yes"/>
      <point x="1241" y="151"/>
      <point x="1085" y="-7"/>
      <point x="871" y="-7" type="curve" smooth="yes"/>
      <point x="705" y="-7"/>
      <point x="567" y="89"/>
      <point x="567" y="215" type="curve" smooth="yes"/>
      <point x="567" y="350"/>
      <point x="724" y="350"/>
      <point x="724" y="215" type="curve" smooth="yes"/>
      <point x="724" y="89"/>
      <point x="586" y="-7"/>
      <point x="420" y="-7" type="curve" smooth="yes"/>
      <point x="206" y="-7"/>
      <point x="50" y="151"/>
      <point x="50" y="353" type="curve" smooth="yes"/>
      <point x="50" y="555"/>
      <point x="206" y="713"/>
      <point x="420" y="713" type="curve" smooth="yes"/>
      <point x="586" y="713"/>
      <point x="724" y="617"/>
      <point x="724" y="491" type="curve" smooth="yes"/>
      <point x="724" y="356"/>
      <point x="567" y="356"/>
      <point x="567" y="491" type="curve" smooth="yes"/>
      <point x="567" y="617"/>
      <point x="705" y="713"/>
      <point x="871" y="713" type="curve" smooth="yes"/>
      <point x="1085" y="713"/>
      <point x="1241" y="555"/>
    </contour>
  </outline>
</glyph>
<glyph name="fi" format="2">
  <advance width="614"/>
  <unicode hex="FB01"/>
  <anchor x="135" y="0" name="#entry"/>
  <outline>
    <contour>
      <point x="135" y="611" type="curve" smooth="yes"/>
      <point x="135" y="0" type="line"/>
      <point x="207" y="0" type="line"/>
      <point x="207" y="601" type="line" smooth="yes"/>
      <point x="207" y="701"/>
      <point x="256" y="748"/>
      <point x="333" y="748" type="curve" smooth="yes"/>
      <point x="393" y="748"/>
      <point x="459" y="703"/>
      <point x="446" y="610" type="curve"/>
      <point x="513" y="676" type="line"/>
      <point x="500" y="751"/>
      <point x="428" y="807"/>
      <point x="332" y="807" type="curve" smooth="yes"/>
      <point x="214" y="807"/>
      <point x="135" y="740"/>
    </contour>
    <contour>
      <point x="30" y="441" type="line"/>
      <point x="513" y="441" type="line"/>
      <point x="513" y="500" type="line"/>
      <point x="30" y="500" type="line"/>
    </contour>
    <contour>
      <point x="468" y="0" type="line"/>
      <point x="540" y="0" type="line"/>
      <point x="540" y="500" type="line"/>
      <point x="468" y="500" type="line"/>
    </contour>
  </outline>
</glyph>
<glyph name="fl" format="2">
  <advance width="614"/>
  <unicode hex="FB02"/>
  <anchor x="135" y="0" name="#entry"/>
  <anchor x="540" y="0" name="#exit"/>
  <anchor x="580" y="800" name="topright"/>
  <outline>
    <contour>
      <point x="468" y="0" type="line"/>
      <point x="540" y="0" type="line"/>
      <point x="540" y="591" type="line" smooth="yes"/>
      <point x="540" y="723"/>
      <point x="466" y="803"/>
      <point x="339" y="807" type="curve" smooth="yes"/>
      <point x="210" y="807"/>
      <point x="135" y="727"/>
      <point x="135" y="591" type="curve" smooth="yes"/>
      <point x="135" y="0" type="line"/>
      <point x="207" y="0" type="line"/>
      <point x="207" y="591" type="line" smooth="yes"/>
      <point x="207" y="690"/>
      <point x="256" y="748"/>
      <point x="340" y="748" type="curve" smooth="yes"/>
      <point x="421" y="748"/>
      <point x="468" y="690"/>
      <point x="468" y="591" type="curve" smooth="yes"/>
    </contour>
    <contour>
      <point x="30" y="441" type="line"/>
      <point x="512" y="441" type="line"/>
      <point x="512" y="500" type="line"/>
      <point x="30" y="500" type="line"/>
    </contour>
  </outline>
</glyph>
<glyph name="parenleft-ar" format="2">
  <advance width="625"/>
  <unicode hex="FD3E"/>
  <outline>
    <contour>
      <point x="214" y="100" type="line"/>
      <point x="251" y="100" type="line"/>
      <point x="251" y="500" type="line"/>
      <point x="214" y="500" type="line"/>
    </contour>
    <contour>
      <point x="66" y="413" type="line"/>
      <point x="50" y="384" type="line"/>
      <point x="396" y="184" type="line"/>
      <point x="412" y="213" type="line"/>
    </contour>
    <contour>
      <point x="396" y="413" type="line"/>
      <point x="50" y="213" type="line"/>
      <point x="66" y="184" type="line"/>
      <point x="412" y="384" type="line"/>
    </contour>
    <contour>
      <point x="233" y="240" type="curve" smooth="yes"/>
      <point x="266" y="240"/>
      <point x="293" y="267"/>
      <point x="293" y="301" type="curve" smooth="yes"/>
      <point x="293" y="334"/>
      <point x="266" y="361"/>
      <point x="233" y="361" type="curve" smooth="yes"/>
      <point x="199" y="361"/>
      <point x="172" y="334"/>
      <point x="172" y="301" type="curve" smooth="yes"/>
      <point x="172" y="267"/>
      <point x="199" y="240"/>
    </contour>
    <contour>
      <point x="238" y="550" type="move"/>
      <point x="308" y="693"/>
      <point x="436" y="787"/>
      <point x="587" y="800" type="curve"/>
    </contour>
    <contour>
      <point x="587" y="-200" type="move"/>
      <point x="436" y="-187"/>
      <point x="308" y="-93"/>
      <point x="238" y="50" type="curve"/>
    </contour>
  </outline>
</glyph>
<glyph name="_b.rightsidelig" format="2">
  <advance width="528"/>
  <anchor x="41" y="0" name="#entry"/>
  <outline>
    <contour>
      <point x="41" y="250" type="curve"/>
      <point x="0" y="250" type="line"/>
      <point x="0" y="100"/>
      <point x="103" y="-8"/>
      <point x="243" y="-8" type="curve" smooth="yes"/>
      <point x="383" y="-8"/>
      <point x="485" y="100"/>
      <point x="485" y="250" type="curve" smooth="yes"/>
      <point x="485" y="399"/>
      <point x="383" y="507"/>
      <point x="243" y="507" type="curve" smooth="yes"/>
      <point x="103" y="507"/>
      <point x="0" y="399"/>
      <point x="0" y="250" type="curve"/>
      <point x="41" y="250" type="line"/>
      <point x="41" y="365"/>
      <point x="119" y="447"/>
      <point x="226" y="447" type="curve" smooth="yes"/>
      <point x="333" y="447"/>
      <point x="410" y="365"/>
      <point x="410" y="250" type="curve" smooth="yes"/>
      <point x="410" y="135"/>
      <point x="333" y="52"/>
      <point x="226" y="52" type="curve" smooth="yes"/>
      <point x="119" y="52"/>
      <point x="41" y="135"/>
    </contour>
  </outline>
</glyph>
<glyph name="_f.rightsidelig" format="2">
  <advance width="525"/>
  <anchor x="468" y="0" name="#exit"/>
  <outline>
    <contour>
      <point x="135" y="561" type="curve" smooth="yes"/>
      <point x="135" y="0" type="line"/>
      <point x="207" y="0" type="line"/>
      <point x="207" y="561" type="line" smooth="yes"/>
      <point x="207" y="668"/>
      <point x="260" y="718"/>
      <point x="342" y="718" type="curve" smooth="yes"/>
      <point x="409" y="718"/>
      <point x="468" y="680"/>
      <point x="468" y="581" type="curve"/>
      <point x="525" y="647" type="line"/>
      <point x="519" y="722"/>
      <point x="436" y="777"/>
      <point x="339" y="777" type="curve" smooth="yes"/>
      <point x="220" y="777"/>
      <point x="135" y="696"/>
    </contour>
    <contour>
      <point x="30" y="441" type="line"/>
      <point x="442" y="441" type="line"/>
      <point x="442" y="500" type="line"/>
      <point x="30" y="500" type="line"/>
    </contour>
  </outline>
</glyph>
<glyph name="_g.lowear" format="2">
  <advance width="615"/>
  <anchor x="305" y="-200" name="bottom"/>
  <anchor x="305" y="500" name="top"/>
  <outline>
    <contour>
      <point x="103" y="27" type="curve"/>
      <point x="32" y="-40" type="line"/>
      <point x="40" y="-137"/>
      <point x="145" y="-209"/>
      <point x="310" y="-209" type="curve" smooth="yes"/>
      <point x="453" y="-209"/>
      <point x="590" y="-153"/>
      <point x="590" y="-33" type="curve" smooth="yes"/>
      <point x="590" y="87"/>
      <point x="466" y="100"/>
      <point x="366" y="85" type="curve" smooth="yes"/>
      <point x="235" y="66" type="line" smooth="yes"/>
      <point x="196" y="60"/>
      <point x="122" y="54"/>
      <point x="122" y="113" type="curve" smooth="yes"/>
      <point x="122" y="152"/>
      <point x="158" y="172"/>
      <point x="206" y="172" type="curve" smooth="yes"/>
      <point x="245" y="172"/>
      <point x="268" y="164"/>
      <point x="311" y="164" type="curve" smooth="yes"/>
      <point x="439" y="164"/>
      <point x="515" y="236"/>
      <point x="515" y="336" type="curve" smooth="yes"/>
      <point x="515" y="435"/>
      <point x="439" y="507"/>
      <point x="312" y="507" type="curve" smooth="yes"/>
      <point x="189" y="507"/>
      <point x="109" y="435"/>
      <point x="109" y="336" type="curve" smooth="yes"/>
      <point x="109" y="267"/>
      <point x="146" y="211"/>
      <point x="206" y="184" type="curve"/>
      <point x="224" y="195" type="line"/>
      <point x="155" y="223"/>
      <point x="52" y="194"/>
      <point x="52" y="102" type="curve" smooth="yes"/>
      <point x="52" y="-1"/>
      <point x="175" y="-10"/>
      <point x="242" y="0" type="curve" smooth="yes"/>
      <point x="363" y="18" type="line" smooth="yes"/>
      <point x="437" y="29"/>
      <point x="521" y="32"/>
      <point x="521" y="-39" type="curve" smooth="yes"/>
      <point x="521" y="-113"/>
      <point x="416" y="-149"/>
      <point x="310" y="-149" type="curve" smooth="yes"/>
      <point x="185" y="-149"/>
      <point x="77" y="-94"/>
    </contour>
    <contour>
      <point x="178" y="336" type="curve" smooth="yes"/>
      <point x="178" y="401"/>
      <point x="234" y="449"/>
      <point x="312" y="449" type="curve" smooth="yes"/>
      <point x="394" y="449"/>
      <point x="446" y="401"/>
      <point x="446" y="336" type="curve" smooth="yes"/>
      <point x="446" y="270"/>
      <point x="394" y="221"/>
      <point x="312" y="221" type="curve" smooth="yes"/>
      <point x="230" y="221"/>
      <point x="178" y="270"/>
    </contour>
    <contour>
      <point x="432" y="437" type="curve"/>
      <point x="471" y="438" type="line"/>
      <point x="471" y="504"/>
      <point x="509" y="557"/>
      <point x="588" y="557" type="curve" smooth="yes"/>
      <point x="595" y="557"/>
      <point x="602" y="557"/>
      <point x="609" y="556" type="curve"/>
      <point x="543" y="623" type="line"/>
      <point x="468" y="611"/>
      <point x="412" y="545"/>
    </contour>
  </outline>
</glyph>
<glyph name="_j.lig" format="2">
  <advance width="232"/>
  <anchor x="122" y="-200" name="bottom"/>
  <anchor x="122" y="708" name="top"/>
  <outline>
    <contour>
      <point x="-8" y="-200" type="curve"/>
      <point x="87" y="-200" type="line"/>
      <point x="124" y="-180"/>
      <point x="157" y="-114"/>
      <point x="157" y="8" type="curve" smooth="yes"/>
      <point x="157" y="500" type="line"/>
      <point x="85" y="500" type="line"/>
      <point x="85" y="-5" type="line" smooth="yes"/>
      <point x="85" y="-110"/>
      <point x="46" y="-162"/>
    </contour>
    <contour>
      <point x="69" y="602" type="line"/>
      <point x="175" y="602" type="line"/>
      <point x="175" y="708" type="line"/>
      <point x="69" y="708" type="line"/>
    </contour>
  </outline>
</glyph>
<glyph name="_k.rightsidelig" format="2">
  <advance width="422"/>
  <anchor x="42" y="0" name="#entry"/>
  <outline>
    <contour>
      <point x="0" y="222" type="line"/>
      <point x="42" y="180" type="line"/>
      <point x="402" y="500" type="line"/>
      <point x="309" y="500" type="line"/>
    </contour>
    <contour>
      <point x="112" y="313" type="line"/>
      <point x="337" y="0" type="line"/>
      <point x="422" y="0" type="line"/>
      <point x="178" y="344" type="line"/>
    </contour>
  </outline>
</glyph>
<glyph name="_n.rightsidelig" format="2">
  <advance width="512"/>
  <anchor x="100" y="0" name="#entry"/>
  <outline>
    <contour>
      <point x="247" y="456" type="curve" smooth="yes"/>
      <point x="324" y="456"/>
      <point x="379" y="405"/>
      <point x="379" y="306" type="curve" smooth="yes"/>
      <point x="379" y="0" type="line"/>
      <point x="452" y="0" type="line"/>
      <point x="452" y="319" type="line" smooth="yes"/>
      <point x="452" y="439"/>
      <point x="386" y="512"/>
      <point x="270" y="512" type="curve" smooth="yes"/>
      <point x="141" y="512"/>
      <point x="79" y="421"/>
      <point x="74" y="292" type="curve"/>
      <point x="100" y="292" type="line"/>
      <point x="107" y="398"/>
      <point x="163" y="456"/>
    </contour>
  </outline>
</glyph>
<glyph name="a.ordn" format="2">
  <advance width="458" height="0"/>
  <anchor x="227" y="307" name="bottom"/>
  <anchor x="420" y="307" name="ogonek"/>
  <anchor x="227" y="691" name="top"/>
  <outline>
    <contour>
      <point x="207" y="657" type="curve" smooth="yes"/>
      <point x="274" y="657"/>
      <point x="314" y="621"/>
      <point x="314" y="542" type="curve" smooth="yes"/>
      <point x="314" y="465"/>
      <point x="294" y="357"/>
      <point x="352" y="309" type="curve"/>
      <point x="438" y="309" type="line"/>
      <point x="359" y="349"/>
      <point x="381" y="465"/>
      <point x="381" y="546" type="curve" smooth="yes"/>
      <point x="381" y="655"/>
      <point x="312" y="709"/>
      <point x="208" y="709" type="curve" smooth="yes"/>
      <point x="121" y="709"/>
      <point x="55" y="658"/>
      <point x="44" y="591" type="curve"/>
      <point x="113" y="529" type="line"/>
      <point x="89" y="617"/>
      <point x="151" y="657"/>
    </contour>
    <contour>
      <point x="312" y="484" type="line"/>
      <point x="315" y="450"/>
      <point x="284" y="352"/>
      <point x="185" y="352" type="curve" smooth="yes"/>
      <point x="140" y="352"/>
      <point x="111" y="380"/>
      <point x="111" y="418" type="curve" smooth="yes"/>
      <point x="111" y="470"/>
      <point x="148" y="490"/>
      <point x="206" y="491" type="curve" smooth="yes"/>
      <point x="331" y="493" type="line"/>
      <point x="331" y="545" type="line"/>
      <point x="206" y="544" type="line" smooth="yes"/>
      <point x="117" y="543"/>
      <point x="46" y="496"/>
      <point x="46" y="412" type="curve" smooth="yes"/>
      <point x="46" y="351"/>
      <point x="92" y="301"/>
      <point x="177" y="301" type="curve" smooth="yes"/>
      <point x="277" y="301"/>
      <point x="328" y="362"/>
      <point x="334" y="478" type="curve"/>
    </contour>
  </outline>
</glyph>
